<svg xmlns="http://www.w3.org/2000/svg" viewBox="0 0 24 24" fill="currentColor" class="w-6 h-6"><path d="M5.700 3.076 C 5.506 3.165,5.384 3.292,5.302 3.489 C 5.247 3.620,5.240 4.104,5.241 7.509 C 5.242 11.187,5.245 11.388,5.316 11.540 C 5.594 12.144,6.406 12.144,6.684 11.540 C 6.755 11.388,6.758 11.188,6.758 7.500 C 6.758 3.812,6.755 3.612,6.684 3.460 C 6.503 3.068,6.077 2.902,5.700 3.076 M11.700 3.076 C 11.506 3.165,11.384 3.292,11.302 3.489 C 11.212 3.705,11.212 5.295,11.302 5.511 C 11.569 6.151,12.431 6.151,12.698 5.511 C 12.748 5.392,12.760 5.189,12.759 4.491 C 12.758 3.730,12.749 3.600,12.684 3.460 C 12.503 3.068,12.077 2.902,11.700 3.076 M17.700 3.076 C 17.506 3.165,17.384 3.292,17.302 3.489 C 17.247 3.620,17.240 4.104,17.241 7.509 C 17.242 11.187,17.245 11.388,17.316 11.540 C 17.594 12.144,18.406 12.144,18.684 11.540 C 18.755 11.388,18.758 11.188,18.758 7.500 C 18.758 3.812,18.755 3.612,18.684 3.460 C 18.503 3.068,18.077 2.902,17.700 3.076 M11.540 6.798 C 10.501 7.023,9.760 7.940,9.760 9.000 C 9.760 9.615,9.979 10.139,10.420 10.580 C 11.309 11.469,12.691 11.469,13.580 10.580 C 14.744 9.416,14.319 7.482,12.771 6.894 C 12.473 6.781,11.844 6.732,11.540 6.798 M11.700 12.076 C 11.506 12.165,11.384 12.292,11.302 12.489 C 11.247 12.620,11.240 13.104,11.241 16.509 C 11.242 20.187,11.245 20.388,11.316 20.540 C 11.405 20.734,11.532 20.856,11.729 20.938 C 12.097 21.092,12.509 20.920,12.684 20.540 C 12.755 20.388,12.758 20.188,12.758 16.500 C 12.758 12.812,12.755 12.612,12.684 12.460 C 12.503 12.068,12.077 11.902,11.700 12.076 M5.540 12.798 C 4.501 13.023,3.760 13.940,3.760 15.000 C 3.760 15.615,3.979 16.139,4.420 16.580 C 5.309 17.469,6.691 17.469,7.580 16.580 C 8.744 15.416,8.319 13.482,6.771 12.894 C 6.473 12.781,5.844 12.732,5.540 12.798 M17.540 12.798 C 16.501 13.023,15.760 13.940,15.760 15.000 C 15.760 15.615,15.979 16.139,16.420 16.580 C 17.309 17.469,18.691 17.469,19.580 16.580 C 20.744 15.416,20.319 13.482,18.771 12.894 C 18.473 12.781,17.844 12.732,17.540 12.798 M5.700 18.076 C 5.506 18.165,5.384 18.292,5.302 18.489 C 5.212 18.705,5.212 20.295,5.302 20.511 C 5.569 21.151,6.431 21.151,6.698 20.511 C 6.748 20.392,6.760 20.189,6.759 19.491 C 6.758 18.730,6.749 18.600,6.684 18.460 C 6.503 18.068,6.077 17.902,5.700 18.076 M17.700 18.076 C 17.506 18.165,17.384 18.292,17.302 18.489 C 17.212 18.705,17.212 20.295,17.302 20.511 C 17.569 21.151,18.431 21.151,18.698 20.511 C 18.748 20.392,18.760 20.189,18.759 19.491 C 18.758 18.730,18.749 18.600,18.684 18.460 C 18.503 18.068,18.077 17.902,17.700 18.076 " stroke="none" fill-rule="evenodd"></path></svg>