<svg xmlns="http://www.w3.org/2000/svg" fill="none" viewBox="0 0 24 24" stroke-width="1.5" stroke="currentColor" class="w-6 h-6"><path d="M5.700 3.076 C 5.506 3.165,5.384 3.292,5.302 3.489 C 5.247 3.620,5.240 4.177,5.240 8.249 L 5.240 12.860 4.970 12.999 C 4.632 13.173,4.186 13.611,4.013 13.940 C 3.672 14.587,3.672 15.413,4.013 16.060 C 4.186 16.389,4.632 16.827,4.970 17.001 L 5.240 17.140 5.240 18.762 C 5.240 20.364,5.241 20.385,5.330 20.559 C 5.379 20.656,5.489 20.790,5.574 20.858 C 5.711 20.967,5.756 20.980,6.000 20.980 C 6.244 20.980,6.289 20.967,6.426 20.858 C 6.511 20.790,6.620 20.656,6.670 20.559 C 6.759 20.385,6.760 20.364,6.760 18.762 L 6.760 17.140 7.030 17.001 C 7.368 16.827,7.814 16.389,7.987 16.060 C 8.328 15.413,8.328 14.587,7.987 13.940 C 7.814 13.611,7.368 13.173,7.030 12.999 L 6.760 12.860 6.759 8.240 C 6.758 3.834,6.755 3.613,6.684 3.460 C 6.503 3.068,6.077 2.902,5.700 3.076 M11.700 3.076 C 11.506 3.165,11.384 3.292,11.302 3.489 C 11.250 3.615,11.240 3.885,11.240 5.249 L 11.240 6.860 10.970 6.999 C 10.632 7.173,10.186 7.611,10.013 7.940 C 9.672 8.587,9.672 9.413,10.013 10.060 C 10.186 10.389,10.632 10.827,10.970 11.001 L 11.240 11.140 11.240 15.762 L 11.240 20.383 11.330 20.559 C 11.380 20.656,11.489 20.790,11.574 20.858 C 11.711 20.967,11.756 20.980,12.000 20.980 C 12.244 20.980,12.289 20.967,12.426 20.858 C 12.511 20.790,12.620 20.656,12.670 20.559 L 12.760 20.383 12.760 15.762 L 12.760 11.140 13.030 11.001 C 13.368 10.827,13.814 10.389,13.987 10.060 C 14.328 9.413,14.328 8.587,13.987 7.940 C 13.814 7.611,13.368 7.173,13.030 6.999 L 12.760 6.860 12.759 5.240 C 12.758 3.751,12.752 3.607,12.684 3.460 C 12.503 3.068,12.077 2.902,11.700 3.076 M17.700 3.076 C 17.506 3.165,17.384 3.292,17.302 3.489 C 17.247 3.620,17.240 4.177,17.240 8.249 L 17.240 12.860 16.970 12.999 C 16.799 13.087,16.597 13.241,16.420 13.419 C 15.963 13.877,15.760 14.364,15.760 15.000 C 15.760 15.636,15.963 16.123,16.420 16.581 C 16.597 16.759,16.799 16.913,16.970 17.001 L 17.240 17.140 17.240 18.762 C 17.240 20.364,17.241 20.385,17.330 20.559 C 17.380 20.656,17.489 20.790,17.574 20.858 C 17.711 20.967,17.756 20.980,18.000 20.980 C 18.244 20.980,18.289 20.967,18.426 20.858 C 18.511 20.790,18.620 20.656,18.670 20.559 C 18.759 20.385,18.760 20.364,18.760 18.762 L 18.760 17.140 19.030 17.001 C 19.201 16.913,19.403 16.759,19.580 16.581 C 20.037 16.123,20.240 15.636,20.240 15.000 C 20.240 14.364,20.037 13.877,19.580 13.419 C 19.403 13.241,19.201 13.087,19.030 12.999 L 18.760 12.860 18.759 8.240 C 18.758 3.834,18.755 3.613,18.684 3.460 C 18.503 3.068,18.077 2.902,17.700 3.076 M12.360 8.341 C 12.600 8.464,12.733 8.700,12.733 9.000 C 12.733 9.361,12.531 9.631,12.194 9.722 C 11.668 9.863,11.181 9.415,11.267 8.868 C 11.343 8.382,11.909 8.109,12.360 8.341 M6.360 14.341 C 6.600 14.464,6.733 14.700,6.733 15.000 C 6.733 15.361,6.531 15.631,6.194 15.722 C 5.668 15.863,5.181 15.415,5.267 14.868 C 5.343 14.382,5.909 14.109,6.360 14.341 M18.360 14.341 C 18.600 14.464,18.733 14.700,18.733 15.000 C 18.733 15.361,18.531 15.631,18.194 15.722 C 17.668 15.863,17.181 15.415,17.267 14.868 C 17.343 14.382,17.909 14.109,18.360 14.341 " stroke="none" fill-rule="evenodd" fill="black"></path></svg>