<svg xmlns="http://www.w3.org/2000/svg" fill="none" viewBox="0 0 24 24" stroke-width="1.5" stroke="currentColor" class="w-6 h-6"><path d="M7.780 1.583 C 7.574 1.690,7.478 1.809,7.298 2.180 C 7.010 2.777,6.796 3.531,6.789 3.980 C 6.784 4.270,6.896 4.451,7.350 4.884 L 7.745 5.260 7.676 5.494 C 7.507 6.059,7.449 7.008,7.555 7.452 C 7.721 8.142,8.279 8.644,9.007 8.758 C 9.529 8.840,9.494 8.794,9.316 9.149 C 9.230 9.319,9.160 9.481,9.160 9.509 C 9.160 9.584,9.003 9.573,8.233 9.443 C 7.405 9.303,6.623 9.134,5.872 8.932 C 5.391 8.803,5.320 8.773,5.320 8.702 C 5.320 8.510,5.488 7.170,5.585 6.586 C 5.673 6.055,5.683 5.928,5.644 5.798 C 5.504 5.332,4.991 5.125,4.562 5.361 C 4.237 5.541,4.191 5.673,4.004 6.960 C 3.904 7.645,3.803 8.674,3.790 9.140 C 3.781 9.467,3.790 9.516,3.886 9.680 C 4.030 9.926,4.179 10.000,5.043 10.254 C 6.173 10.588,7.655 10.898,8.881 11.058 C 9.061 11.082,9.062 11.083,9.111 11.291 C 9.138 11.406,9.224 11.632,9.300 11.794 C 9.377 11.956,9.431 12.102,9.421 12.118 C 9.411 12.135,9.262 12.161,9.091 12.177 C 8.076 12.268,6.291 12.628,5.080 12.985 C 4.473 13.164,3.623 13.449,3.480 13.522 C 3.296 13.615,3.142 13.785,3.079 13.965 C 2.946 14.343,3.297 16.963,3.705 18.635 C 3.916 19.498,4.232 20.520,4.339 20.684 C 4.515 20.953,4.918 21.069,5.230 20.938 C 5.420 20.859,5.511 20.775,5.604 20.592 C 5.710 20.384,5.699 20.141,5.563 19.710 C 5.134 18.349,4.812 16.813,4.655 15.384 C 4.590 14.799,4.590 14.746,4.650 14.702 C 4.737 14.638,6.035 14.261,6.064 14.291 C 6.077 14.304,6.068 14.407,6.044 14.519 C 5.915 15.121,6.061 16.495,6.367 17.560 C 6.942 19.557,8.175 21.156,9.760 21.958 C 11.176 22.675,12.852 22.673,14.245 21.954 C 16.076 21.008,17.395 19.080,17.837 16.700 C 17.993 15.858,18.041 14.998,17.957 14.543 C 17.934 14.416,17.925 14.302,17.937 14.290 C 17.960 14.266,19.046 14.573,19.270 14.667 C 19.431 14.734,19.430 14.719,19.301 15.732 C 19.141 16.995,18.856 18.329,18.483 19.558 C 18.302 20.157,18.284 20.372,18.396 20.592 C 18.489 20.775,18.580 20.859,18.770 20.938 C 19.082 21.069,19.486 20.953,19.660 20.684 C 19.784 20.491,20.063 19.580,20.323 18.512 C 20.702 16.961,21.045 14.359,20.921 13.982 C 20.858 13.792,20.704 13.614,20.525 13.524 C 20.377 13.449,19.529 13.165,18.920 12.985 C 17.725 12.633,15.967 12.277,14.940 12.180 C 14.499 12.138,14.515 12.162,14.688 11.810 C 14.772 11.639,14.863 11.406,14.890 11.291 C 14.938 11.083,14.939 11.082,15.119 11.059 C 15.711 10.982,17.039 10.742,17.641 10.602 C 18.551 10.391,19.771 10.024,19.916 9.917 C 19.978 9.871,20.072 9.758,20.124 9.666 C 20.208 9.520,20.218 9.456,20.210 9.140 C 20.197 8.681,20.097 7.656,19.998 6.961 C 19.815 5.687,19.765 5.542,19.438 5.361 C 19.011 5.126,18.496 5.332,18.357 5.794 C 18.320 5.918,18.330 6.058,18.414 6.582 C 18.606 7.785,18.708 8.710,18.654 8.760 C 18.559 8.849,17.030 9.218,16.020 9.397 C 15.087 9.561,14.840 9.586,14.840 9.514 C 14.840 9.483,14.769 9.319,14.682 9.149 C 14.501 8.795,14.466 8.840,14.986 8.759 C 15.631 8.658,16.151 8.256,16.374 7.688 C 16.547 7.244,16.536 6.294,16.348 5.603 L 16.256 5.266 16.703 4.823 C 17.082 4.446,17.156 4.353,17.193 4.199 C 17.308 3.722,16.860 2.243,16.454 1.761 C 16.186 1.441,15.644 1.434,15.353 1.745 C 15.106 2.009,15.094 2.311,15.315 2.751 C 15.401 2.921,15.518 3.211,15.577 3.396 L 15.683 3.732 15.599 3.821 L 15.516 3.910 15.188 3.583 C 14.437 2.835,13.484 2.383,12.439 2.278 C 11.100 2.144,9.780 2.619,8.812 3.583 L 8.484 3.910 8.399 3.819 L 8.314 3.729 8.436 3.366 C 8.503 3.166,8.621 2.877,8.699 2.723 C 8.854 2.413,8.881 2.173,8.785 1.949 C 8.718 1.793,8.541 1.620,8.387 1.563 C 8.224 1.501,7.918 1.511,7.780 1.583 M12.700 3.842 C 13.649 4.080,14.364 4.689,14.753 5.587 C 14.923 5.982,14.975 6.244,14.977 6.733 C 14.980 7.249,14.981 7.249,14.529 7.317 C 13.030 7.544,10.970 7.544,9.471 7.317 C 9.301 7.292,9.133 7.249,9.096 7.222 C 9.005 7.155,8.976 6.683,9.039 6.290 C 9.230 5.099,10.102 4.148,11.280 3.844 C 11.694 3.737,12.281 3.736,12.700 3.842 M12.367 9.055 C 12.823 9.162,13.227 9.527,13.401 9.990 C 13.473 10.181,13.485 10.281,13.471 10.580 C 13.451 11.011,13.342 11.262,13.043 11.561 C 12.827 11.777,12.668 11.869,12.380 11.946 C 12.025 12.040,11.617 11.994,11.284 11.822 C 11.081 11.717,10.781 11.399,10.656 11.155 C 10.499 10.849,10.473 10.324,10.600 9.989 C 10.715 9.682,10.894 9.454,11.168 9.265 C 11.520 9.022,11.927 8.951,12.367 9.055 M13.600 13.561 C 14.620 13.633,15.455 13.750,15.694 13.856 C 15.960 13.973,16.200 14.185,16.347 14.433 C 16.445 14.599,16.459 14.667,16.473 15.049 C 16.510 16.068,16.246 17.261,15.762 18.258 C 15.102 19.615,14.041 20.574,12.860 20.882 C 11.052 21.353,9.232 20.309,8.221 18.220 C 7.750 17.248,7.491 16.066,7.526 15.049 C 7.539 14.671,7.553 14.598,7.648 14.437 C 7.790 14.194,8.040 13.973,8.306 13.856 C 8.536 13.754,9.377 13.632,10.300 13.566 C 10.990 13.516,12.921 13.514,13.600 13.561 " stroke="none" fill-rule="evenodd" fill="black"></path></svg>