<svg xmlns="http://www.w3.org/2000/svg" fill="none" viewBox="0 0 24 24" stroke-width="1.5" stroke="currentColor" class="w-6 h-6"><path d="M3.540 6.034 C 2.801 6.276,2.844 7.314,3.599 7.476 C 3.889 7.538,20.111 7.538,20.401 7.476 C 20.785 7.394,21.034 7.047,20.990 6.656 C 20.966 6.449,20.886 6.322,20.664 6.142 L 20.513 6.020 12.066 6.014 C 7.421 6.010,3.584 6.019,3.540 6.034 M3.571 11.279 C 3.395 11.321,3.266 11.411,3.133 11.586 C 3.035 11.714,3.020 11.769,3.020 12.003 C 3.020 12.243,3.033 12.289,3.142 12.426 C 3.210 12.511,3.344 12.620,3.441 12.670 L 3.617 12.760 12.000 12.760 L 20.383 12.760 20.559 12.670 C 20.656 12.620,20.790 12.511,20.858 12.426 C 20.967 12.289,20.980 12.244,20.980 12.000 C 20.980 11.755,20.968 11.712,20.856 11.574 C 20.787 11.489,20.670 11.384,20.596 11.340 C 20.461 11.261,20.382 11.260,12.080 11.254 C 7.471 11.250,3.642 11.262,3.571 11.279 M3.420 16.583 C 3.240 16.677,3.156 16.763,3.075 16.940 C 2.987 17.131,2.980 17.355,3.055 17.531 C 3.123 17.688,3.340 17.900,3.493 17.958 C 3.571 17.987,6.177 18.000,12.000 18.000 C 17.823 18.000,20.429 17.987,20.507 17.958 C 20.660 17.900,20.877 17.688,20.945 17.531 C 21.017 17.363,21.015 17.153,20.938 16.970 C 20.859 16.780,20.775 16.689,20.592 16.596 C 20.447 16.522,20.206 16.520,11.992 16.520 C 4.406 16.520,3.528 16.527,3.420 16.583 " stroke="none" fill-rule="evenodd" fill="black"></path></svg>