<svg xmlns="http://www.w3.org/2000/svg" fill="none" viewBox="0 0 24 24" stroke-width="1.5" stroke="currentColor" class="w-6 h-6"><path d="M11.680 2.267 C 9.628 2.373,7.809 3.351,6.555 5.020 C 5.938 5.841,5.489 6.939,5.320 8.040 C 5.295 8.205,5.258 8.862,5.239 9.500 C 5.203 10.658,5.159 11.078,5.005 11.720 C 4.723 12.898,4.095 14.128,3.294 15.072 C 2.946 15.482,2.885 15.658,2.977 15.975 C 3.040 16.191,3.172 16.347,3.380 16.450 C 3.566 16.543,4.912 16.976,5.580 17.158 C 6.075 17.294,7.497 17.600,8.084 17.697 L 8.228 17.721 8.252 18.151 C 8.330 19.548,9.109 20.742,10.344 21.356 C 11.395 21.878,12.605 21.878,13.656 21.356 C 14.895 20.740,15.668 19.549,15.749 18.134 L 15.772 17.721 15.916 17.697 C 16.502 17.600,17.925 17.294,18.420 17.158 C 19.142 16.961,20.442 16.539,20.648 16.435 C 20.831 16.343,20.979 16.152,21.037 15.931 C 21.111 15.653,21.039 15.465,20.707 15.073 C 19.731 13.920,19.102 12.542,18.855 11.020 C 18.823 10.822,18.781 10.138,18.761 9.500 C 18.742 8.862,18.705 8.205,18.680 8.040 C 18.342 5.843,17.052 4.040,15.075 3.002 C 14.087 2.484,12.815 2.208,11.680 2.267 M12.800 3.820 C 14.468 4.070,15.941 5.155,16.711 6.700 C 16.886 7.052,17.094 7.666,17.161 8.028 C 17.184 8.155,17.219 8.791,17.239 9.440 C 17.283 10.918,17.360 11.519,17.626 12.436 C 17.872 13.288,18.357 14.359,18.796 15.020 C 18.928 15.218,19.023 15.392,19.008 15.407 C 18.973 15.441,18.152 15.683,17.620 15.815 C 14.742 16.533,11.623 16.687,8.648 16.258 C 7.928 16.154,7.063 15.986,6.380 15.815 C 5.849 15.683,5.027 15.441,4.992 15.407 C 4.977 15.392,5.042 15.263,5.137 15.120 C 5.754 14.189,6.206 13.146,6.475 12.031 C 6.689 11.147,6.760 10.476,6.760 9.350 C 6.760 8.479,6.823 7.979,7.005 7.411 C 7.261 6.608,7.692 5.905,8.299 5.299 C 9.488 4.109,11.131 3.569,12.800 3.820 M12.000 17.980 C 12.605 17.980,13.357 17.965,13.670 17.947 L 14.240 17.914 14.240 18.101 C 14.240 18.339,14.142 18.721,14.012 18.985 C 13.474 20.084,12.131 20.547,11.020 20.017 C 10.335 19.691,9.825 18.944,9.769 18.187 L 9.749 17.914 10.324 17.947 C 10.641 17.965,11.395 17.980,12.000 17.980 " stroke="none" fill-rule="evenodd" fill="black"></path></svg>