<svg xmlns="http://www.w3.org/2000/svg" viewBox="0 0 24 24" fill="currentColor" class="w-6 h-6"><path d="M9.981 1.563 C 9.390 1.653,8.808 1.948,8.380 2.376 C 7.864 2.892,7.594 3.485,7.513 4.281 C 7.483 4.576,7.452 4.720,7.419 4.720 C 7.135 4.720,5.083 4.981,4.111 5.140 C 3.499 5.241,3.360 5.288,3.212 5.447 C 2.721 5.972,3.179 6.806,3.899 6.698 L 4.073 6.672 4.097 6.886 C 4.111 7.004,4.337 9.926,4.601 13.380 C 4.865 16.834,5.099 19.783,5.121 19.934 C 5.300 21.131,6.143 22.068,7.350 22.411 L 7.660 22.500 12.000 22.500 L 16.340 22.500 16.650 22.411 C 17.857 22.068,18.700 21.131,18.879 19.934 C 18.901 19.783,19.135 16.834,19.399 13.380 C 19.663 9.926,19.889 7.004,19.903 6.886 L 19.927 6.672 20.101 6.698 C 20.691 6.786,21.160 6.221,20.938 5.689 C 20.793 5.342,20.644 5.264,19.889 5.140 C 18.917 4.981,16.865 4.720,16.581 4.720 C 16.548 4.720,16.517 4.576,16.487 4.281 C 16.375 3.175,15.816 2.317,14.918 1.869 C 14.260 1.540,14.313 1.546,12.140 1.536 C 11.084 1.531,10.113 1.543,9.981 1.563 M13.961 3.076 C 14.210 3.151,14.533 3.375,14.688 3.580 C 14.864 3.813,14.953 4.048,14.987 4.371 L 15.012 4.602 14.616 4.571 C 14.104 4.531,9.900 4.531,9.390 4.571 L 9.000 4.602 9.000 4.451 C 9.002 4.087,9.222 3.603,9.490 3.378 C 9.752 3.157,9.996 3.068,10.420 3.036 C 10.997 2.994,13.790 3.025,13.961 3.076 M9.580 8.329 C 9.722 8.401,9.917 8.611,9.959 8.738 C 10.024 8.935,10.364 18.043,10.313 18.227 C 10.224 18.550,9.819 18.801,9.484 18.741 C 9.270 18.702,9.053 18.542,8.954 18.350 C 8.869 18.185,8.862 18.055,8.689 13.571 C 8.591 11.036,8.523 8.896,8.538 8.817 C 8.573 8.630,8.811 8.374,9.020 8.299 C 9.184 8.240,9.428 8.253,9.580 8.329 M15.178 8.375 C 15.259 8.437,15.363 8.565,15.409 8.660 L 15.492 8.833 15.312 13.506 C 15.138 18.046,15.130 18.185,15.045 18.350 C 14.765 18.898,13.967 18.867,13.715 18.297 C 13.643 18.136,13.645 18.031,13.821 13.476 C 14.012 8.491,14.000 8.646,14.215 8.445 C 14.386 8.284,14.529 8.235,14.785 8.250 C 14.979 8.260,15.061 8.287,15.178 8.375 " stroke="none" fill-rule="evenodd"></path></svg>