<svg xmlns="http://www.w3.org/2000/svg" fill="none" viewBox="0 0 24 24" stroke-width="1.5" stroke="currentColor" class="w-6 h-6"><path d="M9.974 1.562 C 9.065 1.681,8.230 2.303,7.782 3.194 C 7.638 3.481,7.535 3.902,7.500 4.350 C 7.485 4.554,7.460 4.720,7.446 4.720 C 7.316 4.721,6.081 4.862,5.360 4.958 C 4.034 5.136,3.533 5.225,3.393 5.307 C 2.665 5.734,3.050 6.810,3.891 6.695 L 4.073 6.670 4.097 6.885 C 4.111 7.003,4.337 9.926,4.600 13.380 C 4.863 16.834,5.098 19.795,5.123 19.960 C 5.329 21.312,6.411 22.337,7.786 22.481 C 7.981 22.502,9.877 22.519,12.000 22.519 C 14.123 22.519,16.019 22.502,16.214 22.481 C 16.637 22.437,17.105 22.288,17.423 22.097 C 18.223 21.615,18.746 20.846,18.876 19.959 C 18.900 19.795,19.135 16.834,19.399 13.380 C 19.663 9.926,19.889 7.004,19.903 6.886 L 19.927 6.672 20.101 6.698 C 20.709 6.789,21.191 6.170,20.922 5.643 C 20.828 5.459,20.649 5.302,20.471 5.246 C 20.169 5.151,16.969 4.722,16.554 4.720 C 16.540 4.720,16.515 4.554,16.500 4.350 C 16.465 3.902,16.362 3.481,16.218 3.194 C 15.762 2.286,14.941 1.684,13.991 1.560 C 13.642 1.515,10.324 1.517,9.974 1.562 M14.020 3.096 C 14.400 3.215,14.817 3.631,14.920 3.993 C 14.942 4.074,14.973 4.244,14.987 4.372 L 15.012 4.604 14.476 4.572 C 13.784 4.531,10.220 4.531,9.530 4.571 L 9.000 4.603 9.000 4.483 C 9.000 4.296,9.082 3.955,9.169 3.784 C 9.279 3.566,9.584 3.274,9.819 3.160 C 10.094 3.027,10.504 3.004,12.320 3.020 C 13.545 3.031,13.857 3.045,14.020 3.096 M14.940 6.102 C 15.972 6.165,17.283 6.287,17.957 6.381 C 18.186 6.414,18.385 6.440,18.398 6.440 C 18.434 6.440,17.416 19.620,17.361 19.867 C 17.281 20.230,16.948 20.658,16.608 20.837 C 16.297 21.000,16.315 20.999,12.000 20.999 C 7.685 20.999,7.703 21.000,7.392 20.837 C 7.052 20.658,6.719 20.230,6.639 19.867 C 6.593 19.660,5.563 6.440,5.593 6.440 C 5.601 6.440,5.881 6.405,6.214 6.361 C 7.392 6.208,9.258 6.068,10.720 6.024 C 11.549 5.998,13.999 6.044,14.940 6.102 M9.100 8.277 C 8.828 8.343,8.582 8.582,8.535 8.829 C 8.497 9.025,8.830 17.925,8.884 18.157 C 8.984 18.590,9.381 18.833,9.802 18.719 C 10.021 18.661,10.255 18.433,10.318 18.219 C 10.378 18.015,10.036 8.933,9.961 8.740 C 9.834 8.410,9.436 8.196,9.100 8.277 M14.660 8.260 C 14.638 8.267,14.571 8.284,14.511 8.297 C 14.360 8.330,14.120 8.550,14.049 8.719 C 13.963 8.926,13.612 17.986,13.681 18.219 C 13.745 18.433,13.979 18.661,14.198 18.719 C 14.619 18.833,15.016 18.590,15.116 18.157 C 15.170 17.925,15.503 9.025,15.465 8.829 C 15.433 8.663,15.247 8.426,15.084 8.343 C 14.972 8.287,14.725 8.238,14.660 8.260 " stroke="none" fill-rule="evenodd" fill="black"></path></svg>