<svg xmlns="http://www.w3.org/2000/svg" fill="none" viewBox="0 0 24 24" stroke-width="1.5" stroke="currentColor" class="w-6 h-6"><path d="M6.571 2.278 C 6.394 2.321,6.266 2.412,6.133 2.586 L 6.020 2.734 6.007 3.627 L 5.995 4.520 5.404 4.520 C 4.944 4.520,4.743 4.538,4.496 4.600 C 3.475 4.859,2.652 5.666,2.352 6.702 L 2.260 7.020 2.260 13.120 L 2.260 19.220 2.350 19.532 C 2.654 20.580,3.419 21.346,4.468 21.649 L 4.780 21.740 12.000 21.740 L 19.220 21.740 19.532 21.649 C 20.578 21.347,21.347 20.578,21.649 19.532 L 21.740 19.220 21.740 13.120 L 21.740 7.020 21.648 6.702 C 21.347 5.663,20.528 4.863,19.495 4.599 C 19.257 4.538,19.053 4.520,18.596 4.520 L 18.005 4.520 17.993 3.624 L 17.980 2.727 17.856 2.574 C 17.674 2.349,17.510 2.267,17.245 2.267 C 16.958 2.267,16.721 2.406,16.591 2.650 C 16.507 2.808,16.500 2.879,16.487 3.670 L 16.473 4.520 12.000 4.520 L 7.527 4.520 7.513 3.670 C 7.500 2.834,7.498 2.817,7.394 2.640 C 7.228 2.357,6.876 2.202,6.571 2.278 M19.329 6.127 C 19.638 6.272,19.817 6.420,19.983 6.669 C 20.205 7.001,20.239 7.171,20.240 7.948 L 20.240 8.637 19.992 8.519 C 19.855 8.455,19.608 8.370,19.442 8.331 C 19.159 8.264,18.694 8.260,12.000 8.260 C 4.074 8.260,4.592 8.243,4.005 8.521 L 3.754 8.639 3.767 7.870 C 3.780 7.119,3.783 7.094,3.893 6.870 C 4.093 6.462,4.517 6.125,4.934 6.041 C 5.025 6.023,8.250 6.011,12.100 6.014 L 19.100 6.020 19.329 6.127 M19.369 9.888 C 19.663 10.025,19.975 10.337,20.112 10.631 L 20.220 10.860 20.220 15.000 L 20.220 19.140 20.112 19.369 C 19.975 19.663,19.663 19.975,19.369 20.112 L 19.140 20.220 12.000 20.220 L 4.860 20.220 4.631 20.112 C 4.337 19.975,4.025 19.663,3.888 19.369 L 3.780 19.140 3.780 15.000 L 3.780 10.860 3.871 10.663 C 4.054 10.266,4.373 9.972,4.772 9.834 C 4.970 9.766,5.329 9.763,12.060 9.771 L 19.140 9.780 19.369 9.888 M11.698 12.075 C 11.276 12.267,11.120 12.790,11.373 13.166 C 11.830 13.844,12.862 13.428,12.742 12.614 C 12.718 12.453,12.681 12.389,12.523 12.236 C 12.265 11.987,12.005 11.936,11.698 12.075 M13.940 12.073 C 13.718 12.179,13.598 12.323,13.538 12.554 C 13.426 12.985,13.656 13.370,14.094 13.487 C 14.323 13.548,14.543 13.488,14.747 13.309 C 15.242 12.874,14.966 12.058,14.308 12.012 C 14.162 12.002,14.052 12.020,13.940 12.073 M16.167 12.086 C 15.848 12.243,15.682 12.662,15.798 13.013 C 15.858 13.195,16.109 13.421,16.321 13.485 C 16.754 13.615,17.237 13.252,17.246 12.789 C 17.251 12.566,17.216 12.453,17.090 12.286 C 16.887 12.015,16.485 11.928,16.167 12.086 M7.420 14.260 C 7.398 14.267,7.331 14.284,7.271 14.297 C 7.124 14.329,6.881 14.548,6.814 14.708 C 6.683 15.022,6.807 15.444,7.084 15.627 C 7.480 15.889,8.040 15.717,8.207 15.282 C 8.330 14.964,8.181 14.533,7.894 14.374 C 7.744 14.292,7.501 14.233,7.420 14.260 M9.571 14.278 C 9.274 14.351,9.050 14.605,9.014 14.910 C 8.982 15.181,9.051 15.363,9.258 15.554 C 9.885 16.132,10.843 15.338,10.399 14.608 C 10.244 14.354,9.871 14.205,9.571 14.278 M11.805 14.279 C 11.391 14.380,11.144 14.857,11.298 15.260 C 11.427 15.598,11.775 15.797,12.141 15.742 C 12.295 15.719,12.366 15.678,12.522 15.522 C 12.678 15.366,12.719 15.295,12.742 15.141 C 12.825 14.588,12.346 14.148,11.805 14.279 M14.083 14.268 C 13.703 14.343,13.437 14.773,13.527 15.169 C 13.679 15.849,14.617 15.966,14.919 15.343 C 15.151 14.863,14.867 14.336,14.340 14.269 C 14.252 14.258,14.137 14.258,14.083 14.268 M16.420 14.260 C 16.398 14.267,16.331 14.284,16.271 14.297 C 16.124 14.329,15.881 14.548,15.814 14.708 C 15.683 15.022,15.807 15.444,16.084 15.627 C 16.480 15.889,17.040 15.717,17.207 15.282 C 17.330 14.964,17.181 14.533,16.894 14.374 C 16.744 14.292,16.501 14.233,16.420 14.260 M7.180 16.577 C 6.578 16.845,6.635 17.754,7.267 17.962 C 7.617 18.078,8.011 17.914,8.174 17.586 C 8.257 17.418,8.270 17.092,8.197 16.952 C 8.129 16.819,7.956 16.641,7.832 16.576 C 7.697 16.506,7.339 16.506,7.180 16.577 M9.420 16.583 C 9.012 16.795,8.880 17.295,9.133 17.676 C 9.316 17.953,9.738 18.077,10.052 17.946 C 10.225 17.874,10.425 17.639,10.486 17.437 C 10.576 17.135,10.429 16.795,10.127 16.610 C 9.950 16.502,9.602 16.488,9.420 16.583 M11.613 16.621 C 11.201 16.868,11.129 17.380,11.454 17.749 C 11.975 18.343,12.970 17.777,12.722 17.027 C 12.573 16.574,12.026 16.374,11.613 16.621 M13.940 16.567 C 13.595 16.757,13.445 17.086,13.538 17.446 C 13.655 17.895,14.116 18.120,14.550 17.938 C 14.748 17.856,14.837 17.770,14.925 17.580 C 15.105 17.188,14.945 16.735,14.571 16.575 C 14.418 16.509,14.052 16.505,13.940 16.567 " stroke="none" fill-rule="evenodd" fill="black"></path></svg>