<svg xmlns="http://www.w3.org/2000/svg" viewBox="0 0 24 24" fill="currentColor" class="w-6 h-6"><path d="M6.660 2.260 C 6.638 2.267,6.572 2.284,6.513 2.296 C 6.358 2.331,6.160 2.512,6.075 2.698 C 6.012 2.838,6.002 2.971,6.001 3.690 L 6.000 4.520 5.430 4.521 C 4.748 4.522,4.440 4.579,3.991 4.792 C 3.047 5.237,2.443 6.048,2.281 7.087 C 2.211 7.533,2.242 19.199,2.313 19.420 C 2.457 19.865,2.588 20.156,2.762 20.416 C 3.218 21.096,3.900 21.540,4.735 21.700 C 5.204 21.790,18.796 21.790,19.265 21.700 C 20.539 21.457,21.457 20.539,21.700 19.265 C 21.752 18.997,21.760 18.127,21.760 13.146 C 21.760 9.376,21.745 7.249,21.718 7.080 C 21.534 5.912,20.787 5.035,19.639 4.638 C 19.422 4.564,19.267 4.546,18.690 4.530 L 18.000 4.511 18.000 3.694 C 18.000 2.823,17.976 2.688,17.788 2.487 C 17.458 2.134,16.846 2.216,16.600 2.646 C 16.503 2.814,16.500 2.850,16.487 3.670 L 16.473 4.520 12.000 4.520 L 7.527 4.520 7.513 3.670 C 7.500 2.834,7.498 2.817,7.394 2.640 C 7.332 2.533,7.224 2.424,7.134 2.374 C 6.984 2.292,6.741 2.233,6.660 2.260 M19.369 9.888 C 19.663 10.025,19.975 10.337,20.112 10.631 L 20.220 10.860 20.220 15.000 L 20.220 19.140 20.116 19.360 C 19.961 19.686,19.718 19.936,19.409 20.089 L 19.142 20.220 12.000 20.220 L 4.858 20.220 4.591 20.089 C 4.282 19.936,4.039 19.686,3.884 19.360 L 3.780 19.140 3.780 15.000 L 3.780 10.860 3.871 10.663 C 4.054 10.266,4.373 9.972,4.772 9.834 C 4.970 9.766,5.329 9.763,12.060 9.771 L 19.140 9.780 19.369 9.888 M11.698 12.075 C 11.368 12.225,11.186 12.580,11.273 12.905 C 11.339 13.153,11.423 13.267,11.627 13.386 C 11.752 13.459,11.860 13.489,12.000 13.489 C 12.224 13.489,12.505 13.349,12.614 13.184 C 12.734 13.001,12.780 12.745,12.726 12.565 C 12.631 12.248,12.314 12.002,12.000 12.002 C 11.923 12.002,11.787 12.035,11.698 12.075 M13.935 12.077 C 13.559 12.248,13.395 12.737,13.592 13.105 C 13.661 13.234,13.909 13.436,14.031 13.463 C 14.091 13.476,14.160 13.493,14.184 13.500 C 14.208 13.507,14.313 13.495,14.416 13.473 C 14.942 13.361,15.176 12.689,14.828 12.292 C 14.586 12.016,14.248 11.935,13.935 12.077 M16.167 12.084 C 15.850 12.245,15.682 12.663,15.796 13.008 C 15.862 13.208,16.082 13.403,16.306 13.460 C 16.772 13.578,17.193 13.287,17.232 12.820 C 17.280 12.232,16.685 11.820,16.167 12.084 M7.420 14.260 C 7.398 14.267,7.331 14.284,7.271 14.297 C 7.124 14.329,6.881 14.548,6.814 14.708 C 6.749 14.863,6.744 15.113,6.803 15.267 C 6.896 15.516,7.241 15.758,7.500 15.758 C 7.661 15.758,7.916 15.636,8.047 15.495 C 8.453 15.061,8.198 14.363,7.600 14.269 C 7.523 14.256,7.442 14.252,7.420 14.260 M9.660 14.260 C 9.638 14.267,9.572 14.284,9.513 14.296 C 9.259 14.352,9.002 14.707,9.002 15.000 C 9.002 15.462,9.474 15.842,9.905 15.727 C 10.153 15.661,10.267 15.577,10.386 15.373 C 10.654 14.916,10.375 14.351,9.840 14.268 C 9.763 14.256,9.682 14.252,9.660 14.260 M11.811 14.278 C 11.258 14.413,11.068 15.118,11.475 15.525 C 11.884 15.933,12.572 15.751,12.722 15.194 C 12.868 14.650,12.363 14.143,11.811 14.278 M14.094 14.278 C 13.597 14.396,13.359 14.938,13.614 15.373 C 13.733 15.577,13.847 15.661,14.095 15.727 C 14.420 15.814,14.775 15.632,14.925 15.302 C 15.175 14.750,14.680 14.139,14.094 14.278 M16.420 14.260 C 16.398 14.267,16.331 14.284,16.271 14.297 C 16.124 14.329,15.881 14.548,15.814 14.708 C 15.749 14.863,15.744 15.113,15.803 15.267 C 15.896 15.516,16.241 15.758,16.500 15.758 C 16.661 15.758,16.916 15.636,17.047 15.495 C 17.453 15.061,17.198 14.363,16.600 14.269 C 16.523 14.256,16.442 14.252,16.420 14.260 M7.179 16.576 C 7.009 16.650,6.809 16.892,6.777 17.062 C 6.709 17.427,6.869 17.770,7.180 17.920 C 7.548 18.098,7.982 17.947,8.160 17.580 C 8.339 17.210,8.197 16.773,7.837 16.590 C 7.675 16.508,7.352 16.501,7.179 16.576 M9.394 16.601 C 9.108 16.752,8.968 17.046,9.019 17.386 C 9.042 17.544,9.082 17.614,9.234 17.766 C 9.386 17.918,9.456 17.958,9.614 17.981 C 10.233 18.074,10.701 17.437,10.410 16.899 C 10.344 16.778,10.153 16.610,10.027 16.563 C 9.854 16.497,9.556 16.515,9.394 16.601 M11.595 16.635 C 11.096 16.951,11.154 17.678,11.698 17.925 C 11.904 18.018,12.096 18.018,12.302 17.925 C 13.036 17.591,12.806 16.520,12.000 16.520 C 11.822 16.520,11.738 16.544,11.595 16.635 M13.940 16.567 C 13.608 16.750,13.453 17.070,13.528 17.421 C 13.608 17.796,13.984 18.041,14.386 17.981 C 14.544 17.958,14.614 17.918,14.766 17.766 C 14.918 17.614,14.958 17.544,14.981 17.386 C 15.055 16.896,14.727 16.518,14.232 16.521 C 14.115 16.522,13.984 16.542,13.940 16.567 " stroke="none" fill-rule="evenodd"></path></svg>