<svg xmlns="http://www.w3.org/2000/svg" fill="none" viewBox="0 0 24 24" stroke-width="1.5" stroke="currentColor" class="w-6 h-6"><path d="M11.760 2.786 C 11.322 2.964,9.774 3.690,8.875 4.140 C 6.334 5.411,4.067 6.742,1.776 8.309 C 1.030 8.820,0.926 8.923,0.862 9.227 C 0.792 9.555,1.049 9.942,1.410 10.054 C 1.525 10.090,2.016 10.237,2.500 10.382 C 2.984 10.526,3.393 10.657,3.410 10.674 C 3.426 10.690,3.414 10.919,3.382 11.182 C 3.242 12.330,3.106 14.142,3.043 15.698 C 3.005 16.638,3.031 16.820,3.232 17.012 C 3.325 17.102,4.205 17.519,5.250 17.969 C 5.355 18.014,5.440 18.068,5.440 18.090 C 5.440 18.151,5.059 18.760,4.891 18.966 C 4.808 19.068,4.637 19.274,4.512 19.422 C 4.335 19.631,4.277 19.732,4.256 19.870 C 4.159 20.517,4.868 20.975,5.403 20.610 C 5.727 20.390,6.603 19.234,6.761 18.817 C 6.795 18.728,6.807 18.732,7.408 19.047 C 8.568 19.656,10.182 20.608,11.312 21.352 C 11.830 21.693,12.102 21.725,12.474 21.489 C 12.577 21.424,12.920 21.205,13.237 21.001 C 15.354 19.642,17.634 18.439,20.220 17.316 C 20.968 16.992,21.005 16.908,20.957 15.680 C 20.897 14.166,20.720 11.852,20.597 10.983 C 20.576 10.830,20.572 10.693,20.589 10.678 C 20.632 10.639,21.007 10.520,21.884 10.265 C 22.292 10.146,22.682 10.020,22.749 9.986 C 22.915 9.900,23.068 9.709,23.126 9.515 C 23.181 9.331,23.131 9.066,23.009 8.897 C 22.889 8.729,20.852 7.369,19.440 6.513 C 17.511 5.344,15.162 4.104,13.120 3.177 C 12.424 2.861,12.218 2.784,12.040 2.774 C 11.919 2.768,11.793 2.773,11.760 2.786 M12.328 4.465 C 13.982 5.187,16.547 6.529,18.420 7.651 C 19.291 8.173,20.652 9.042,20.631 9.062 C 20.624 9.069,20.303 9.177,19.919 9.302 C 17.662 10.034,15.510 10.912,13.249 12.021 L 11.998 12.635 10.929 12.107 C 10.341 11.816,9.604 11.462,9.290 11.322 C 8.976 11.181,8.720 11.055,8.721 11.043 C 8.723 10.993,10.460 10.052,11.644 9.458 C 12.525 9.017,12.642 8.927,12.724 8.628 C 12.812 8.307,12.634 7.923,12.332 7.779 C 12.046 7.642,11.855 7.679,11.205 7.998 C 10.060 8.561,8.410 9.456,7.388 10.068 L 6.956 10.327 6.128 10.018 C 5.673 9.848,4.868 9.566,4.340 9.391 C 3.812 9.216,3.375 9.068,3.368 9.062 C 3.362 9.055,3.578 8.906,3.848 8.731 C 5.623 7.578,7.466 6.525,9.490 5.509 C 10.332 5.086,11.914 4.334,11.988 4.321 C 11.992 4.321,12.145 4.385,12.328 4.465 M5.510 11.388 L 6.000 11.569 6.000 12.246 L 6.000 12.924 5.757 13.149 C 5.473 13.412,5.342 13.648,5.279 14.009 C 5.227 14.310,5.271 14.633,5.402 14.904 C 5.503 15.112,5.753 15.401,5.901 15.480 L 6.011 15.539 5.985 15.968 C 5.971 16.203,5.948 16.448,5.936 16.512 L 5.912 16.629 5.326 16.360 C 5.004 16.212,4.699 16.078,4.650 16.063 C 4.565 16.036,4.560 16.014,4.560 15.653 C 4.560 15.168,4.658 13.634,4.760 12.520 C 4.889 11.113,4.883 11.152,4.956 11.182 C 4.991 11.196,5.240 11.289,5.510 11.388 M19.135 11.410 C 19.285 12.839,19.440 14.987,19.440 15.646 C 19.440 16.014,19.435 16.036,19.350 16.063 C 19.154 16.125,17.805 16.756,16.840 17.238 C 15.348 17.984,14.170 18.645,12.730 19.546 L 12.000 20.003 11.270 19.546 C 10.086 18.805,8.787 18.062,7.767 17.541 C 7.334 17.320,7.315 17.305,7.340 17.205 C 7.400 16.969,7.444 16.631,7.482 16.106 C 7.523 15.554,7.523 15.552,7.649 15.446 C 8.089 15.077,8.263 14.692,8.232 14.159 C 8.208 13.748,8.072 13.461,7.760 13.160 L 7.520 12.929 7.520 12.564 C 7.520 12.364,7.530 12.200,7.541 12.200 C 7.621 12.200,9.367 13.009,10.494 13.568 C 11.533 14.084,11.884 14.240,12.001 14.240 C 12.118 14.240,12.439 14.098,13.366 13.636 C 15.336 12.653,16.650 12.079,18.700 11.304 C 18.898 11.229,19.071 11.166,19.084 11.164 C 19.098 11.162,19.120 11.273,19.135 11.410 " stroke="none" fill-rule="evenodd" fill="black"></path></svg>