<svg xmlns="http://www.w3.org/2000/svg" fill="none" viewBox="0 0 24 24" stroke-width="1.5" stroke="currentColor" class="w-6 h-6"><path d="M15.440 3.821 C 15.253 3.904,7.705 11.442,7.593 11.657 C 7.477 11.881,7.484 12.153,7.613 12.369 C 7.769 12.631,15.266 20.103,15.449 20.178 C 15.632 20.254,15.881 20.257,16.052 20.186 C 16.234 20.110,16.435 19.867,16.463 19.689 C 16.476 19.607,16.488 19.531,16.490 19.520 C 16.492 19.509,16.481 19.419,16.465 19.320 C 16.438 19.145,16.335 19.038,12.869 15.570 L 9.300 12.000 12.855 8.445 C 16.234 5.066,16.412 4.880,16.459 4.697 C 16.580 4.220,16.283 3.799,15.806 3.772 C 15.662 3.763,15.529 3.781,15.440 3.821 " stroke="none" fill-rule="evenodd" fill="black"></path></svg>