<svg xmlns="http://www.w3.org/2000/svg" fill="none" viewBox="0 0 24 24" stroke-width="1.5" stroke="currentColor" class="w-6 h-6"><path d="M11.640 4.603 C 11.425 4.731,7.688 8.475,7.593 8.657 C 7.359 9.106,7.643 9.662,8.148 9.743 C 8.492 9.798,8.496 9.795,10.310 7.986 L 12.000 6.301 13.690 7.986 C 15.504 9.795,15.508 9.798,15.852 9.743 C 16.343 9.664,16.638 9.111,16.420 8.677 C 16.334 8.504,12.642 4.791,12.402 4.636 C 12.176 4.489,11.856 4.475,11.640 4.603 M8.083 14.268 C 7.615 14.361,7.363 14.949,7.613 15.369 C 7.744 15.589,11.496 19.329,11.677 19.420 C 11.752 19.458,11.898 19.489,12.000 19.489 C 12.102 19.489,12.248 19.458,12.323 19.420 C 12.504 19.329,16.256 15.589,16.387 15.369 C 16.588 15.031,16.484 14.599,16.148 14.377 C 15.980 14.266,15.729 14.234,15.500 14.294 C 15.416 14.316,14.878 14.826,13.690 16.012 L 12.000 17.699 10.330 16.034 C 9.411 15.118,8.624 14.351,8.580 14.329 C 8.475 14.277,8.206 14.244,8.083 14.268 " stroke="none" fill-rule="evenodd" fill="black"></path></svg>