<svg xmlns="http://www.w3.org/2000/svg" fill="none" viewBox="0 0 24 24" stroke-width="1.5" stroke="currentColor" class="w-6 h-6"><path d="M11.320 2.280 C 7.872 2.513,4.779 4.593,3.258 7.700 C 2.798 8.640,2.496 9.614,2.334 10.680 C 2.237 11.316,2.237 12.684,2.334 13.320 C 2.780 16.261,4.386 18.729,6.867 20.288 C 7.942 20.964,9.308 21.458,10.680 21.666 C 11.316 21.763,12.684 21.763,13.320 21.666 C 15.420 21.347,17.252 20.460,18.725 19.048 C 20.326 17.514,21.325 15.569,21.666 13.320 C 21.763 12.684,21.763 11.316,21.666 10.680 C 21.223 7.761,19.626 5.291,17.176 3.739 C 16.352 3.217,15.058 2.686,14.120 2.486 C 13.247 2.300,12.184 2.222,11.320 2.280 M13.320 3.858 C 15.111 4.162,16.718 5.007,17.948 6.293 C 19.124 7.524,19.861 9.006,20.148 10.716 C 20.248 11.309,20.248 12.691,20.148 13.284 C 19.536 16.933,16.685 19.710,13.068 20.179 C 9.297 20.668,5.699 18.526,4.301 14.960 C 4.121 14.500,3.948 13.854,3.852 13.284 C 3.752 12.691,3.752 11.309,3.852 10.716 C 4.151 8.933,4.918 7.434,6.176 6.176 C 7.565 4.788,9.153 4.038,11.240 3.785 C 11.553 3.747,12.955 3.796,13.320 3.858 M11.820 5.276 C 11.554 5.342,11.353 5.534,11.282 5.791 C 11.223 6.004,11.225 12.005,11.285 12.219 C 11.341 12.423,11.577 12.659,11.781 12.715 C 11.889 12.745,12.694 12.759,14.280 12.759 C 16.473 12.758,16.630 12.754,16.780 12.684 C 17.075 12.547,17.240 12.303,17.240 12.000 C 17.240 11.799,17.181 11.647,17.047 11.506 C 16.807 11.252,16.890 11.261,14.730 11.248 L 12.760 11.236 12.760 8.588 C 12.760 6.890,12.745 5.887,12.718 5.791 C 12.670 5.617,12.514 5.419,12.365 5.343 C 12.224 5.271,11.967 5.240,11.820 5.276 " stroke="none" fill-rule="evenodd" fill="black"></path></svg>