<svg xmlns="http://www.w3.org/2000/svg" viewBox="0 0 24 24" fill="currentColor" class="w-6 h-6"><path d="M5.055 1.594 C 4.584 1.756,4.178 2.091,3.980 2.480 C 3.744 2.945,3.760 2.269,3.760 12.003 C 3.760 20.812,3.761 20.914,3.840 21.172 C 3.938 21.487,4.187 21.871,4.416 22.059 C 4.660 22.259,5.058 22.432,5.380 22.478 C 5.763 22.533,18.237 22.533,18.620 22.478 C 18.942 22.432,19.340 22.259,19.584 22.059 C 19.813 21.871,20.062 21.487,20.160 21.172 C 20.238 20.918,20.240 20.805,20.240 16.614 C 20.240 12.844,20.232 12.279,20.176 12.008 C 19.920 10.763,19.062 9.742,17.873 9.267 C 17.324 9.047,17.202 9.032,15.660 9.003 C 14.280 8.977,14.210 8.972,13.980 8.882 C 13.465 8.682,13.113 8.335,12.878 7.800 C 12.784 7.585,12.781 7.545,12.756 6.140 C 12.726 4.478,12.700 4.313,12.362 3.618 C 11.938 2.746,11.245 2.104,10.360 1.763 C 9.753 1.529,9.643 1.520,7.352 1.521 C 5.455 1.522,5.241 1.529,5.055 1.594 M13.169 2.070 C 13.643 2.698,13.939 3.332,14.128 4.120 C 14.199 4.415,14.213 4.647,14.235 5.869 L 14.260 7.278 14.371 7.389 L 14.482 7.500 15.911 7.525 C 17.430 7.553,17.544 7.565,18.193 7.783 C 18.612 7.923,19.289 8.281,19.635 8.544 C 19.792 8.664,19.920 8.745,19.920 8.725 C 19.920 8.652,19.591 7.706,19.455 7.386 C 18.491 5.128,16.566 3.225,14.273 2.264 C 13.867 2.094,13.126 1.840,13.037 1.840 C 13.014 1.840,13.073 1.944,13.169 2.070 M16.120 14.366 C 16.359 14.506,16.480 14.722,16.480 15.008 C 16.480 15.283,16.324 15.550,16.095 15.663 C 15.945 15.737,15.811 15.740,12.000 15.740 C 8.189 15.740,8.055 15.737,7.905 15.663 C 7.811 15.616,7.704 15.514,7.635 15.405 C 7.355 14.965,7.585 14.401,8.094 14.278 C 8.163 14.261,9.957 14.250,12.080 14.254 L 15.940 14.260 16.120 14.366 M12.373 17.355 C 12.615 17.506,12.733 17.718,12.733 18.003 C 12.733 18.203,12.714 18.270,12.616 18.409 C 12.552 18.501,12.436 18.613,12.359 18.658 C 12.224 18.738,12.164 18.740,10.140 18.740 C 7.769 18.740,7.854 18.751,7.635 18.405 C 7.355 17.965,7.585 17.402,8.094 17.277 C 8.163 17.260,9.120 17.249,10.220 17.253 L 12.220 17.260 12.373 17.355 " stroke="none" fill-rule="evenodd"></path></svg>