<svg xmlns="http://www.w3.org/2000/svg" fill="none" viewBox="0 0 24 24" stroke-width="1.5" stroke="currentColor" class="w-6 h-6"><path d="M8.891 1.559 C 8.430 1.668,7.905 2.107,7.687 2.564 C 7.508 2.941,7.482 3.212,7.481 4.700 L 7.480 6.020 6.130 6.006 C 5.254 5.997,4.696 6.007,4.541 6.036 C 3.813 6.171,3.195 6.764,3.045 7.472 C 3.013 7.624,3.000 9.544,3.000 14.274 C 3.000 20.065,3.007 20.892,3.061 21.099 C 3.216 21.694,3.678 22.189,4.283 22.407 L 4.540 22.500 9.540 22.512 C 12.827 22.520,14.647 22.509,14.853 22.482 C 15.689 22.372,16.360 21.717,16.479 20.896 C 16.500 20.744,16.519 20.030,16.519 19.310 L 16.520 18.000 17.918 18.000 C 18.802 18.000,19.394 17.983,19.528 17.955 C 20.219 17.808,20.824 17.193,20.959 16.498 C 20.993 16.326,21.001 15.431,20.990 13.260 C 20.977 10.668,20.965 10.203,20.906 9.840 C 20.440 6.986,18.923 4.632,16.547 3.075 C 15.346 2.288,14.010 1.795,12.557 1.601 C 12.036 1.531,11.746 1.521,10.485 1.524 C 9.679 1.526,8.962 1.542,8.891 1.559 M11.722 3.144 C 12.133 3.289,12.422 3.474,12.741 3.798 C 13.018 4.078,13.237 4.422,13.363 4.773 C 13.444 4.999,13.454 5.122,13.479 6.240 C 13.504 7.359,13.514 7.481,13.596 7.717 C 13.785 8.260,14.214 8.697,14.761 8.905 C 14.909 8.962,15.152 8.978,16.160 8.999 L 17.380 9.024 17.722 9.145 C 18.133 9.289,18.421 9.474,18.741 9.798 C 19.015 10.074,19.234 10.416,19.366 10.773 C 19.458 11.020,19.458 11.021,19.471 13.635 C 19.485 16.555,19.499 16.399,19.204 16.479 C 19.097 16.508,17.489 16.518,14.144 16.511 L 9.242 16.500 9.131 16.389 L 9.020 16.278 9.009 9.809 C 9.002 5.000,9.011 3.311,9.045 3.228 C 9.136 3.009,9.200 2.998,10.340 3.011 L 11.380 3.023 11.722 3.144 M15.077 3.949 C 15.874 4.382,16.436 4.796,17.044 5.399 C 17.519 5.871,17.797 6.210,18.160 6.763 C 18.408 7.139,18.820 7.914,18.789 7.945 C 18.780 7.954,18.675 7.917,18.556 7.863 C 18.437 7.809,18.178 7.716,17.980 7.656 C 17.634 7.552,17.573 7.547,16.431 7.524 L 15.242 7.500 15.131 7.389 L 15.020 7.278 14.997 6.149 C 14.972 4.892,14.944 4.705,14.682 4.054 L 14.534 3.687 14.634 3.725 C 14.689 3.746,14.888 3.847,15.077 3.949 M7.489 11.990 L 7.500 16.460 7.593 16.717 C 7.811 17.322,8.306 17.784,8.901 17.939 C 9.103 17.991,9.564 18.000,12.068 18.000 L 15.000 18.000 15.000 19.343 C 15.000 20.738,14.994 20.792,14.825 20.929 C 14.746 20.994,14.418 20.998,9.753 20.999 L 4.766 21.000 4.643 20.896 L 4.520 20.793 4.520 14.255 L 4.520 7.716 4.618 7.618 L 4.716 7.520 6.097 7.520 L 7.478 7.520 7.489 11.990 " stroke="none" fill-rule="evenodd" fill="black"></path></svg>