<svg xmlns="http://www.w3.org/2000/svg" viewBox="0 0 24 24" fill="currentColor" class="w-6 h-6"><path d="M11.595 1.635 C 11.243 1.858,11.261 1.686,11.249 4.790 L 11.238 7.520 9.166 7.520 C 7.230 7.520,7.072 7.525,6.776 7.599 C 5.920 7.814,5.203 8.394,4.822 9.180 C 4.476 9.892,4.500 9.466,4.500 15.000 C 4.500 20.534,4.476 20.108,4.822 20.820 C 5.115 21.423,5.577 21.885,6.180 22.178 C 6.892 22.524,6.466 22.500,12.000 22.500 C 17.534 22.500,17.108 22.524,17.820 22.178 C 18.423 21.885,18.885 21.423,19.178 20.820 C 19.524 20.108,19.500 20.534,19.500 15.000 C 19.500 9.466,19.524 9.892,19.178 9.180 C 18.797 8.394,18.080 7.814,17.224 7.599 C 16.928 7.525,16.770 7.520,14.834 7.520 L 12.762 7.520 12.751 4.790 C 12.741 2.186,12.736 2.053,12.663 1.905 C 12.479 1.533,11.961 1.402,11.595 1.635 M12.760 10.350 L 12.760 13.179 13.670 12.271 C 14.261 11.681,14.632 11.341,14.729 11.301 C 15.225 11.097,15.762 11.444,15.759 11.968 C 15.759 12.063,15.725 12.212,15.683 12.300 C 15.634 12.407,15.069 12.997,13.994 14.067 C 12.629 15.426,12.355 15.680,12.220 15.716 C 12.021 15.770,11.979 15.770,11.780 15.716 C 11.645 15.680,11.374 15.428,10.026 14.087 C 8.965 13.031,8.406 12.446,8.357 12.340 C 8.064 11.714,8.672 11.077,9.311 11.341 C 9.408 11.381,9.773 11.715,10.350 12.291 L 11.240 13.179 11.240 10.350 L 11.240 7.520 12.000 7.520 L 12.760 7.520 12.760 10.350 " stroke="none" fill-rule="evenodd"></path></svg>