<svg xmlns="http://www.w3.org/2000/svg" viewBox="0 0 24 24" fill="currentColor" class="w-6 h-6"><path d="M19.247 1.578 C 19.130 1.607,18.878 1.707,18.687 1.801 C 18.368 1.958,18.280 2.031,17.600 2.705 L 16.860 3.438 18.710 5.289 L 20.560 7.140 21.242 6.460 C 21.972 5.732,22.137 5.521,22.295 5.117 C 22.453 4.714,22.489 4.528,22.487 4.120 C 22.485 3.661,22.413 3.371,22.193 2.921 C 21.880 2.281,21.228 1.764,20.502 1.580 C 20.212 1.507,19.546 1.506,19.247 1.578 M11.375 8.930 C 7.803 12.508,6.933 13.400,6.763 13.657 C 6.373 14.251,6.227 14.618,5.759 16.180 C 5.515 16.994,5.297 17.741,5.273 17.840 C 5.150 18.365,5.635 18.850,6.160 18.727 C 6.259 18.703,7.002 18.486,7.810 18.244 C 8.806 17.945,9.400 17.745,9.650 17.624 C 10.474 17.226,10.325 17.363,15.080 12.615 L 19.500 8.201 17.660 6.360 C 16.648 5.348,15.811 4.520,15.800 4.520 C 15.788 4.520,13.797 6.504,11.375 8.930 M4.860 5.283 C 3.630 5.432,2.644 6.337,2.312 7.620 C 2.236 7.913,2.236 19.087,2.312 19.380 C 2.635 20.629,3.509 21.466,4.735 21.700 C 5.203 21.790,15.797 21.790,16.265 21.700 C 17.539 21.457,18.457 20.539,18.700 19.265 C 18.750 19.007,18.760 18.473,18.759 16.166 C 18.758 13.540,18.754 13.371,18.684 13.220 C 18.547 12.925,18.303 12.760,18.000 12.760 C 17.799 12.760,17.647 12.819,17.506 12.953 C 17.247 13.198,17.262 13.011,17.240 16.220 L 17.220 19.140 17.116 19.360 C 16.961 19.686,16.718 19.936,16.409 20.089 L 16.142 20.220 10.500 20.220 L 4.858 20.220 4.591 20.089 C 4.282 19.936,4.039 19.686,3.884 19.360 L 3.780 19.140 3.780 13.500 L 3.780 7.860 3.888 7.631 C 4.025 7.337,4.337 7.025,4.631 6.888 L 4.860 6.780 7.780 6.760 C 10.989 6.738,10.802 6.753,11.047 6.494 C 11.309 6.217,11.309 5.783,11.047 5.506 C 10.801 5.246,10.979 5.261,7.920 5.255 C 6.391 5.252,5.014 5.264,4.860 5.283 " stroke="none" fill-rule="evenodd"></path></svg>