<svg xmlns="http://www.w3.org/2000/svg" fill="none" viewBox="0 0 24 24" stroke-width="1.5" stroke="currentColor" class="w-6 h-6"><path d="M19.165 1.602 C 18.513 1.772,18.859 1.451,12.747 7.555 C 9.111 11.186,7.064 13.259,6.896 13.480 C 6.439 14.082,6.255 14.519,5.758 16.180 C 5.515 16.994,5.297 17.741,5.273 17.840 C 5.184 18.222,5.422 18.608,5.814 18.718 C 6.038 18.781,5.917 18.810,7.820 18.241 C 9.481 17.745,9.918 17.561,10.520 17.104 C 10.741 16.936,12.818 14.886,16.465 11.233 C 21.941 5.750,22.074 5.613,22.215 5.320 C 22.423 4.887,22.486 4.607,22.486 4.120 C 22.486 3.425,22.285 2.891,21.830 2.380 C 21.485 1.993,20.992 1.694,20.512 1.581 C 20.156 1.497,19.529 1.506,19.165 1.602 M20.353 3.116 C 20.594 3.239,20.733 3.374,20.860 3.607 C 20.959 3.788,20.977 3.866,20.979 4.120 C 20.981 4.557,20.906 4.675,20.145 5.435 L 19.499 6.080 18.709 5.289 L 17.918 4.497 18.610 3.812 C 19.205 3.223,19.329 3.119,19.501 3.064 C 19.753 2.984,20.139 3.007,20.353 3.116 M4.872 5.282 C 3.675 5.421,2.698 6.268,2.350 7.468 L 2.260 7.780 2.260 13.500 L 2.260 19.220 2.350 19.532 C 2.654 20.580,3.419 21.346,4.468 21.649 L 4.780 21.740 10.500 21.740 L 16.220 21.740 16.532 21.649 C 17.567 21.350,18.330 20.594,18.647 19.554 C 18.736 19.264,18.737 19.221,18.750 16.611 C 18.759 14.811,18.750 13.911,18.721 13.803 C 18.631 13.469,18.359 13.267,18.000 13.267 C 17.769 13.267,17.643 13.313,17.486 13.455 C 17.252 13.668,17.262 13.544,17.240 16.460 L 17.220 19.140 17.112 19.369 C 16.975 19.663,16.663 19.975,16.369 20.112 L 16.140 20.220 10.500 20.220 L 4.860 20.220 4.631 20.112 C 4.337 19.975,4.025 19.663,3.888 19.369 L 3.780 19.140 3.780 13.500 L 3.780 7.860 3.888 7.631 C 4.025 7.337,4.337 7.025,4.631 6.888 L 4.860 6.780 7.540 6.760 C 10.502 6.738,10.345 6.752,10.574 6.480 C 10.928 6.060,10.710 5.402,10.177 5.278 C 9.988 5.234,5.252 5.237,4.872 5.282 M14.130 11.452 C 9.529 16.056,9.507 16.077,8.863 16.334 C 8.581 16.447,7.153 16.886,7.133 16.866 C 7.111 16.845,7.598 15.286,7.696 15.066 C 7.960 14.469,7.979 14.448,12.513 9.910 L 16.859 5.560 17.650 6.350 L 18.440 7.140 14.130 11.452 " stroke="none" fill-rule="evenodd" fill="black"></path></svg>