<svg xmlns="http://www.w3.org/2000/svg" fill="none" viewBox="0 0 24 24" stroke-width="1.5" stroke="currentColor" class="size-6"><path d="M11.516 4.577 C 10.466 4.979,10.167 6.277,10.945 7.055 C 11.528 7.638,12.472 7.638,13.055 7.055 C 13.781 6.330,13.577 5.126,12.650 4.657 C 12.455 4.558,12.370 4.541,12.042 4.532 C 11.789 4.525,11.611 4.540,11.516 4.577 M11.516 10.577 C 10.466 10.979,10.167 12.277,10.945 13.055 C 11.807 13.918,13.314 13.420,13.477 12.218 C 13.566 11.564,13.245 10.958,12.650 10.657 C 12.455 10.558,12.370 10.541,12.042 10.532 C 11.789 10.525,11.611 10.540,11.516 10.577 M11.516 16.577 C 10.466 16.979,10.167 18.277,10.945 19.055 C 11.807 19.918,13.314 19.420,13.477 18.218 C 13.566 17.564,13.245 16.958,12.650 16.657 C 12.455 16.558,12.370 16.541,12.042 16.532 C 11.789 16.525,11.611 16.540,11.516 16.577 " stroke="none" fill-rule="evenodd" fill="black"></path></svg>