<svg xmlns="http://www.w3.org/2000/svg" viewBox="0 0 24 24" fill="currentColor" class="w-6 h-6"><path d="M10.920 3.806 C 6.858 4.180,3.272 6.808,1.647 10.600 C 1.213 11.612,1.154 12.003,1.342 12.600 C 1.677 13.661,2.314 14.845,3.115 15.900 C 3.506 16.414,4.586 17.494,5.100 17.885 C 6.823 19.194,8.663 19.938,10.785 20.185 C 11.478 20.265,12.960 20.242,13.600 20.141 C 15.654 19.817,17.454 19.034,19.040 17.774 C 19.477 17.427,20.427 16.477,20.774 16.040 C 21.573 15.034,22.228 13.851,22.616 12.716 C 22.852 12.023,22.814 11.694,22.377 10.650 C 20.904 7.136,17.656 4.550,13.924 3.921 C 12.995 3.764,11.847 3.720,10.920 3.806 M13.060 6.857 C 15.142 7.317,16.699 8.884,17.149 10.972 C 17.248 11.431,17.248 12.569,17.149 13.028 C 16.767 14.801,15.572 16.230,13.930 16.877 C 13.208 17.161,12.886 17.218,12.000 17.219 C 11.282 17.219,11.186 17.210,10.789 17.110 C 9.523 16.790,8.452 16.066,7.719 15.034 C 7.432 14.630,7.065 13.857,6.945 13.400 C 6.610 12.133,6.723 10.885,7.277 9.740 C 7.821 8.618,8.588 7.845,9.700 7.300 C 10.239 7.035,10.633 6.906,11.180 6.816 C 11.589 6.748,12.673 6.772,13.060 6.857 M11.503 9.040 C 10.828 9.162,10.156 9.550,9.703 10.080 C 8.987 10.917,8.806 12.100,9.234 13.151 C 9.521 13.857,10.143 14.479,10.849 14.766 C 11.989 15.230,13.251 14.978,14.115 14.115 C 15.238 12.992,15.295 11.212,14.246 10.020 C 13.897 9.624,13.276 9.239,12.756 9.097 C 12.491 9.024,11.770 8.991,11.503 9.040 " stroke="none" fill-rule="evenodd"></path></svg>