<svg xmlns="http://www.w3.org/2000/svg" viewBox="0 0 24 24" fill="currentColor" class="w-6 h-6"><path d="M2.672 2.362 C 2.323 2.546,2.175 3.001,2.353 3.343 C 2.475 3.578,20.536 21.619,20.729 21.699 C 21.230 21.905,21.760 21.557,21.760 21.020 C 21.760 20.917,21.726 20.772,21.683 20.688 C 21.564 20.461,3.497 2.418,3.311 2.341 C 3.111 2.259,2.852 2.267,2.672 2.362 M10.920 3.806 C 10.080 3.884,9.038 4.115,8.224 4.404 L 7.752 4.571 8.989 5.809 L 10.226 7.046 10.603 6.945 C 11.882 6.602,13.150 6.724,14.313 7.303 C 15.377 7.833,16.174 8.624,16.697 9.672 C 17.032 10.343,17.191 10.971,17.227 11.760 C 17.254 12.385,17.205 12.850,17.053 13.394 L 16.949 13.769 18.497 15.314 L 20.046 16.860 20.307 16.580 C 21.216 15.607,22.081 14.186,22.562 12.880 C 22.856 12.083,22.834 11.774,22.414 10.740 C 20.970 7.191,17.689 4.555,13.924 3.921 C 12.995 3.764,11.846 3.720,10.920 3.806 M3.678 7.430 C 3.020 8.144,2.375 9.095,1.920 10.020 C 1.275 11.332,1.135 11.917,1.319 12.527 C 1.637 13.581,2.302 14.831,3.115 15.900 C 3.506 16.414,4.586 17.494,5.100 17.885 C 7.157 19.448,9.467 20.240,11.966 20.240 C 13.344 20.240,14.525 20.040,15.780 19.595 L 16.248 19.429 15.014 18.195 L 13.780 16.960 13.300 17.088 C 12.841 17.209,12.785 17.215,12.040 17.217 C 11.204 17.220,11.060 17.200,10.400 16.991 C 9.100 16.580,7.976 15.636,7.364 14.440 C 6.976 13.684,6.810 13.064,6.773 12.240 C 6.746 11.622,6.794 11.164,6.945 10.603 L 7.046 10.227 5.513 8.693 C 4.670 7.850,3.968 7.160,3.954 7.160 C 3.939 7.160,3.815 7.282,3.678 7.430 M11.649 8.276 L 11.479 8.300 13.593 10.414 L 15.708 12.528 15.734 12.374 C 15.840 11.731,15.618 10.747,15.215 10.072 C 15.005 9.721,14.465 9.137,14.158 8.930 C 13.417 8.430,12.413 8.169,11.649 8.276 M8.266 11.626 C 8.160 12.269,8.382 13.253,8.785 13.928 C 9.159 14.553,9.850 15.158,10.518 15.442 C 11.067 15.675,11.931 15.813,12.350 15.733 L 12.521 15.700 10.406 13.586 L 8.292 11.472 8.266 11.626 " stroke="none" fill-rule="evenodd"></path></svg>