<svg xmlns="http://www.w3.org/2000/svg" fill="none" viewBox="0 0 24 24" stroke-width="1.5" stroke="currentColor" class="w-6 h-6"><path d="M2.900 2.259 C 2.878 2.267,2.811 2.284,2.751 2.297 C 2.586 2.333,2.374 2.542,2.297 2.741 C 2.223 2.935,2.239 3.167,2.339 3.354 C 2.370 3.412,6.495 7.558,11.507 12.567 C 19.840 20.895,20.635 21.678,20.795 21.720 C 21.367 21.869,21.870 21.366,21.720 20.795 C 21.679 20.640,21.514 20.460,20.307 19.247 L 18.940 17.874 19.200 17.648 C 20.719 16.326,21.764 14.885,22.437 13.186 C 22.753 12.390,22.811 12.181,22.791 11.926 C 22.749 11.415,22.045 9.809,21.490 8.960 C 20.096 6.827,18.142 5.264,15.804 4.414 C 14.637 3.989,13.299 3.759,12.011 3.761 C 10.156 3.763,8.369 4.202,6.779 5.044 L 6.337 5.278 4.899 3.836 C 4.107 3.043,3.415 2.371,3.360 2.342 C 3.255 2.287,2.968 2.235,2.900 2.259 M13.250 5.345 C 15.445 5.616,17.527 6.670,19.057 8.285 C 19.998 9.279,20.765 10.522,21.183 11.734 L 21.278 12.008 21.135 12.394 C 20.548 13.983,19.500 15.449,18.162 16.557 L 17.864 16.803 16.495 15.435 L 15.127 14.067 15.228 13.907 C 15.690 13.176,15.866 12.022,15.648 11.149 C 15.363 10.001,14.676 9.151,13.620 8.639 C 13.161 8.416,12.879 8.336,12.365 8.283 C 11.656 8.209,10.986 8.334,10.336 8.659 L 9.925 8.865 8.681 7.621 L 7.438 6.377 7.629 6.283 C 7.734 6.231,7.982 6.117,8.180 6.030 C 9.693 5.363,11.461 5.124,13.250 5.345 M3.657 7.554 C 3.324 7.709,2.432 8.975,1.919 10.020 C 1.543 10.786,1.235 11.613,1.209 11.926 C 1.195 12.108,1.217 12.230,1.322 12.546 C 2.579 16.332,5.844 19.232,9.737 20.020 C 10.480 20.171,11.186 20.240,11.971 20.240 C 13.004 20.240,13.686 20.158,14.695 19.913 C 15.097 19.816,15.240 19.763,15.341 19.674 C 15.711 19.349,15.680 18.760,15.280 18.495 C 15.061 18.350,14.846 18.336,14.445 18.438 C 11.927 19.084,9.256 18.703,7.020 17.379 C 5.105 16.245,3.530 14.329,2.817 12.268 L 2.724 11.996 2.844 11.648 C 3.124 10.842,3.788 9.659,4.365 8.940 C 4.654 8.580,4.720 8.446,4.720 8.220 C 4.720 7.686,4.145 7.325,3.657 7.554 M12.556 9.822 C 12.934 9.911,13.263 10.103,13.580 10.420 C 14.034 10.874,14.239 11.365,14.239 12.000 C 14.239 12.299,14.159 12.732,14.075 12.889 C 14.035 12.964,13.907 12.847,12.537 11.477 C 11.589 10.529,11.056 9.968,11.080 9.944 C 11.156 9.868,11.668 9.765,11.980 9.763 C 12.156 9.762,12.415 9.788,12.556 9.822 " stroke="none" fill-rule="evenodd" fill="black"></path></svg>