<svg xmlns="http://www.w3.org/2000/svg" fill="none" viewBox="0 0 24 24" stroke-width="1.5" stroke="currentColor" class="w-6 h-6"><path d="M11.240 3.783 C 11.163 3.792,10.902 3.819,10.660 3.843 C 9.895 3.919,8.830 4.177,8.027 4.480 C 6.536 5.044,5.216 5.901,4.057 7.058 C 2.871 8.241,2.075 9.474,1.448 11.100 C 1.270 11.561,1.263 11.596,1.263 12.000 C 1.263 12.404,1.270 12.439,1.448 12.900 C 2.075 14.525,2.868 15.754,4.057 16.943 C 6.200 19.086,8.981 20.240,12.000 20.240 C 15.752 20.240,19.180 18.416,21.323 15.280 C 21.802 14.579,22.159 13.892,22.498 13.020 C 22.832 12.157,22.840 11.871,22.548 11.100 C 21.947 9.511,21.129 8.241,19.943 7.058 C 19.193 6.309,18.414 5.715,17.500 5.192 C 16.340 4.530,14.860 4.036,13.500 3.857 C 13.075 3.801,11.525 3.750,11.240 3.783 M13.100 5.326 C 13.971 5.412,14.977 5.677,15.837 6.046 C 17.000 6.545,17.962 7.200,18.881 8.119 C 19.662 8.900,20.265 9.734,20.720 10.661 C 21.004 11.241,21.249 11.863,21.247 12.000 C 21.245 12.145,20.992 12.786,20.716 13.345 C 20.448 13.887,20.049 14.519,19.649 15.035 C 19.329 15.447,18.537 16.250,18.120 16.586 C 16.720 17.712,14.944 18.460,13.140 18.684 C 12.624 18.748,11.373 18.747,10.860 18.683 C 8.963 18.446,7.234 17.700,5.764 16.486 C 4.502 15.443,3.436 13.937,2.865 12.390 L 2.721 12.000 2.865 11.610 C 3.898 8.814,6.242 6.588,9.082 5.705 C 10.393 5.298,11.637 5.181,13.100 5.326 M11.595 8.282 C 11.135 8.332,10.822 8.424,10.380 8.639 C 9.320 9.153,8.640 9.999,8.350 11.160 C 8.232 11.634,8.232 12.366,8.350 12.840 C 8.533 13.573,8.843 14.127,9.358 14.642 C 10.088 15.372,10.964 15.734,12.000 15.734 C 13.036 15.734,13.912 15.372,14.642 14.642 C 15.372 13.912,15.734 13.036,15.734 12.000 C 15.734 10.411,14.808 9.076,13.293 8.485 C 12.852 8.312,12.122 8.225,11.595 8.282 M12.556 9.822 C 12.934 9.911,13.263 10.103,13.580 10.420 C 14.034 10.874,14.239 11.365,14.239 12.000 C 14.239 12.635,14.034 13.126,13.580 13.580 C 13.124 14.036,12.636 14.240,12.000 14.240 C 11.364 14.240,10.876 14.036,10.420 13.580 C 9.966 13.126,9.761 12.635,9.761 12.000 C 9.761 11.365,9.966 10.874,10.420 10.420 C 10.730 10.110,11.066 9.911,11.425 9.823 C 11.737 9.748,12.240 9.747,12.556 9.822 " stroke="none" fill-rule="evenodd" fill="black"></path></svg>