<svg xmlns="http://www.w3.org/2000/svg" fill="none" viewBox="0 0 24 24" stroke-width="1.5" stroke="currentColor" class="w-6 h-6"><path d="M17.280 2.285 C 16.639 2.389,16.035 2.923,15.836 3.564 C 15.762 3.799,15.760 4.071,15.760 12.000 C 15.760 19.929,15.762 20.201,15.836 20.436 C 16.031 21.065,16.554 21.545,17.209 21.700 C 17.520 21.773,19.846 21.786,20.223 21.716 C 20.579 21.651,20.870 21.494,21.166 21.211 C 21.467 20.921,21.649 20.595,21.717 20.223 C 21.777 19.889,21.777 4.111,21.717 3.777 C 21.648 3.401,21.465 3.073,21.163 2.788 C 20.850 2.493,20.538 2.334,20.168 2.280 C 19.837 2.232,17.581 2.236,17.280 2.285 M20.123 3.877 L 20.240 3.994 20.240 11.994 L 20.240 19.994 20.136 20.117 L 20.033 20.240 18.774 20.240 C 17.948 20.240,17.487 20.225,17.434 20.197 C 17.231 20.088,17.240 20.462,17.240 12.004 C 17.240 6.593,17.253 4.090,17.282 4.013 C 17.376 3.762,17.375 3.762,18.753 3.761 L 20.006 3.760 20.123 3.877 M10.361 6.824 C 9.765 6.984,9.217 7.538,9.062 8.138 C 9.007 8.348,9.000 9.086,9.000 14.240 C 9.000 20.611,8.990 20.306,9.219 20.758 C 9.349 21.014,9.683 21.354,9.960 21.513 C 10.361 21.742,10.581 21.767,12.123 21.751 C 13.680 21.734,13.729 21.727,14.169 21.427 C 14.462 21.227,14.752 20.866,14.886 20.533 L 14.980 20.300 14.991 14.360 C 15.001 8.962,14.996 8.395,14.937 8.149 C 14.788 7.536,14.240 6.983,13.622 6.822 C 13.284 6.734,10.690 6.736,10.361 6.824 M13.258 8.297 C 13.333 8.328,13.413 8.390,13.437 8.434 C 13.467 8.491,13.480 10.224,13.480 14.272 L 13.480 20.029 13.375 20.135 L 13.269 20.240 12.000 20.240 L 10.731 20.240 10.625 20.135 L 10.520 20.029 10.520 14.260 C 10.520 8.532,10.521 8.490,10.601 8.388 C 10.645 8.332,10.722 8.278,10.771 8.268 C 10.820 8.259,11.369 8.248,11.991 8.245 C 12.886 8.241,13.151 8.252,13.258 8.297 M3.805 11.281 C 3.079 11.387,2.418 12.037,2.283 12.777 C 2.223 13.106,2.223 19.894,2.283 20.223 C 2.416 20.951,3.049 21.584,3.777 21.717 C 4.156 21.786,6.482 21.773,6.791 21.700 C 7.446 21.545,7.969 21.065,8.164 20.436 C 8.236 20.205,8.240 20.012,8.240 16.500 C 8.240 12.988,8.236 12.795,8.164 12.564 C 7.959 11.905,7.361 11.388,6.680 11.281 C 6.381 11.235,4.127 11.234,3.805 11.281 M6.578 12.823 C 6.631 12.857,6.693 12.941,6.717 13.009 C 6.746 13.093,6.760 14.204,6.760 16.507 C 6.760 20.115,6.761 20.092,6.566 20.197 C 6.513 20.225,6.052 20.240,5.226 20.240 L 3.967 20.240 3.864 20.117 L 3.760 19.994 3.760 16.494 L 3.760 12.994 3.877 12.877 L 3.994 12.760 5.238 12.760 C 6.300 12.760,6.497 12.769,6.578 12.823 " stroke="none" fill-rule="evenodd" fill="black"></path></svg>