<svg xmlns="http://www.w3.org/2000/svg" viewBox="0 0 24 24" fill="currentColor" class="w-6 h-6"><path d="M18.040 2.283 C 17.573 2.366,17.075 2.698,16.805 3.105 C 16.739 3.205,16.643 3.408,16.592 3.554 L 16.500 3.820 16.500 12.020 L 16.500 20.220 16.590 20.457 C 16.843 21.120,17.323 21.548,17.990 21.704 C 18.197 21.753,18.404 21.764,18.880 21.750 C 19.416 21.735,19.536 21.719,19.766 21.633 C 20.271 21.443,20.681 21.040,20.888 20.529 L 20.980 20.300 20.980 12.000 L 20.980 3.700 20.886 3.467 C 20.682 2.962,20.261 2.555,19.740 2.361 C 19.538 2.285,19.402 2.269,18.880 2.258 C 18.539 2.250,18.161 2.262,18.040 2.283 M11.123 6.824 C 10.526 6.984,10.021 7.478,9.838 8.080 C 9.760 8.335,9.759 8.461,9.769 14.340 L 9.780 20.340 9.929 20.652 C 10.192 21.202,10.686 21.594,11.272 21.716 C 11.546 21.773,12.454 21.773,12.728 21.716 C 13.314 21.594,13.808 21.202,14.071 20.652 L 14.220 20.340 14.231 14.340 C 14.241 8.461,14.240 8.335,14.162 8.080 C 13.976 7.469,13.471 6.981,12.859 6.822 C 12.544 6.739,11.432 6.741,11.123 6.824 M4.640 11.268 C 4.406 11.293,4.024 11.442,3.796 11.598 C 3.535 11.776,3.242 12.150,3.114 12.467 L 3.020 12.700 3.020 16.500 L 3.020 20.300 3.112 20.529 C 3.319 21.040,3.729 21.443,4.234 21.633 C 4.464 21.719,4.584 21.735,5.120 21.750 C 5.596 21.764,5.803 21.753,6.010 21.704 C 6.677 21.548,7.157 21.120,7.410 20.457 L 7.500 20.220 7.500 16.520 L 7.500 12.820 7.408 12.554 C 7.174 11.876,6.607 11.392,5.920 11.282 C 5.675 11.243,4.948 11.235,4.640 11.268 " stroke="none" fill-rule="evenodd"></path></svg>