<svg xmlns="http://www.w3.org/2000/svg" fill="none" viewBox="0 0 24 24" stroke-width="1.5" stroke="currentColor" class="w-6 h-6"><path d="M7.043 3.043 C 6.368 3.119,5.521 3.391,4.960 3.711 C 4.343 4.064,3.651 4.673,3.251 5.216 C 2.879 5.721,2.565 6.395,2.401 7.038 C 2.153 8.007,2.225 9.378,2.596 10.783 C 3.438 13.965,6.063 17.206,9.940 19.849 C 11.090 20.633,11.747 21.000,12.000 21.000 C 12.253 21.000,12.915 20.630,14.060 19.848 C 18.317 16.941,20.959 13.459,21.600 9.911 C 22.008 7.651,21.557 5.942,20.200 4.598 C 19.281 3.688,18.148 3.165,16.823 3.037 C 16.095 2.966,15.363 3.036,14.660 3.243 C 14.506 3.288,14.146 3.440,13.860 3.581 C 13.186 3.913,12.666 4.303,12.170 4.851 L 12.000 5.038 11.830 4.853 C 11.306 4.282,10.818 3.915,10.140 3.581 C 9.346 3.190,8.782 3.049,7.900 3.021 C 7.614 3.012,7.228 3.022,7.043 3.043 M8.740 4.635 C 9.143 4.741,9.781 5.053,10.121 5.311 C 10.511 5.607,10.918 6.064,11.121 6.437 C 11.383 6.918,11.448 7.008,11.595 7.108 C 11.936 7.337,12.396 7.240,12.619 6.891 C 12.664 6.822,12.781 6.617,12.879 6.437 C 13.212 5.827,13.818 5.272,14.540 4.916 C 15.184 4.598,15.445 4.544,16.320 4.545 C 17.011 4.545,17.084 4.552,17.420 4.655 C 18.772 5.066,19.727 5.996,20.103 7.268 C 20.315 7.986,20.269 9.123,19.981 10.260 C 19.311 12.914,17.363 15.485,14.180 17.919 C 13.613 18.353,12.181 19.313,12.055 19.345 C 11.940 19.374,11.758 19.269,10.840 18.646 C 7.580 16.434,5.270 13.798,4.298 11.180 C 3.791 9.814,3.623 8.182,3.896 7.268 C 4.258 6.053,5.158 5.132,6.385 4.723 C 6.904 4.549,7.102 4.523,7.800 4.537 C 8.272 4.547,8.497 4.570,8.740 4.635 " stroke="none" fill-rule="evenodd" fill="black"></path></svg>