<svg xmlns="http://www.w3.org/2000/svg" fill="none" viewBox="0 0 24 24" stroke-width="1.5" stroke="currentColor" class="w-6 h-6"><path d="M11.320 2.280 C 7.872 2.513,4.779 4.593,3.258 7.700 C 2.798 8.640,2.496 9.614,2.334 10.680 C 2.237 11.316,2.237 12.684,2.334 13.320 C 2.780 16.261,4.386 18.729,6.867 20.288 C 7.942 20.964,9.308 21.458,10.680 21.666 C 11.316 21.763,12.684 21.763,13.320 21.666 C 15.420 21.347,17.252 20.460,18.725 19.048 C 20.326 17.514,21.325 15.569,21.666 13.320 C 21.763 12.684,21.763 11.316,21.666 10.680 C 21.223 7.761,19.626 5.291,17.176 3.739 C 16.352 3.217,15.058 2.686,14.120 2.486 C 13.247 2.300,12.184 2.222,11.320 2.280 M13.320 3.858 C 15.111 4.162,16.718 5.007,17.948 6.293 C 19.124 7.524,19.861 9.006,20.148 10.716 C 20.248 11.309,20.248 12.691,20.148 13.284 C 19.536 16.933,16.685 19.710,13.068 20.179 C 9.297 20.668,5.699 18.526,4.301 14.960 C 4.121 14.500,3.948 13.854,3.852 13.284 C 3.752 12.691,3.752 11.309,3.852 10.716 C 4.151 8.933,4.918 7.434,6.176 6.176 C 7.565 4.788,9.153 4.038,11.240 3.785 C 11.553 3.747,12.955 3.796,13.320 3.858 M11.383 6.041 C 10.730 6.144,10.101 6.406,9.613 6.778 C 9.463 6.892,9.301 7.043,9.253 7.114 C 8.900 7.636,9.378 8.365,10.004 8.259 C 10.097 8.244,10.268 8.154,10.430 8.035 C 10.957 7.649,11.351 7.520,12.000 7.520 C 12.484 7.520,12.771 7.583,13.147 7.769 C 14.082 8.235,14.483 9.211,14.087 10.058 C 13.929 10.396,13.564 10.765,13.199 10.956 C 12.194 11.483,11.596 12.093,11.353 12.840 C 11.286 13.047,11.265 13.231,11.252 13.740 C 11.235 14.349,11.239 14.389,11.327 14.558 C 11.378 14.655,11.489 14.790,11.574 14.858 C 11.711 14.967,11.756 14.980,12.000 14.980 C 12.244 14.980,12.289 14.967,12.426 14.858 C 12.511 14.790,12.620 14.656,12.670 14.559 C 12.749 14.404,12.760 14.323,12.760 13.870 C 12.760 13.318,12.790 13.192,12.985 12.937 C 13.115 12.767,13.453 12.524,13.920 12.265 C 14.611 11.882,15.121 11.364,15.420 10.740 C 15.660 10.241,15.735 9.914,15.735 9.380 C 15.735 8.482,15.383 7.685,14.706 7.052 C 13.985 6.377,13.172 6.050,12.140 6.020 C 11.854 6.011,11.514 6.021,11.383 6.041 M11.613 16.621 C 11.201 16.868,11.129 17.380,11.454 17.749 C 11.975 18.343,12.970 17.777,12.722 17.027 C 12.573 16.574,12.026 16.374,11.613 16.621 " stroke="none" fill-rule="evenodd" fill="black"></path></svg>