<svg xmlns="http://www.w3.org/2000/svg" viewBox="0 0 24 24" fill="currentColor" class="w-6 h-6"><path d="M11.520 2.182 C 11.377 2.213,11.125 2.304,10.960 2.384 C 10.669 2.525,10.524 2.666,6.169 7.015 C 3.114 10.066,1.653 11.552,1.599 11.663 C 1.391 12.091,1.604 12.569,2.061 12.702 C 2.240 12.754,2.287 12.754,2.460 12.702 C 2.644 12.647,2.953 12.347,7.098 8.205 C 9.541 5.765,11.598 3.739,11.668 3.704 C 11.832 3.622,12.168 3.622,12.332 3.704 C 12.402 3.739,14.476 5.781,16.940 8.241 C 20.959 12.254,21.436 12.717,21.573 12.742 C 22.221 12.860,22.715 12.268,22.441 11.703 C 22.387 11.592,20.922 10.103,17.851 7.037 C 13.500 2.694,13.329 2.529,13.040 2.386 C 12.532 2.136,12.041 2.070,11.520 2.182 M7.869 9.551 L 3.758 13.662 3.769 17.001 L 3.780 20.340 3.929 20.652 C 4.192 21.202,4.686 21.594,5.272 21.716 C 5.563 21.776,9.001 21.776,9.219 21.715 C 9.423 21.659,9.659 21.423,9.715 21.219 C 9.745 21.111,9.760 20.301,9.760 18.709 C 9.760 16.684,9.769 16.337,9.822 16.210 C 9.904 16.012,9.990 15.923,10.180 15.835 C 10.327 15.768,10.474 15.762,12.000 15.762 C 13.526 15.762,13.673 15.768,13.820 15.835 C 14.010 15.923,14.096 16.012,14.178 16.210 C 14.231 16.337,14.240 16.684,14.240 18.709 C 14.240 20.301,14.255 21.111,14.285 21.219 C 14.341 21.423,14.577 21.659,14.781 21.715 C 14.999 21.776,18.437 21.776,18.728 21.716 C 19.314 21.594,19.808 21.202,20.071 20.652 L 20.220 20.340 20.231 17.001 L 20.242 13.662 16.131 9.551 C 13.870 7.290,12.011 5.440,12.000 5.440 C 11.989 5.440,10.130 7.290,7.869 9.551 " stroke="none" fill-rule="evenodd"></path></svg>