<svg xmlns="http://www.w3.org/2000/svg" fill="none" viewBox="0 0 24 24" stroke-width="1.5" stroke="currentColor" class="w-6 h-6"><path d="M11.570 2.021 C 11.433 2.051,11.226 2.125,11.110 2.185 C 10.946 2.271,9.881 3.312,6.287 6.898 C 3.459 9.719,1.643 11.561,1.593 11.657 C 1.287 12.247,1.880 12.939,2.491 12.706 C 2.611 12.660,2.810 12.491,3.180 12.120 C 3.465 11.834,3.713 11.600,3.729 11.600 C 3.746 11.600,3.760 13.533,3.760 15.896 C 3.760 20.001,3.763 20.204,3.836 20.436 C 3.978 20.894,4.345 21.330,4.767 21.544 C 5.210 21.768,4.907 21.759,12.000 21.759 C 19.093 21.759,18.790 21.768,19.233 21.544 C 19.655 21.330,20.022 20.894,20.164 20.436 C 20.237 20.204,20.240 20.001,20.240 15.896 C 20.240 13.533,20.254 11.600,20.271 11.600 C 20.287 11.600,20.535 11.834,20.820 12.120 C 21.190 12.491,21.389 12.660,21.509 12.706 C 22.138 12.946,22.735 12.215,22.387 11.631 C 22.331 11.537,20.219 9.398,17.693 6.878 C 14.129 3.322,13.053 2.271,12.891 2.186 C 12.661 2.065,12.229 1.960,11.980 1.964 C 11.892 1.965,11.708 1.991,11.570 2.021 M15.469 6.769 L 18.760 10.059 18.760 14.971 C 18.760 20.232,18.765 20.090,18.566 20.197 C 18.512 20.226,17.914 20.240,16.743 20.240 L 15.000 20.240 15.000 18.068 C 15.000 15.720,14.996 15.666,14.779 15.238 C 14.636 14.955,14.261 14.595,13.955 14.445 C 13.599 14.272,13.312 14.242,12.000 14.242 C 10.688 14.242,10.401 14.272,10.045 14.445 C 9.739 14.595,9.364 14.955,9.221 15.238 C 9.004 15.666,9.000 15.720,9.000 18.068 L 9.000 20.240 7.257 20.240 C 6.086 20.240,5.488 20.226,5.434 20.197 C 5.235 20.090,5.240 20.232,5.240 14.971 L 5.240 10.059 8.531 6.769 L 11.822 3.480 12.000 3.480 L 12.178 3.480 15.469 6.769 M13.375 15.865 L 13.480 15.971 13.480 18.105 L 13.480 20.240 12.000 20.240 L 10.520 20.240 10.520 18.105 L 10.520 15.971 10.625 15.865 L 10.731 15.760 12.000 15.760 L 13.269 15.760 13.375 15.865 " stroke="none" fill-rule="evenodd" fill="black"></path></svg>