<svg xmlns="http://www.w3.org/2000/svg" fill="none" viewBox="0 0 24 24" stroke-width="1.5" stroke="currentColor" class="w-6 h-6"><path d="M10.152 0.842 C 10.071 0.885,9.954 0.986,9.892 1.067 L 9.780 1.214 9.770 6.807 C 9.764 9.883,9.746 12.400,9.729 12.400 C 9.713 12.400,9.303 12.002,8.820 11.516 C 8.336 11.030,7.882 10.607,7.811 10.576 C 7.740 10.545,7.600 10.520,7.500 10.520 C 6.935 10.520,6.592 11.068,6.839 11.577 C 6.950 11.806,10.006 14.854,10.209 14.938 C 10.398 15.017,10.602 15.017,10.791 14.938 C 10.994 14.854,14.050 11.806,14.161 11.577 C 14.350 11.188,14.173 10.708,13.787 10.563 C 13.630 10.503,13.342 10.510,13.189 10.576 C 13.118 10.607,12.664 11.030,12.180 11.516 C 11.697 12.002,11.287 12.400,11.270 12.400 C 11.254 12.400,11.240 9.906,11.240 6.858 C 11.240 1.500,11.238 1.312,11.164 1.168 C 11.123 1.087,11.055 0.991,11.014 0.955 C 10.781 0.750,10.416 0.702,10.152 0.842 M6.168 6.805 C 5.177 6.970,4.236 7.802,3.889 8.820 L 3.780 9.140 3.780 13.500 L 3.780 17.860 3.889 18.180 C 3.949 18.356,4.066 18.617,4.149 18.760 C 4.343 19.094,4.906 19.657,5.240 19.851 C 5.578 20.047,6.058 20.198,6.442 20.227 L 6.749 20.251 6.773 20.558 C 6.802 20.942,6.953 21.422,7.149 21.760 C 7.343 22.094,7.906 22.657,8.240 22.851 C 8.383 22.934,8.644 23.051,8.820 23.111 L 9.140 23.220 13.500 23.220 L 17.860 23.220 18.180 23.111 C 18.650 22.951,18.978 22.742,19.360 22.360 C 19.742 21.978,19.951 21.650,20.111 21.180 L 20.220 20.860 20.220 16.500 L 20.220 12.140 20.111 11.820 C 19.954 11.360,19.745 11.027,19.380 10.657 C 18.862 10.132,18.248 9.833,17.573 9.776 L 17.251 9.749 17.227 9.443 C 17.198 9.058,17.047 8.578,16.851 8.241 C 16.648 7.893,16.129 7.373,15.780 7.168 C 15.626 7.078,15.356 6.956,15.180 6.896 C 14.887 6.796,14.797 6.785,14.097 6.769 C 13.382 6.752,13.325 6.756,13.170 6.835 C 12.912 6.966,12.786 7.162,12.769 7.455 C 12.753 7.745,12.828 7.913,13.057 8.098 L 13.206 8.219 13.903 8.246 C 14.567 8.271,14.612 8.278,14.858 8.393 C 15.189 8.548,15.452 8.813,15.613 9.152 L 15.740 9.420 15.740 13.500 L 15.740 17.580 15.612 17.850 C 15.390 18.319,15.002 18.629,14.523 18.719 C 14.232 18.775,6.768 18.775,6.477 18.719 C 5.998 18.629,5.610 18.319,5.388 17.850 L 5.260 17.580 5.260 13.500 L 5.260 9.420 5.387 9.152 C 5.548 8.812,5.811 8.548,6.145 8.392 C 6.395 8.275,6.436 8.268,7.053 8.249 C 7.845 8.225,7.991 8.170,8.164 7.832 C 8.303 7.560,8.232 7.146,8.014 6.955 C 7.816 6.780,7.709 6.760,7.032 6.765 C 6.673 6.767,6.285 6.785,6.168 6.805 M17.868 11.401 C 18.187 11.547,18.453 11.814,18.613 12.152 L 18.740 12.420 18.740 16.500 L 18.740 20.580 18.612 20.850 C 18.390 21.319,18.002 21.629,17.523 21.719 C 17.232 21.775,9.768 21.775,9.477 21.719 C 9.172 21.662,8.929 21.533,8.708 21.311 C 8.487 21.091,8.297 20.709,8.269 20.431 L 8.250 20.243 11.555 20.231 L 14.860 20.220 15.180 20.111 C 15.650 19.951,15.978 19.742,16.360 19.360 C 16.742 18.978,16.951 18.650,17.111 18.180 L 17.220 17.860 17.231 14.555 L 17.243 11.250 17.431 11.269 C 17.535 11.279,17.732 11.339,17.868 11.401 " stroke="none" fill-rule="evenodd" fill="black"></path></svg>