<svg xmlns="http://www.w3.org/2000/svg" viewBox="0 0 24 24" fill="currentColor" class="w-6 h-6"><path d="M10.201 0.823 C 10.018 0.903,9.928 0.988,9.836 1.168 C 9.764 1.310,9.760 1.447,9.760 4.038 L 9.760 6.760 8.098 6.760 C 6.245 6.760,6.054 6.779,5.533 7.020 C 4.823 7.347,4.360 7.805,4.039 8.495 C 3.749 9.121,3.760 8.921,3.760 13.500 C 3.760 18.112,3.746 17.882,4.059 18.540 C 4.364 19.182,4.818 19.636,5.460 19.941 C 6.118 20.254,5.888 20.240,10.500 20.240 C 15.112 20.240,14.882 20.254,15.540 19.941 C 16.182 19.636,16.636 19.182,16.941 18.540 C 17.254 17.882,17.240 18.112,17.240 13.500 C 17.240 8.888,17.254 9.118,16.941 8.460 C 16.637 7.820,16.192 7.376,15.540 7.059 C 14.957 6.777,14.810 6.760,12.902 6.760 L 11.240 6.760 11.239 4.050 C 11.238 1.506,11.234 1.330,11.165 1.180 C 11.077 0.990,10.988 0.904,10.790 0.822 C 10.605 0.744,10.381 0.745,10.201 0.823 M11.240 9.610 L 11.240 12.459 12.170 11.531 C 13.109 10.594,13.255 10.480,13.520 10.480 C 13.776 10.480,14.066 10.661,14.189 10.899 C 14.280 11.073,14.271 11.389,14.170 11.580 C 14.048 11.812,10.982 14.859,10.791 14.938 C 10.602 15.017,10.398 15.017,10.209 14.938 C 10.018 14.859,6.952 11.812,6.830 11.580 C 6.729 11.389,6.720 11.073,6.811 10.899 C 6.936 10.658,7.226 10.479,7.489 10.481 C 7.752 10.483,7.927 10.618,8.820 11.516 C 9.303 12.002,9.713 12.400,9.730 12.400 C 9.746 12.400,9.760 11.131,9.760 9.580 L 9.760 6.760 10.500 6.760 L 11.240 6.760 11.240 9.610 M18.750 13.989 C 18.735 17.699,18.732 17.831,18.652 18.180 C 18.216 20.067,16.770 21.417,14.880 21.702 C 14.571 21.749,13.811 21.760,10.828 21.760 L 7.155 21.760 7.228 21.887 C 7.350 22.102,7.926 22.658,8.180 22.805 C 8.483 22.981,8.788 23.102,9.120 23.179 C 9.342 23.230,9.977 23.239,13.492 23.239 C 18.113 23.240,17.882 23.254,18.540 22.941 C 19.182 22.636,19.636 22.182,19.941 21.540 C 20.254 20.882,20.240 21.113,20.240 16.492 C 20.239 12.518,20.237 12.369,20.159 12.046 C 19.988 11.330,19.558 10.705,18.952 10.288 L 18.764 10.159 18.750 13.989 " stroke="none" fill-rule="evenodd"></path></svg>