<svg xmlns="http://www.w3.org/2000/svg" fill="none" viewBox="0 0 24 24" stroke-width="1.5" stroke="currentColor" class="w-6 h-6"><path d="M11.320 2.280 C 7.872 2.513,4.779 4.593,3.258 7.700 C 2.798 8.640,2.496 9.614,2.334 10.680 C 2.237 11.316,2.237 12.684,2.334 13.320 C 2.780 16.261,4.386 18.729,6.867 20.288 C 7.942 20.964,9.308 21.458,10.680 21.666 C 11.316 21.763,12.684 21.763,13.320 21.666 C 15.420 21.347,17.252 20.460,18.725 19.048 C 20.326 17.514,21.325 15.569,21.666 13.320 C 21.763 12.684,21.763 11.316,21.666 10.680 C 21.223 7.761,19.626 5.291,17.176 3.739 C 16.352 3.217,15.058 2.686,14.120 2.486 C 13.247 2.300,12.184 2.222,11.320 2.280 M13.320 3.858 C 15.111 4.162,16.718 5.007,17.948 6.293 C 19.124 7.524,19.861 9.006,20.148 10.716 C 20.248 11.309,20.248 12.691,20.148 13.284 C 19.536 16.933,16.685 19.710,13.068 20.179 C 9.297 20.668,5.699 18.526,4.301 14.960 C 4.121 14.500,3.948 13.854,3.852 13.284 C 3.752 12.691,3.752 11.309,3.852 10.716 C 4.151 8.933,4.918 7.434,6.176 6.176 C 7.565 4.788,9.153 4.038,11.240 3.785 C 11.553 3.747,12.955 3.796,13.320 3.858 M11.613 7.621 C 11.201 7.868,11.129 8.380,11.454 8.749 C 11.975 9.343,12.970 8.777,12.722 8.027 C 12.573 7.574,12.026 7.374,11.613 7.621 M11.269 10.441 C 10.570 10.617,10.290 11.213,10.669 11.714 C 10.845 11.947,11.269 12.073,11.486 11.957 C 11.530 11.933,11.576 11.923,11.588 11.935 C 11.600 11.947,11.445 12.619,11.244 13.428 C 10.848 15.022,10.826 15.190,10.959 15.577 C 11.105 16.001,11.370 16.282,11.820 16.488 C 12.108 16.620,12.652 16.618,12.950 16.485 C 13.204 16.370,13.421 16.141,13.479 15.922 C 13.623 15.389,13.044 14.848,12.537 15.041 C 12.478 15.064,12.420 15.074,12.410 15.063 C 12.399 15.052,12.555 14.381,12.756 13.572 C 13.151 11.979,13.174 11.809,13.042 11.425 C 12.839 10.836,12.330 10.451,11.710 10.418 C 11.550 10.410,11.352 10.420,11.269 10.441 " stroke="none" fill-rule="evenodd" fill="black"></path></svg>