<svg xmlns="http://www.w3.org/2000/svg" viewBox="0 0 24 24" fill="currentColor" class="w-6 h-6"><path d="M14.720 1.582 C 13.687 1.744,12.695 2.149,11.820 2.767 C 11.373 3.082,10.648 3.793,10.326 4.232 C 9.286 5.649,8.844 7.357,9.059 9.128 C 9.179 10.110,9.597 9.571,5.601 13.580 C 3.715 15.472,2.113 17.107,2.042 17.213 C 1.858 17.486,1.652 17.948,1.571 18.267 C 1.511 18.504,1.502 18.763,1.501 20.240 C 1.500 21.765,1.507 21.953,1.568 22.064 C 1.656 22.224,1.891 22.430,2.031 22.469 C 2.091 22.486,3.050 22.500,4.163 22.500 L 6.186 22.500 6.380 22.380 C 6.712 22.173,6.738 22.084,6.752 21.090 L 6.764 20.240 7.590 20.240 C 8.543 20.240,8.676 20.206,8.873 19.908 C 8.980 19.746,8.980 19.744,8.992 18.873 L 9.004 18.000 9.823 18.000 C 10.473 18.000,10.673 17.987,10.791 17.938 C 10.890 17.896,11.424 17.394,12.400 16.422 L 13.860 14.969 14.087 14.919 C 14.278 14.876,14.394 14.879,14.807 14.934 C 16.534 15.165,18.251 14.740,19.679 13.729 C 20.162 13.387,20.862 12.688,21.211 12.199 C 21.557 11.713,22.042 10.737,22.194 10.218 C 22.422 9.441,22.457 9.175,22.457 8.240 C 22.457 7.276,22.404 6.925,22.136 6.120 C 21.373 3.832,19.455 2.134,17.069 1.636 C 16.526 1.523,15.282 1.494,14.720 1.582 M16.753 4.638 C 18.023 5.003,18.998 5.978,19.362 7.247 C 19.413 7.423,19.455 7.716,19.468 7.981 C 19.488 8.377,19.482 8.440,19.406 8.588 C 19.130 9.130,18.373 9.128,18.092 8.585 C 18.057 8.517,18.013 8.308,17.994 8.121 C 17.951 7.693,17.838 7.351,17.643 7.052 C 17.254 6.457,16.674 6.098,15.979 6.022 C 15.494 5.969,15.434 5.952,15.290 5.826 C 15.018 5.587,14.935 5.246,15.075 4.940 C 15.154 4.768,15.232 4.688,15.420 4.584 C 15.589 4.490,16.347 4.521,16.753 4.638 " stroke="none" fill-rule="evenodd"></path></svg>