<svg xmlns="http://www.w3.org/2000/svg" fill="none" viewBox="0 0 24 24" stroke-width="1.5" stroke="currentColor" class="w-6 h-6"><path d="M14.860 1.563 C 12.914 1.829,11.108 2.975,10.067 4.606 C 9.657 5.248,9.276 6.204,9.116 6.992 C 8.997 7.577,8.974 8.421,9.058 9.132 C 9.174 10.115,9.591 9.578,5.622 13.560 C 3.747 15.441,2.159 17.052,2.092 17.140 C 1.884 17.414,1.729 17.726,1.615 18.100 L 1.505 18.460 1.502 20.200 C 1.500 21.765,1.507 21.953,1.568 22.064 C 1.656 22.224,1.891 22.430,2.031 22.469 C 2.091 22.486,3.049 22.500,4.160 22.500 L 6.180 22.500 6.367 22.390 C 6.469 22.330,6.595 22.213,6.647 22.130 C 6.736 21.987,6.741 21.941,6.753 21.110 L 6.766 20.240 7.590 20.240 C 8.543 20.240,8.676 20.206,8.873 19.908 C 8.980 19.746,8.980 19.744,8.992 18.873 L 9.004 18.000 9.823 18.000 C 10.473 18.000,10.673 17.987,10.791 17.938 C 10.891 17.896,11.421 17.397,12.400 16.421 C 14.099 14.728,13.937 14.835,14.680 14.925 C 15.395 15.011,16.486 14.991,17.000 14.884 C 17.808 14.714,18.420 14.490,19.048 14.136 C 22.179 12.371,23.388 8.471,21.797 5.271 C 20.863 3.392,19.166 2.080,17.100 1.640 C 16.639 1.542,15.342 1.497,14.860 1.563 M16.224 3.040 C 18.053 3.202,19.616 4.276,20.453 5.944 C 21.623 8.280,20.831 11.176,18.620 12.645 C 18.091 12.996,17.264 13.317,16.560 13.443 C 16.237 13.502,15.354 13.502,14.980 13.445 C 14.583 13.384,14.023 13.391,13.724 13.461 C 13.144 13.598,13.022 13.694,11.538 15.167 L 10.175 16.520 9.106 16.520 C 7.947 16.520,7.920 16.524,7.715 16.746 C 7.508 16.970,7.501 17.007,7.487 17.908 L 7.473 18.756 6.604 18.768 C 5.752 18.780,5.731 18.782,5.586 18.880 C 5.501 18.938,5.397 19.063,5.339 19.178 C 5.243 19.369,5.240 19.403,5.240 20.188 L 5.240 21.000 4.117 21.000 L 2.994 21.000 3.007 19.790 L 3.020 18.580 3.137 18.320 C 3.247 18.076,3.471 17.842,6.739 14.560 C 9.962 11.324,10.234 11.040,10.350 10.797 C 10.606 10.255,10.665 9.755,10.561 9.012 C 10.481 8.440,10.526 7.483,10.658 6.985 C 10.914 6.016,11.364 5.229,12.057 4.538 C 12.882 3.715,14.007 3.171,15.140 3.046 C 15.590 2.996,15.721 2.995,16.224 3.040 M15.420 4.580 C 15.237 4.680,15.156 4.765,15.075 4.940 C 14.935 5.245,14.997 5.552,15.245 5.788 C 15.412 5.946,15.551 6.000,15.793 6.001 C 16.961 6.005,17.995 7.039,17.999 8.207 C 18.000 8.449,18.054 8.588,18.212 8.755 C 18.448 9.003,18.755 9.065,19.060 8.924 C 19.421 8.758,19.534 8.477,19.475 7.898 C 19.359 6.745,18.776 5.775,17.816 5.136 C 17.225 4.743,16.694 4.568,16.000 4.536 C 15.621 4.518,15.519 4.526,15.420 4.580 " stroke="none" fill-rule="evenodd" fill="black"></path></svg>