<svg xmlns="http://www.w3.org/2000/svg" fill="none" viewBox="0 0 24 24" stroke-width="1.5" stroke="currentColor" class="w-6 h-6"><path d="M8.820 2.276 C 8.554 2.342,8.353 2.534,8.282 2.791 C 8.259 2.873,8.240 3.296,8.240 3.730 L 8.240 4.520 7.888 4.520 C 6.685 4.520,3.121 4.799,2.733 4.924 C 2.564 4.978,2.337 5.234,2.275 5.441 C 2.209 5.663,2.279 5.932,2.452 6.115 C 2.700 6.377,2.869 6.401,3.720 6.300 C 5.412 6.098,7.984 5.979,9.840 6.018 C 11.186 6.045,11.360 6.060,11.360 6.143 C 11.360 6.250,10.878 7.654,10.677 8.130 C 10.457 8.653,10.004 9.577,9.750 10.020 C 9.528 10.408,9.024 11.200,9.000 11.200 C 8.970 11.200,8.439 10.355,8.205 9.936 C 8.015 9.596,7.636 8.826,7.308 8.113 C 7.142 7.753,6.971 7.611,6.656 7.575 C 6.491 7.556,6.425 7.571,6.243 7.667 C 5.983 7.804,5.840 8.031,5.840 8.309 C 5.840 8.523,6.093 9.124,6.596 10.100 C 7.001 10.887,7.195 11.217,7.687 11.954 L 8.044 12.487 7.852 12.713 C 6.507 14.295,4.852 15.634,2.947 16.680 C 2.731 16.799,2.503 16.955,2.439 17.027 C 2.004 17.523,2.394 18.287,3.054 18.232 C 3.218 18.219,3.370 18.156,3.762 17.941 C 5.529 16.970,7.262 15.614,8.530 14.209 C 8.773 13.939,8.986 13.723,9.003 13.729 C 9.020 13.735,9.226 13.947,9.462 14.200 C 9.913 14.684,10.083 14.817,10.304 14.858 C 10.604 14.914,10.948 14.722,11.085 14.422 C 11.253 14.052,11.176 13.838,10.690 13.317 C 10.476 13.087,10.221 12.803,10.124 12.687 L 9.949 12.475 10.040 12.352 C 10.090 12.284,10.270 12.019,10.439 11.764 C 11.446 10.244,12.244 8.500,12.775 6.660 L 12.913 6.180 13.167 6.193 C 13.306 6.200,13.730 6.240,14.110 6.283 C 14.930 6.375,15.120 6.378,15.291 6.305 C 15.619 6.164,15.821 5.761,15.725 5.441 C 15.663 5.234,15.436 4.977,15.267 4.924 C 14.870 4.798,11.364 4.522,10.150 4.520 L 9.760 4.520 9.760 3.730 C 9.760 2.879,9.733 2.710,9.574 2.520 C 9.398 2.311,9.087 2.210,8.820 2.276 M15.418 9.101 C 15.309 9.156,15.191 9.241,15.156 9.291 C 15.121 9.340,13.899 11.936,12.441 15.060 C 10.482 19.256,9.784 20.788,9.770 20.925 C 9.734 21.269,9.891 21.534,10.220 21.685 C 10.308 21.725,10.435 21.759,10.502 21.759 C 10.679 21.760,11.006 21.583,11.107 21.431 C 11.154 21.359,11.459 20.728,11.783 20.030 L 12.374 18.760 15.754 18.770 L 19.134 18.780 19.749 20.100 C 20.088 20.826,20.404 21.462,20.453 21.514 C 20.844 21.933,21.572 21.750,21.722 21.194 C 21.746 21.102,21.755 20.965,21.741 20.890 C 21.707 20.712,16.462 9.463,16.330 9.286 C 16.212 9.128,15.959 9.002,15.758 9.001 C 15.680 9.000,15.527 9.045,15.418 9.101 M17.098 14.416 C 17.815 15.954,18.395 17.218,18.387 17.226 C 18.379 17.234,17.185 17.236,15.733 17.230 L 13.094 17.220 14.414 14.389 C 15.141 12.833,15.748 11.573,15.764 11.589 C 15.780 11.606,16.380 12.878,17.098 14.416 " stroke="none" fill-rule="evenodd" fill="black"></path></svg>