<svg xmlns="http://www.w3.org/2000/svg" fill="none" viewBox="0 0 24 24" stroke-width="1.5" stroke="currentColor" class="w-6 h-6"><path d="M16.380 1.578 C 15.532 1.733,14.765 2.061,14.100 2.554 C 13.800 2.777,8.959 7.596,8.638 7.991 C 7.472 9.429,7.178 11.564,7.910 13.280 C 8.388 14.401,9.244 15.343,10.261 15.866 C 10.654 16.067,10.782 16.093,11.029 16.019 C 11.248 15.954,11.407 15.810,11.498 15.591 C 11.667 15.187,11.486 14.821,10.985 14.556 C 10.298 14.193,9.702 13.561,9.362 12.834 C 8.754 11.534,8.939 10.026,9.842 8.904 C 9.968 8.748,11.158 7.538,12.486 6.216 C 15.022 3.691,15.152 3.576,15.759 3.318 C 16.288 3.093,16.602 3.030,17.220 3.026 C 17.674 3.023,17.847 3.039,18.135 3.112 C 19.490 3.452,20.548 4.510,20.889 5.868 C 20.960 6.153,20.977 6.327,20.974 6.780 C 20.970 7.398,20.907 7.712,20.682 8.241 C 20.452 8.783,20.237 9.049,19.115 10.180 C 18.027 11.277,17.919 11.413,17.921 11.689 C 17.923 12.020,18.228 12.375,18.551 12.424 C 18.918 12.479,18.971 12.441,20.073 11.346 C 21.468 9.961,21.764 9.577,22.116 8.700 C 22.661 7.339,22.607 5.738,21.971 4.460 C 21.478 3.468,20.623 2.594,19.651 2.088 C 19.230 1.869,18.593 1.659,18.120 1.582 C 17.665 1.508,16.775 1.506,16.380 1.578 M12.860 8.023 C 12.680 8.117,12.596 8.203,12.515 8.380 C 12.327 8.790,12.502 9.172,13.001 9.437 C 15.073 10.542,15.631 13.263,14.162 15.096 C 14.054 15.230,12.853 16.448,11.493 17.801 C 9.191 20.092,8.995 20.277,8.661 20.472 C 8.016 20.849,7.290 21.027,6.560 20.987 C 4.929 20.898,3.552 19.781,3.129 18.203 C 3.041 17.874,3.027 17.739,3.028 17.240 C 3.029 16.600,3.088 16.299,3.318 15.759 C 3.548 15.217,3.763 14.951,4.885 13.820 C 5.583 13.116,5.978 12.688,6.018 12.591 C 6.172 12.222,6.000 11.811,5.620 11.636 C 5.416 11.542,5.223 11.542,5.020 11.636 C 4.837 11.721,2.847 13.709,2.554 14.100 C 1.170 15.942,1.161 18.519,2.534 20.369 C 2.793 20.719,3.325 21.247,3.673 21.500 C 5.562 22.875,8.205 22.811,10.020 21.345 C 10.432 21.012,15.258 16.170,15.468 15.880 C 16.092 15.014,16.421 14.085,16.475 13.044 C 16.543 11.733,16.186 10.562,15.412 9.548 C 14.986 8.989,14.274 8.399,13.651 8.085 C 13.367 7.942,13.061 7.918,12.860 8.023 " stroke="none" fill-rule="evenodd" fill="black"></path></svg>