<svg xmlns="http://www.w3.org/2000/svg" fill="none" viewBox="0 0 24 24" stroke-width="1.5" stroke="currentColor" class="w-6 h-6"><path d="M5.020 3.820 C 4.385 3.961,3.747 4.426,3.372 5.020 C 3.057 5.518,2.926 6.307,3.055 6.920 C 3.262 7.900,4.093 8.738,5.060 8.940 C 5.480 9.028,18.520 9.028,18.940 8.940 C 19.671 8.787,20.382 8.234,20.714 7.560 C 21.059 6.860,21.092 6.113,20.811 5.400 C 20.496 4.604,19.720 3.955,18.903 3.804 C 18.524 3.734,5.337 3.749,5.020 3.820 M18.820 5.352 C 19.252 5.551,19.479 5.905,19.480 6.382 C 19.480 6.851,19.244 7.211,18.802 7.416 L 18.620 7.500 12.000 7.500 L 5.380 7.500 5.198 7.416 C 4.756 7.211,4.519 6.851,4.521 6.382 C 4.523 5.815,4.867 5.391,5.414 5.281 C 5.505 5.263,8.514 5.251,12.100 5.254 L 18.620 5.260 18.820 5.352 M3.571 11.279 C 3.395 11.321,3.266 11.411,3.133 11.586 C 3.035 11.714,3.020 11.769,3.020 12.003 C 3.020 12.243,3.033 12.289,3.142 12.426 C 3.210 12.511,3.344 12.620,3.441 12.670 L 3.617 12.760 12.000 12.760 L 20.383 12.760 20.559 12.670 C 20.656 12.620,20.790 12.511,20.858 12.426 C 20.967 12.289,20.980 12.244,20.980 12.000 C 20.980 11.755,20.968 11.712,20.856 11.574 C 20.787 11.489,20.670 11.384,20.596 11.340 C 20.461 11.261,20.382 11.260,12.080 11.254 C 7.471 11.250,3.642 11.262,3.571 11.279 M3.540 15.034 C 2.801 15.276,2.844 16.314,3.599 16.476 C 3.889 16.538,20.111 16.538,20.401 16.476 C 20.785 16.394,21.034 16.047,20.990 15.656 C 20.966 15.449,20.886 15.322,20.664 15.142 L 20.513 15.020 12.066 15.014 C 7.421 15.010,3.584 15.019,3.540 15.034 M3.407 18.846 C 3.149 18.973,3.020 19.192,3.020 19.500 C 3.020 19.811,3.150 20.029,3.410 20.155 L 3.585 20.240 12.000 20.240 L 20.415 20.240 20.590 20.155 C 20.850 20.029,20.980 19.811,20.980 19.500 C 20.980 19.189,20.850 18.971,20.590 18.845 L 20.415 18.760 11.997 18.760 L 3.580 18.760 3.407 18.846 " stroke="none" fill-rule="evenodd" fill="black"></path></svg>