<svg xmlns="http://www.w3.org/2000/svg" fill="none" viewBox="0 0 24 24" stroke-width="1.5" stroke="currentColor" class="w-6 h-6"><path d="M17.085 1.584 C 16.437 1.693,15.672 2.003,15.060 2.406 C 14.648 2.676,13.916 3.408,13.646 3.820 C 13.283 4.372,13.014 5.005,12.856 5.680 C 12.796 5.938,12.784 6.245,12.771 7.869 L 12.756 9.758 7.948 9.769 L 3.140 9.780 2.820 9.892 C 2.343 10.060,1.982 10.290,1.620 10.657 C 1.255 11.027,1.046 11.360,0.889 11.820 L 0.780 12.140 0.769 16.017 C 0.758 19.786,0.760 19.902,0.838 20.217 C 0.977 20.776,1.201 21.164,1.639 21.603 C 1.958 21.924,2.080 22.016,2.388 22.170 C 3.095 22.523,2.633 22.500,9.000 22.500 C 15.367 22.500,14.905 22.523,15.612 22.170 C 15.920 22.016,16.042 21.924,16.361 21.603 C 16.799 21.164,17.023 20.776,17.162 20.217 C 17.240 19.902,17.242 19.786,17.231 16.017 L 17.220 12.140 17.111 11.820 C 16.954 11.360,16.745 11.027,16.380 10.657 C 15.860 10.129,15.249 9.833,14.564 9.775 L 14.232 9.748 14.251 7.984 C 14.268 6.351,14.276 6.195,14.355 5.888 C 14.721 4.458,15.773 3.422,17.191 3.093 C 17.610 2.996,18.390 2.996,18.809 3.093 C 20.257 3.429,21.342 4.526,21.665 5.980 C 21.726 6.258,21.738 6.598,21.758 8.546 L 21.780 10.793 21.901 10.942 C 22.063 11.143,22.256 11.240,22.491 11.240 C 22.693 11.240,22.933 11.142,23.045 11.014 C 23.244 10.788,23.240 10.835,23.240 8.472 C 23.240 6.186,23.230 6.017,23.064 5.376 C 22.562 3.439,20.855 1.903,18.840 1.576 C 18.413 1.506,17.525 1.511,17.085 1.584 M14.848 11.387 C 15.189 11.549,15.451 11.811,15.613 12.152 L 15.740 12.420 15.752 15.913 C 15.759 18.001,15.748 19.518,15.725 19.684 C 15.653 20.205,15.355 20.619,14.888 20.849 L 14.622 20.980 9.001 20.980 L 3.380 20.980 3.151 20.873 C 2.668 20.646,2.349 20.214,2.276 19.687 C 2.252 19.517,2.241 18.028,2.248 15.913 L 2.260 12.420 2.387 12.152 C 2.606 11.690,3.042 11.347,3.500 11.279 C 3.610 11.262,6.148 11.251,9.140 11.254 L 14.580 11.260 14.848 11.387 " stroke="none" fill-rule="evenodd" fill="black"></path></svg>