<svg xmlns="http://www.w3.org/2000/svg" fill="none" viewBox="0 0 24 24" stroke-width="1.5" stroke="currentColor" class="w-6 h-6"><path d="M11.100 1.582 C 10.442 1.693,9.670 2.004,9.060 2.406 C 8.648 2.676,7.916 3.408,7.646 3.820 C 7.283 4.372,7.014 5.005,6.856 5.680 C 6.796 5.938,6.784 6.245,6.771 7.864 L 6.756 9.749 6.430 9.776 C 5.751 9.833,5.139 10.131,4.620 10.657 C 4.255 11.027,4.046 11.360,3.889 11.820 L 3.780 12.140 3.769 16.017 C 3.758 19.786,3.760 19.902,3.838 20.217 C 3.977 20.776,4.201 21.164,4.639 21.603 C 4.958 21.924,5.080 22.016,5.388 22.170 C 6.095 22.523,5.633 22.500,12.000 22.500 C 18.367 22.500,17.905 22.523,18.612 22.170 C 18.920 22.016,19.042 21.924,19.361 21.603 C 19.799 21.164,20.023 20.776,20.162 20.217 C 20.240 19.902,20.242 19.786,20.231 16.017 L 20.220 12.140 20.111 11.820 C 19.954 11.360,19.745 11.027,19.380 10.657 C 18.861 10.130,18.249 9.833,17.568 9.776 L 17.240 9.748 17.240 8.004 C 17.240 5.929,17.206 5.644,16.858 4.776 C 16.187 3.102,14.637 1.867,12.840 1.576 C 12.418 1.507,11.526 1.510,11.100 1.582 M12.840 3.101 C 14.260 3.438,15.336 4.529,15.662 5.960 C 15.719 6.210,15.733 6.553,15.749 8.010 L 15.768 9.760 12.000 9.760 L 8.232 9.760 8.251 7.990 C 8.271 6.038,8.285 5.921,8.558 5.278 C 9.034 4.159,10.101 3.292,11.260 3.084 C 11.392 3.060,11.545 3.033,11.600 3.023 C 11.789 2.989,12.580 3.039,12.840 3.101 M17.848 11.387 C 18.189 11.549,18.451 11.811,18.613 12.152 L 18.740 12.420 18.752 15.913 C 18.759 18.001,18.748 19.518,18.725 19.684 C 18.653 20.205,18.355 20.619,17.888 20.849 L 17.622 20.980 12.001 20.980 L 6.380 20.980 6.151 20.873 C 5.668 20.646,5.349 20.214,5.276 19.687 C 5.252 19.517,5.241 18.028,5.248 15.913 L 5.260 12.420 5.387 12.152 C 5.606 11.690,6.042 11.347,6.500 11.279 C 6.610 11.262,9.148 11.251,12.140 11.254 L 17.580 11.260 17.848 11.387 " stroke="none" fill-rule="evenodd" fill="black"></path></svg>