<svg xmlns="http://www.w3.org/2000/svg" fill="none" viewBox="0 0 24 24" stroke-width="1.5" stroke="currentColor" class="w-6 h-6"><path d="M7.112 2.281 C 6.736 2.326,6.422 2.423,6.120 2.588 C 5.454 2.950,4.919 3.552,4.686 4.200 C 4.492 4.742,4.500 4.407,4.500 12.000 C 4.500 19.593,4.492 19.258,4.686 19.800 C 4.995 20.659,5.783 21.382,6.702 21.648 L 7.020 21.740 10.500 21.740 L 13.980 21.740 14.298 21.648 C 15.305 21.356,16.074 20.595,16.386 19.580 L 16.497 19.220 16.498 17.020 L 16.500 14.820 16.400 14.646 C 16.263 14.406,16.010 14.262,15.735 14.266 C 15.488 14.269,15.319 14.357,15.144 14.574 L 15.020 14.727 15.000 16.914 L 14.980 19.100 14.857 19.360 C 14.705 19.680,14.414 19.979,14.120 20.117 L 13.900 20.220 10.500 20.220 L 7.100 20.220 6.880 20.117 C 6.586 19.979,6.295 19.680,6.143 19.360 L 6.020 19.100 6.020 12.000 L 6.020 4.900 6.143 4.640 C 6.294 4.321,6.566 4.042,6.870 3.893 L 7.100 3.780 10.500 3.780 L 13.900 3.780 14.137 3.900 C 14.451 4.059,14.706 4.321,14.857 4.640 L 14.980 4.900 15.000 7.086 L 15.020 9.273 15.142 9.426 C 15.503 9.879,16.106 9.850,16.390 9.367 L 16.500 9.180 16.498 6.980 L 16.497 4.780 16.386 4.420 C 16.325 4.222,16.220 3.961,16.152 3.840 C 15.751 3.121,15.055 2.564,14.297 2.352 C 13.983 2.264,13.954 2.263,10.680 2.256 C 8.865 2.252,7.260 2.263,7.112 2.281 M11.820 8.276 C 11.754 8.293,11.664 8.326,11.620 8.350 C 11.576 8.375,10.817 9.120,9.933 10.007 C 8.498 11.448,8.321 11.639,8.280 11.796 C 8.230 11.984,8.253 12.193,8.341 12.359 C 8.370 12.414,9.120 13.183,10.007 14.067 C 11.441 15.495,11.639 15.679,11.795 15.720 C 12.366 15.870,12.870 15.365,12.719 14.795 C 12.679 14.643,12.549 14.496,11.748 13.691 L 10.823 12.761 16.402 12.751 L 21.980 12.740 22.130 12.647 C 22.611 12.348,22.602 11.639,22.114 11.360 L 21.940 11.260 16.382 11.249 L 10.823 11.239 11.748 10.309 C 12.509 9.544,12.680 9.352,12.716 9.220 C 12.770 9.022,12.770 8.978,12.718 8.791 C 12.670 8.617,12.514 8.419,12.365 8.343 C 12.224 8.271,11.967 8.240,11.820 8.276 " stroke="none" fill-rule="evenodd" fill="black"></path></svg>