<svg xmlns="http://www.w3.org/2000/svg" fill="none" viewBox="0 0 24 24" stroke-width="1.5" stroke="currentColor" class="w-6 h-6"><path d="M7.112 2.281 C 6.736 2.326,6.422 2.423,6.120 2.588 C 5.454 2.950,4.919 3.552,4.686 4.200 C 4.492 4.742,4.500 4.407,4.500 12.000 C 4.500 19.593,4.492 19.258,4.686 19.800 C 4.995 20.659,5.783 21.382,6.702 21.648 L 7.020 21.740 10.500 21.740 L 13.980 21.740 14.298 21.648 C 15.305 21.356,16.074 20.595,16.386 19.580 L 16.497 19.220 16.498 17.020 L 16.500 14.820 16.400 14.646 C 16.263 14.406,16.010 14.262,15.735 14.266 C 15.488 14.269,15.319 14.357,15.144 14.574 L 15.020 14.727 15.000 16.914 L 14.980 19.100 14.857 19.360 C 14.705 19.680,14.414 19.979,14.120 20.117 L 13.900 20.220 10.500 20.220 L 7.100 20.220 6.880 20.117 C 6.586 19.979,6.295 19.680,6.143 19.360 L 6.020 19.100 6.020 12.000 L 6.020 4.900 6.143 4.640 C 6.294 4.321,6.566 4.042,6.870 3.893 L 7.100 3.780 10.500 3.780 L 13.900 3.780 14.137 3.900 C 14.451 4.059,14.706 4.321,14.857 4.640 L 14.980 4.900 15.000 7.086 L 15.020 9.273 15.142 9.426 C 15.503 9.879,16.106 9.850,16.390 9.367 L 16.500 9.180 16.498 6.980 L 16.497 4.780 16.386 4.420 C 16.325 4.222,16.220 3.961,16.152 3.840 C 15.751 3.121,15.055 2.564,14.297 2.352 C 13.983 2.264,13.954 2.263,10.680 2.256 C 8.865 2.252,7.260 2.263,7.112 2.281 M18.571 8.278 C 18.398 8.320,18.266 8.411,18.147 8.569 C 18.024 8.733,17.984 8.915,18.020 9.154 C 18.046 9.332,18.088 9.380,18.992 10.290 L 19.936 11.240 14.458 11.241 C 11.314 11.242,8.913 11.257,8.823 11.278 C 8.258 11.409,8.062 12.111,8.475 12.524 C 8.556 12.605,8.693 12.691,8.781 12.715 C 8.893 12.747,10.550 12.760,14.438 12.760 L 19.936 12.760 18.993 13.710 C 18.128 14.580,18.047 14.674,18.021 14.830 C 17.980 15.080,18.029 15.288,18.170 15.459 C 18.302 15.620,18.555 15.758,18.720 15.759 C 19.047 15.761,19.071 15.741,20.713 14.106 C 21.578 13.245,22.332 12.463,22.388 12.369 C 22.526 12.135,22.526 11.864,22.387 11.631 C 22.263 11.423,19.269 8.433,19.099 8.348 C 18.936 8.266,18.728 8.239,18.571 8.278 " stroke="none" fill-rule="evenodd" fill="black"></path></svg>