<svg xmlns="http://www.w3.org/2000/svg" viewBox="0 0 24 24" fill="currentColor" class="w-6 h-6"><path d="M11.541 1.845 C 11.410 1.864,11.191 1.916,11.055 1.962 C 10.723 2.072,2.919 6.277,2.640 6.496 C 2.332 6.737,1.994 7.151,1.825 7.493 C 1.610 7.928,1.520 8.330,1.492 8.980 C 1.471 9.475,1.476 9.547,1.536 9.597 C 1.573 9.627,3.475 10.747,5.764 12.085 L 9.925 14.517 10.412 14.261 C 11.063 13.919,11.405 13.825,12.000 13.825 C 12.595 13.825,12.937 13.919,13.587 14.260 L 14.075 14.517 18.239 12.082 C 20.529 10.743,22.432 9.624,22.467 9.594 C 22.560 9.517,22.517 8.547,22.402 8.102 C 22.239 7.475,21.857 6.885,21.360 6.496 C 21.080 6.276,13.275 2.071,12.946 1.963 C 12.495 1.814,12.025 1.774,11.541 1.845 M1.490 15.647 C 1.505 20.483,1.481 20.117,1.822 20.820 C 2.114 21.423,2.576 21.885,3.180 22.178 C 3.905 22.530,3.078 22.500,12.000 22.500 C 20.922 22.500,20.095 22.530,20.820 22.178 C 21.424 21.885,21.886 21.423,22.178 20.820 C 22.519 20.117,22.495 20.483,22.510 15.647 C 22.522 11.923,22.516 11.355,22.466 11.367 C 22.345 11.394,15.643 15.339,15.671 15.366 C 15.687 15.382,16.465 15.806,17.401 16.310 C 18.336 16.814,19.147 17.256,19.203 17.293 C 19.365 17.399,19.480 17.642,19.480 17.877 C 19.480 18.280,19.213 18.580,18.816 18.624 C 18.568 18.651,18.744 18.738,15.340 16.903 C 13.844 16.097,12.531 15.411,12.423 15.379 C 12.171 15.304,11.829 15.304,11.577 15.379 C 11.469 15.411,10.058 16.149,8.442 17.019 C 6.826 17.888,5.447 18.610,5.378 18.623 C 5.091 18.677,4.691 18.452,4.574 18.172 C 4.458 17.895,4.529 17.554,4.745 17.353 C 4.808 17.294,5.634 16.829,6.580 16.320 C 7.526 15.811,8.313 15.382,8.329 15.366 C 8.357 15.339,1.655 11.394,1.534 11.367 C 1.484 11.355,1.478 11.927,1.490 15.647 " stroke="none" fill-rule="evenodd"></path></svg>