<svg xmlns="http://www.w3.org/2000/svg" fill="none" viewBox="0 0 24 24" stroke-width="1.5" stroke="currentColor" class="w-6 h-6"><path d="M11.500 1.858 C 11.324 1.886,11.068 1.953,10.931 2.009 C 10.689 2.107,3.221 6.112,2.900 6.316 C 2.271 6.715,1.802 7.359,1.588 8.114 C 1.502 8.420,1.502 8.424,1.489 13.900 C 1.480 17.541,1.490 19.511,1.518 19.771 C 1.600 20.532,1.880 21.117,2.410 21.636 C 2.921 22.135,3.473 22.397,4.186 22.479 C 4.671 22.534,19.329 22.534,19.814 22.479 C 20.527 22.397,21.079 22.135,21.590 21.636 C 22.120 21.117,22.400 20.532,22.482 19.771 C 22.510 19.511,22.520 17.541,22.511 13.900 C 22.498 8.425,22.498 8.420,22.412 8.115 C 22.199 7.361,21.729 6.717,21.100 6.316 C 20.785 6.115,13.308 2.106,13.066 2.008 C 12.818 1.908,12.219 1.797,11.960 1.804 C 11.883 1.806,11.676 1.830,11.500 1.858 M13.040 3.668 C 14.745 4.563,20.280 7.570,20.439 7.687 C 20.647 7.841,20.855 8.164,20.945 8.473 C 20.994 8.641,21.004 8.848,20.994 9.473 C 20.980 10.257,20.979 10.261,20.857 10.520 C 20.624 11.012,20.670 10.982,17.229 12.835 L 14.089 14.525 13.632 14.283 C 13.381 14.150,13.074 14.006,12.951 13.964 C 12.592 13.840,12.060 13.791,11.636 13.843 C 11.176 13.899,10.937 13.981,10.368 14.283 L 9.911 14.525 6.771 12.835 C 3.330 10.982,3.376 11.012,3.143 10.520 C 3.021 10.261,3.020 10.257,3.006 9.473 C 2.996 8.848,3.006 8.641,3.055 8.473 C 3.145 8.163,3.354 7.841,3.563 7.686 C 3.664 7.611,5.113 6.813,6.783 5.912 C 10.813 3.740,11.377 3.439,11.552 3.374 C 11.649 3.338,11.825 3.323,12.060 3.331 L 12.420 3.343 13.040 3.668 M5.692 13.957 C 7.137 14.736,8.315 15.378,8.310 15.383 C 8.304 15.389,7.535 15.806,6.599 16.310 C 5.664 16.814,4.848 17.259,4.787 17.299 C 4.532 17.466,4.432 17.906,4.580 18.215 C 4.715 18.498,5.094 18.687,5.394 18.621 C 5.458 18.607,6.831 17.885,8.445 17.017 C 10.059 16.148,11.469 15.411,11.577 15.379 C 11.829 15.304,12.171 15.304,12.423 15.379 C 12.531 15.411,13.941 16.148,15.555 17.017 C 17.169 17.885,18.542 18.607,18.606 18.621 C 18.906 18.687,19.285 18.498,19.420 18.215 C 19.568 17.906,19.468 17.466,19.213 17.299 C 19.152 17.259,18.336 16.814,17.401 16.310 C 16.465 15.806,15.696 15.389,15.690 15.383 C 15.682 15.375,20.868 12.569,20.969 12.526 C 20.988 12.519,20.997 14.166,20.991 16.186 L 20.980 19.860 20.867 20.104 C 20.724 20.413,20.415 20.721,20.100 20.868 L 19.860 20.980 12.000 20.980 L 4.140 20.980 3.896 20.867 C 3.587 20.724,3.279 20.415,3.132 20.100 L 3.020 19.860 3.009 16.186 C 3.003 14.166,3.012 12.519,3.031 12.526 C 3.049 12.534,4.246 13.178,5.692 13.957 " stroke="none" fill-rule="evenodd" fill="black"></path></svg>