<svg xmlns="http://www.w3.org/2000/svg" viewBox="0 0 24 24" fill="currentColor" class="w-6 h-6"><path d="M8.360 1.715 C 6.169 2.724,4.396 4.456,3.339 6.620 C 2.172 9.007,1.937 11.550,2.647 14.100 C 3.356 16.650,5.105 18.923,7.409 20.287 C 9.850 21.732,12.773 22.127,15.500 21.379 C 16.889 20.999,18.250 20.303,19.360 19.407 C 19.835 19.023,20.535 18.326,20.894 17.880 C 21.522 17.099,22.343 15.695,22.479 15.171 C 22.594 14.726,22.234 14.271,21.766 14.271 C 21.646 14.271,21.436 14.323,21.198 14.412 C 19.827 14.924,18.394 15.105,16.992 14.941 C 13.915 14.581,11.260 12.703,9.920 9.940 C 9.280 8.621,9.023 7.493,9.023 6.000 C 9.023 4.811,9.169 3.960,9.552 2.920 C 9.667 2.607,9.736 2.353,9.737 2.240 C 9.739 1.831,9.421 1.519,9.002 1.521 C 8.822 1.521,8.701 1.558,8.360 1.715 " stroke="none" fill-rule="evenodd"></path></svg>