<svg xmlns="http://www.w3.org/2000/svg" fill="none" viewBox="0 0 24 24" stroke-width="1.5" stroke="currentColor" class="w-6 h-6"><path d="M8.392 1.701 C 6.679 2.482,5.263 3.657,4.175 5.200 C 3.278 6.472,2.661 7.949,2.405 9.440 C 1.474 14.850,4.849 20.071,10.148 21.420 C 11.581 21.785,13.105 21.845,14.560 21.595 C 17.387 21.109,19.967 19.406,21.553 16.980 C 21.860 16.509,22.376 15.508,22.463 15.212 C 22.605 14.731,22.262 14.271,21.760 14.271 C 21.646 14.271,21.429 14.326,21.191 14.415 C 18.819 15.303,16.205 15.168,13.980 14.042 C 13.044 13.569,12.380 13.093,11.665 12.382 C 10.497 11.221,9.649 9.728,9.267 8.160 C 9.081 7.397,9.023 6.888,9.023 6.000 C 9.023 4.811,9.169 3.960,9.552 2.920 C 9.667 2.607,9.736 2.353,9.737 2.240 C 9.738 1.986,9.621 1.771,9.405 1.635 C 9.130 1.460,8.886 1.476,8.392 1.701 M7.638 4.301 C 7.091 7.635,8.185 11.023,10.581 13.419 C 12.977 15.815,16.365 16.909,19.699 16.362 C 19.962 16.319,20.183 16.290,20.190 16.297 C 20.227 16.334,19.556 17.161,19.176 17.545 C 17.680 19.060,15.805 19.967,13.681 20.204 C 13.147 20.263,11.831 20.229,11.321 20.141 C 8.657 19.687,6.396 18.145,5.019 15.846 C 3.770 13.759,3.432 11.218,4.085 8.820 C 4.496 7.310,5.485 5.694,6.643 4.636 C 7.002 4.308,7.676 3.783,7.703 3.810 C 7.710 3.817,7.681 4.038,7.638 4.301 " stroke="none" fill-rule="evenodd" fill="black"></path></svg>