<svg xmlns="http://www.w3.org/2000/svg" fill="none" viewBox="0 0 24 24" stroke-width="1.5" stroke="currentColor" class="w-6 h-6"><path d="M11.320 2.280 C 7.872 2.513,4.779 4.593,3.258 7.700 C 2.798 8.640,2.496 9.614,2.334 10.680 C 2.237 11.316,2.237 12.684,2.334 13.320 C 2.780 16.261,4.386 18.729,6.867 20.288 C 7.942 20.964,9.308 21.458,10.680 21.666 C 11.316 21.763,12.684 21.763,13.320 21.666 C 15.420 21.347,17.252 20.460,18.725 19.048 C 20.326 17.514,21.325 15.569,21.666 13.320 C 21.763 12.684,21.763 11.316,21.666 10.680 C 21.223 7.761,19.626 5.291,17.176 3.739 C 16.352 3.217,15.058 2.686,14.120 2.486 C 13.247 2.300,12.184 2.222,11.320 2.280 M13.320 3.858 C 15.111 4.162,16.718 5.007,17.948 6.293 C 19.124 7.524,19.861 9.006,20.148 10.716 C 20.248 11.309,20.248 12.691,20.148 13.284 C 19.536 16.933,16.685 19.710,13.068 20.179 C 9.297 20.668,5.699 18.526,4.301 14.960 C 4.121 14.500,3.948 13.854,3.852 13.284 C 3.752 12.691,3.752 11.309,3.852 10.716 C 4.151 8.933,4.918 7.434,6.176 6.176 C 7.565 4.788,9.153 4.038,11.240 3.785 C 11.553 3.747,12.955 3.796,13.320 3.858 M11.820 8.276 C 11.554 8.342,11.353 8.534,11.282 8.791 C 11.258 8.878,11.240 9.422,11.240 10.090 L 11.240 11.240 10.110 11.241 C 9.489 11.241,8.909 11.258,8.823 11.278 C 8.258 11.409,8.062 12.111,8.475 12.524 C 8.556 12.605,8.693 12.691,8.781 12.715 C 8.880 12.743,9.374 12.760,10.090 12.760 L 11.240 12.760 11.240 13.910 C 11.240 14.578,11.258 15.122,11.282 15.209 C 11.390 15.599,11.802 15.827,12.202 15.719 C 12.422 15.660,12.656 15.432,12.715 15.219 C 12.743 15.120,12.760 14.626,12.760 13.910 L 12.760 12.760 13.910 12.760 C 14.626 12.760,15.120 12.743,15.219 12.715 C 15.307 12.691,15.444 12.605,15.525 12.524 C 15.938 12.111,15.742 11.409,15.177 11.278 C 15.091 11.258,14.512 11.241,13.890 11.241 L 12.760 11.240 12.760 10.090 C 12.760 9.422,12.742 8.878,12.718 8.791 C 12.670 8.617,12.514 8.419,12.365 8.343 C 12.224 8.271,11.967 8.240,11.820 8.276 " stroke="none" fill-rule="evenodd" fill="black"></path></svg>