<svg xmlns="http://www.w3.org/2000/svg" fill="none" viewBox="0 0 24 24" stroke-width="1.5" stroke="currentColor" class="size-6"><path d="M11.240 3.025 C 9.956 3.179,9.035 3.441,8.020 3.939 C 6.574 4.650,5.399 5.686,4.467 7.073 C 3.921 7.885,3.252 9.510,3.291 9.929 C 3.349 10.562,4.137 10.833,4.572 10.371 C 4.648 10.289,4.741 10.081,4.863 9.716 C 5.531 7.715,6.858 6.180,8.700 5.279 C 9.624 4.827,10.541 4.581,11.508 4.527 C 12.894 4.450,14.090 4.687,15.300 5.279 C 16.294 5.766,16.783 6.156,18.300 7.678 L 19.219 8.600 17.542 8.600 C 15.915 8.600,15.860 8.603,15.690 8.685 C 15.423 8.814,15.300 9.028,15.300 9.363 C 15.300 9.604,15.313 9.649,15.423 9.786 C 15.490 9.871,15.616 9.976,15.703 10.020 C 15.854 10.097,15.951 10.100,18.397 10.111 C 20.141 10.119,21.000 10.109,21.147 10.079 C 21.402 10.026,21.584 9.885,21.685 9.662 C 21.754 9.510,21.758 9.334,21.759 6.849 C 21.760 3.927,21.770 4.042,21.506 3.811 C 21.142 3.491,20.601 3.579,20.367 3.996 C 20.281 4.148,20.280 4.179,20.280 5.842 L 20.280 7.533 19.130 6.395 C 17.587 4.870,17.098 4.488,15.980 3.939 C 15.112 3.513,14.282 3.252,13.300 3.096 C 12.919 3.036,11.544 2.988,11.240 3.025 M19.659 13.456 C 19.430 13.556,19.306 13.754,19.127 14.303 C 18.278 16.912,16.143 18.811,13.440 19.359 C 11.307 19.792,9.023 19.229,7.300 17.845 C 7.146 17.721,6.516 17.121,5.900 16.511 L 4.780 15.402 6.457 15.401 C 8.084 15.400,8.140 15.397,8.310 15.315 C 8.577 15.186,8.700 14.972,8.700 14.637 C 8.700 14.397,8.687 14.351,8.579 14.218 C 8.323 13.902,8.512 13.920,5.480 13.920 C 2.448 13.920,2.637 13.902,2.381 14.218 L 2.260 14.367 2.248 17.034 C 2.242 18.500,2.247 19.760,2.261 19.832 C 2.274 19.905,2.348 20.035,2.425 20.120 C 2.788 20.522,3.359 20.468,3.630 20.007 L 3.740 19.820 3.752 18.166 L 3.765 16.512 4.892 17.627 C 5.513 18.240,6.173 18.864,6.360 19.013 C 7.234 19.713,8.099 20.182,9.170 20.536 C 11.446 21.289,13.820 21.123,15.980 20.061 C 17.422 19.352,18.605 18.309,19.533 16.927 C 19.851 16.454,20.320 15.485,20.524 14.880 C 20.738 14.247,20.754 13.976,20.590 13.728 C 20.397 13.437,19.982 13.315,19.659 13.456 " stroke="none" fill-rule="evenodd" fill="black"></path></svg>