<svg xmlns="http://www.w3.org/2000/svg" viewBox="0 0 24 24" fill="currentColor" class="w-6 h-6"><path d="M2.700 3.817 C 2.460 3.924,2.239 4.257,2.241 4.509 C 2.243 4.761,2.488 5.105,2.733 5.197 C 2.811 5.227,5.080 5.240,10.130 5.240 L 17.415 5.240 17.590 5.155 C 17.850 5.029,17.980 4.811,17.980 4.500 C 17.980 4.189,17.850 3.971,17.590 3.845 L 17.415 3.760 10.117 3.762 C 4.110 3.763,2.799 3.773,2.700 3.817 M2.811 8.279 C 2.536 8.345,2.316 8.587,2.260 8.885 C 2.197 9.224,2.451 9.626,2.787 9.717 C 2.905 9.748,4.388 9.758,7.946 9.750 C 12.924 9.740,12.941 9.740,13.100 9.656 C 13.607 9.391,13.615 8.646,13.114 8.360 L 12.940 8.260 7.940 8.254 C 5.190 8.250,2.882 8.261,2.811 8.279 M17.094 8.278 C 16.888 8.327,16.703 8.465,16.598 8.648 L 16.500 8.820 16.480 13.990 L 16.460 19.160 15.200 17.896 C 14.380 17.074,13.884 16.606,13.780 16.557 C 13.369 16.364,12.878 16.601,12.758 17.049 C 12.709 17.230,12.726 17.377,12.820 17.575 C 12.854 17.646,13.777 18.596,14.871 19.685 C 16.570 21.378,16.884 21.673,17.025 21.713 C 17.226 21.770,17.258 21.771,17.460 21.716 C 17.596 21.680,17.917 21.377,19.634 19.667 C 20.784 18.521,21.672 17.605,21.704 17.531 C 21.784 17.346,21.773 17.092,21.675 16.890 C 21.523 16.576,21.161 16.423,20.798 16.520 C 20.640 16.562,20.475 16.712,19.310 17.872 L 18.000 19.177 18.000 14.027 C 18.000 8.439,18.011 8.725,17.788 8.487 C 17.619 8.306,17.336 8.221,17.094 8.278 M2.700 12.817 C 2.460 12.924,2.239 13.257,2.241 13.509 C 2.243 13.791,2.548 14.173,2.809 14.220 C 2.881 14.232,5.209 14.238,7.983 14.231 L 13.026 14.220 13.174 14.107 C 13.447 13.899,13.543 13.633,13.460 13.307 C 13.405 13.091,13.285 12.946,13.072 12.836 C 12.928 12.762,12.760 12.760,7.872 12.762 C 3.740 12.763,2.798 12.773,2.700 12.817 " stroke="none" fill-rule="evenodd"></path></svg>