<svg xmlns="http://www.w3.org/2000/svg" fill="none" viewBox="0 0 24 24" stroke-width="1.5" stroke="currentColor" class="w-6 h-6"><path d="M2.700 3.817 C 2.452 3.928,2.242 4.242,2.242 4.500 C 2.242 4.759,2.484 5.104,2.733 5.197 C 2.811 5.227,5.080 5.240,10.130 5.240 L 17.415 5.240 17.590 5.155 C 17.850 5.029,17.980 4.811,17.980 4.500 C 17.980 4.189,17.850 3.971,17.590 3.845 L 17.415 3.760 10.117 3.762 C 4.094 3.763,2.799 3.773,2.700 3.817 M2.805 8.280 C 2.413 8.373,2.172 8.799,2.281 9.204 C 2.341 9.426,2.570 9.658,2.788 9.717 C 2.906 9.749,4.384 9.758,7.967 9.751 L 12.980 9.740 13.130 9.647 C 13.611 9.348,13.602 8.639,13.114 8.360 L 12.940 8.260 7.940 8.254 C 5.190 8.250,2.879 8.262,2.805 8.280 M17.083 8.268 C 16.908 8.303,16.683 8.477,16.591 8.650 L 16.500 8.820 16.480 13.990 L 16.460 19.160 15.200 17.896 C 14.507 17.201,13.882 16.607,13.811 16.576 C 13.659 16.510,13.370 16.503,13.213 16.563 C 12.827 16.708,12.650 17.188,12.839 17.577 C 12.891 17.685,13.588 18.409,14.889 19.706 C 16.955 21.767,16.948 21.761,17.280 21.759 C 17.532 21.757,17.709 21.599,19.686 19.614 C 21.816 17.474,21.798 17.496,21.743 17.148 C 21.657 16.612,21.051 16.341,20.598 16.636 C 20.500 16.699,19.880 17.293,19.220 17.956 L 18.020 19.161 18.000 13.944 L 17.980 8.727 17.856 8.574 C 17.787 8.489,17.679 8.390,17.616 8.354 C 17.487 8.280,17.231 8.239,17.083 8.268 M2.700 12.817 C 2.452 12.928,2.242 13.242,2.242 13.500 C 2.242 13.759,2.484 14.104,2.733 14.197 C 2.810 14.227,4.421 14.240,7.884 14.240 C 12.073 14.240,12.944 14.231,13.051 14.185 C 13.356 14.054,13.546 13.674,13.472 13.342 C 13.425 13.135,13.358 13.033,13.174 12.893 L 13.026 12.780 7.923 12.771 C 3.710 12.764,2.799 12.772,2.700 12.817 " stroke="none" fill-rule="evenodd" fill="black"></path></svg>