<svg xmlns="http://www.w3.org/2000/svg" fill="none" viewBox="0 0 24 24" stroke-width="1.5" stroke="currentColor" class="w-6 h-6"><path d="M2.940 2.463 C 2.874 2.497,2.786 2.556,2.744 2.593 C 2.642 2.684,2.522 2.953,2.520 3.100 C 2.518 3.166,3.124 5.196,3.866 7.610 L 5.215 12.000 3.866 16.390 C 3.124 18.805,2.518 20.834,2.520 20.900 C 2.523 21.073,2.649 21.327,2.792 21.447 C 2.860 21.504,3.002 21.572,3.108 21.597 C 3.330 21.650,3.399 21.633,4.920 21.153 C 9.094 19.834,13.320 17.959,17.060 15.768 C 18.485 14.934,20.557 13.595,21.640 12.810 C 22.153 12.438,22.290 12.217,22.223 11.864 C 22.163 11.540,21.976 11.389,20.040 10.103 C 15.085 6.809,9.808 4.320,4.177 2.618 C 3.409 2.386,3.150 2.354,2.940 2.463 M5.607 4.655 C 9.361 5.945,12.507 7.365,15.920 9.311 C 17.239 10.063,20.160 11.917,20.160 12.001 C 20.160 12.040,18.230 13.308,17.376 13.831 C 13.556 16.167,9.678 17.976,5.380 19.425 C 4.896 19.589,4.481 19.717,4.457 19.711 C 4.432 19.705,4.855 18.270,5.479 16.240 L 6.544 12.780 10.122 12.760 C 14.060 12.738,13.799 12.756,14.047 12.494 C 14.309 12.217,14.309 11.783,14.047 11.506 C 13.799 11.244,14.060 11.262,10.122 11.240 L 6.544 11.220 5.634 8.260 C 5.133 6.632,4.652 5.071,4.566 4.790 C 4.453 4.421,4.424 4.280,4.462 4.280 C 4.491 4.280,5.006 4.449,5.607 4.655 " stroke="none" fill-rule="evenodd" fill="black"></path></svg>