<svg xmlns="http://www.w3.org/2000/svg" viewBox="0 0 24 24" fill="currentColor" class="w-6 h-6"><path d="M2.940 2.456 C 2.716 2.556,2.522 2.857,2.519 3.109 C 2.518 3.170,3.071 5.024,3.749 7.229 L 4.980 11.238 9.340 11.249 C 13.316 11.259,13.711 11.266,13.820 11.326 C 14.402 11.649,14.380 12.407,13.780 12.684 C 13.627 12.755,13.419 12.758,9.300 12.759 L 4.980 12.760 3.749 16.770 C 3.071 18.976,2.518 20.830,2.519 20.891 C 2.523 21.198,2.756 21.493,3.067 21.584 C 3.300 21.652,3.297 21.652,4.080 21.414 C 9.047 19.907,13.848 17.752,18.220 15.070 C 19.027 14.575,21.059 13.233,21.640 12.811 C 22.153 12.438,22.290 12.217,22.223 11.864 C 22.175 11.606,22.032 11.469,21.190 10.880 C 18.787 9.198,16.430 7.801,13.640 6.405 C 10.812 4.991,8.365 3.980,5.460 3.026 C 3.546 2.398,3.232 2.327,2.940 2.456 " stroke="none" fill-rule="evenodd"></path></svg>