<svg xmlns="http://www.w3.org/2000/svg" viewBox="0 0 24 24" fill="currentColor" class="w-6 h-6"><path d="M10.760 2.286 C 10.489 2.331,10.079 2.518,9.859 2.699 C 9.645 2.874,9.421 3.201,9.322 3.484 C 9.279 3.607,9.197 3.983,9.140 4.320 C 9.083 4.656,9.021 4.961,9.002 4.996 C 8.940 5.112,8.784 5.229,8.520 5.361 C 8.377 5.432,8.123 5.578,7.956 5.685 C 7.790 5.792,7.600 5.890,7.536 5.903 C 7.450 5.920,7.244 5.860,6.760 5.675 L 6.100 5.424 5.640 5.422 C 5.192 5.420,5.172 5.424,4.875 5.566 C 4.537 5.727,4.295 5.925,4.112 6.192 C 3.885 6.521,3.008 8.079,2.941 8.270 C 2.738 8.854,2.882 9.600,3.290 10.066 C 3.361 10.148,3.636 10.393,3.900 10.611 C 4.164 10.829,4.409 11.051,4.445 11.105 C 4.498 11.187,4.509 11.334,4.511 11.972 C 4.512 12.394,4.495 12.787,4.474 12.845 C 4.452 12.903,4.225 13.120,3.962 13.335 C 3.702 13.547,3.417 13.800,3.327 13.897 C 2.887 14.374,2.730 15.124,2.942 15.732 C 3.010 15.927,3.880 17.471,4.111 17.807 C 4.369 18.182,4.801 18.470,5.250 18.566 C 5.665 18.655,6.037 18.595,6.760 18.323 C 7.243 18.140,7.451 18.080,7.536 18.097 C 7.600 18.110,7.790 18.208,7.956 18.315 C 8.123 18.422,8.377 18.568,8.520 18.639 C 8.784 18.771,8.940 18.888,9.002 19.004 C 9.021 19.039,9.083 19.342,9.139 19.676 C 9.292 20.580,9.394 20.831,9.757 21.193 C 9.981 21.417,10.209 21.558,10.520 21.665 C 10.717 21.732,10.870 21.740,12.000 21.740 C 13.216 21.740,13.269 21.737,13.530 21.647 C 14.039 21.471,14.455 21.074,14.657 20.572 C 14.709 20.444,14.798 20.054,14.857 19.705 C 14.915 19.355,14.981 19.036,15.002 18.996 C 15.055 18.897,15.255 18.751,15.520 18.619 C 15.641 18.559,15.877 18.422,16.044 18.315 C 16.210 18.208,16.400 18.110,16.464 18.097 C 16.549 18.080,16.757 18.140,17.240 18.323 C 17.963 18.595,18.335 18.655,18.750 18.566 C 19.199 18.470,19.631 18.182,19.889 17.807 C 20.120 17.471,20.990 15.927,21.058 15.732 C 21.262 15.146,21.126 14.421,20.723 13.951 C 20.645 13.860,20.366 13.608,20.101 13.390 C 19.836 13.171,19.591 12.949,19.556 12.895 C 19.465 12.757,19.468 11.220,19.560 11.092 C 19.593 11.046,19.836 10.829,20.100 10.611 C 20.649 10.158,20.799 9.998,20.941 9.718 C 21.180 9.247,21.218 8.698,21.044 8.240 C 20.998 8.119,20.731 7.617,20.450 7.125 C 19.831 6.039,19.659 5.833,19.168 5.590 L 18.826 5.420 18.363 5.422 L 17.900 5.424 17.240 5.675 C 16.756 5.860,16.550 5.920,16.464 5.903 C 16.400 5.890,16.210 5.792,16.044 5.685 C 15.877 5.578,15.623 5.432,15.480 5.361 C 15.216 5.229,15.060 5.112,14.998 4.996 C 14.979 4.961,14.917 4.656,14.860 4.320 C 14.739 3.605,14.654 3.340,14.453 3.047 C 14.181 2.652,13.708 2.363,13.200 2.282 C 12.886 2.232,11.069 2.235,10.760 2.286 M12.948 8.381 C 13.321 8.476,13.825 8.704,14.158 8.931 C 14.392 9.090,14.910 9.608,15.069 9.842 C 15.296 10.176,15.524 10.679,15.627 11.072 C 15.772 11.627,15.772 12.373,15.627 12.928 C 15.525 13.319,15.298 13.820,15.070 14.158 C 14.863 14.465,14.279 15.005,13.928 15.215 C 13.495 15.474,12.923 15.666,12.408 15.727 C 11.626 15.819,10.767 15.631,10.072 15.215 C 9.721 15.005,9.137 14.465,8.930 14.158 C 8.702 13.820,8.475 13.319,8.373 12.928 C 8.228 12.373,8.228 11.627,8.373 11.072 C 8.829 9.328,10.410 8.169,12.200 8.267 C 12.409 8.279,12.746 8.330,12.948 8.381 " stroke="none" fill-rule="evenodd"></path></svg>