<svg xmlns="http://www.w3.org/2000/svg" fill="none" viewBox="0 0 24 24" stroke-width="1.5" stroke="currentColor" class="w-6 h-6"><path d="M10.440 2.280 C 9.837 2.362,9.277 2.764,9.029 3.294 C 8.907 3.554,8.869 3.712,8.741 4.480 C 8.684 4.821,8.618 5.150,8.594 5.210 C 8.567 5.277,8.458 5.376,8.314 5.464 C 7.906 5.711,7.894 5.711,7.216 5.455 C 6.888 5.331,6.512 5.196,6.380 5.155 C 6.063 5.057,5.601 5.057,5.285 5.155 C 4.644 5.355,4.440 5.584,3.588 7.066 C 3.223 7.701,2.879 8.319,2.824 8.440 C 2.565 9.009,2.622 9.686,2.971 10.208 C 3.095 10.392,3.307 10.599,3.760 10.977 C 4.101 11.261,4.402 11.531,4.429 11.577 C 4.492 11.686,4.492 12.314,4.429 12.425 C 4.402 12.471,4.101 12.741,3.760 13.025 C 3.305 13.403,3.095 13.607,2.971 13.792 C 2.628 14.304,2.567 14.965,2.812 15.537 C 2.860 15.651,3.205 16.274,3.578 16.920 C 4.076 17.782,4.318 18.161,4.487 18.341 C 4.856 18.735,5.312 18.931,5.857 18.928 C 6.154 18.926,6.334 18.876,7.133 18.575 C 7.459 18.452,7.788 18.352,7.864 18.352 C 8.054 18.352,8.534 18.639,8.594 18.789 C 8.618 18.850,8.684 19.179,8.741 19.520 C 8.919 20.590,9.003 20.807,9.378 21.180 C 9.669 21.470,9.945 21.624,10.309 21.701 C 10.698 21.784,13.302 21.784,13.691 21.701 C 14.376 21.556,14.944 21.004,15.111 20.320 C 15.136 20.221,15.202 19.861,15.259 19.520 C 15.316 19.179,15.382 18.850,15.406 18.789 C 15.466 18.639,15.946 18.352,16.136 18.352 C 16.212 18.352,16.541 18.452,16.867 18.575 C 17.689 18.884,17.821 18.920,18.141 18.923 C 18.490 18.927,18.753 18.864,19.051 18.708 C 19.459 18.495,19.674 18.214,20.422 16.920 C 20.795 16.274,21.140 15.651,21.188 15.537 C 21.433 14.965,21.372 14.304,21.029 13.792 C 20.905 13.607,20.695 13.403,20.240 13.025 C 19.899 12.741,19.598 12.471,19.571 12.425 C 19.508 12.314,19.508 11.686,19.571 11.577 C 19.598 11.531,19.899 11.261,20.240 10.977 C 20.693 10.599,20.905 10.392,21.029 10.208 C 21.372 9.696,21.433 9.034,21.188 8.464 C 21.140 8.350,20.796 7.730,20.425 7.086 C 19.560 5.584,19.357 5.355,18.715 5.155 C 18.399 5.057,17.937 5.057,17.620 5.155 C 17.488 5.196,17.112 5.331,16.784 5.455 C 16.106 5.711,16.094 5.711,15.686 5.464 C 15.542 5.376,15.433 5.277,15.406 5.210 C 15.382 5.150,15.316 4.821,15.259 4.480 C 15.080 3.404,14.998 3.193,14.615 2.814 C 14.307 2.508,13.958 2.333,13.553 2.280 C 13.214 2.236,10.766 2.236,10.440 2.280 M13.539 3.850 C 13.632 3.932,13.655 4.016,13.781 4.760 C 13.898 5.449,13.942 5.625,14.059 5.864 C 14.233 6.219,14.549 6.539,14.964 6.783 C 15.372 7.022,15.673 7.124,16.047 7.150 C 16.422 7.176,16.542 7.147,17.433 6.817 C 17.814 6.676,18.160 6.560,18.202 6.560 C 18.354 6.560,18.527 6.798,19.103 7.800 C 19.885 9.160,19.853 9.096,19.823 9.259 C 19.801 9.376,19.703 9.475,19.149 9.937 C 18.535 10.448,18.354 10.645,18.187 10.982 C 17.937 11.486,17.937 12.514,18.187 13.018 C 18.356 13.359,18.533 13.552,19.149 14.064 C 19.703 14.525,19.801 14.623,19.823 14.741 C 19.854 14.905,19.882 14.847,19.103 16.200 C 18.524 17.205,18.353 17.440,18.202 17.440 C 18.160 17.440,17.814 17.325,17.433 17.184 C 17.052 17.043,16.627 16.905,16.488 16.878 C 15.993 16.781,15.528 16.887,14.960 17.225 C 14.530 17.481,14.233 17.781,14.059 18.136 C 13.942 18.375,13.898 18.551,13.781 19.240 C 13.655 19.984,13.632 20.068,13.539 20.150 C 13.436 20.240,13.431 20.240,12.000 20.240 C 10.569 20.240,10.564 20.240,10.461 20.150 C 10.368 20.068,10.345 19.984,10.219 19.240 C 10.102 18.551,10.058 18.375,9.941 18.136 C 9.767 17.781,9.470 17.481,9.040 17.225 C 8.472 16.887,8.007 16.781,7.512 16.878 C 7.373 16.905,6.948 17.043,6.567 17.184 C 6.186 17.325,5.840 17.440,5.798 17.440 C 5.646 17.440,5.473 17.202,4.897 16.200 C 4.115 14.840,4.147 14.904,4.177 14.741 C 4.199 14.623,4.297 14.525,4.851 14.064 C 5.803 13.272,5.999 12.920,5.999 12.000 C 5.999 11.547,5.921 11.189,5.758 10.884 C 5.589 10.568,5.458 10.433,4.792 9.883 C 4.289 9.469,4.200 9.379,4.177 9.260 C 4.146 9.095,4.114 9.161,4.897 7.800 C 5.473 6.798,5.646 6.560,5.798 6.560 C 5.840 6.560,6.186 6.676,6.567 6.817 C 7.458 7.147,7.578 7.176,7.953 7.150 C 8.739 7.095,9.615 6.529,9.941 5.864 C 10.058 5.625,10.102 5.449,10.219 4.760 C 10.345 4.016,10.368 3.932,10.461 3.850 C 10.564 3.760,10.569 3.760,12.000 3.760 C 13.431 3.760,13.436 3.760,13.539 3.850 M11.595 8.282 C 11.135 8.332,10.822 8.424,10.380 8.639 C 9.320 9.153,8.640 9.999,8.350 11.160 C 8.232 11.634,8.232 12.366,8.350 12.840 C 8.533 13.573,8.843 14.127,9.358 14.642 C 10.088 15.372,10.964 15.734,12.000 15.734 C 13.036 15.734,13.912 15.372,14.642 14.642 C 15.372 13.912,15.734 13.036,15.734 12.000 C 15.734 10.411,14.808 9.076,13.293 8.485 C 12.852 8.312,12.122 8.225,11.595 8.282 M12.556 9.822 C 12.934 9.911,13.263 10.103,13.580 10.420 C 14.034 10.874,14.239 11.365,14.239 12.000 C 14.239 12.635,14.034 13.126,13.580 13.580 C 13.124 14.036,12.636 14.240,12.000 14.240 C 11.364 14.240,10.876 14.036,10.420 13.580 C 9.966 13.126,9.761 12.635,9.761 12.000 C 9.761 11.365,9.966 10.874,10.420 10.420 C 10.730 10.110,11.066 9.911,11.425 9.823 C 11.737 9.748,12.240 9.747,12.556 9.822 " stroke="none" fill-rule="evenodd" fill="black"></path></svg>