<svg xmlns="http://www.w3.org/2000/svg" viewBox="0 0 24 24" fill="currentColor" class="w-6 h-6"><path d="M18.020 1.598 C 17.424 1.755,16.948 2.042,16.535 2.494 C 16.232 2.827,16.060 3.115,15.908 3.550 C 15.796 3.869,15.785 3.946,15.782 4.420 C 15.781 4.706,15.793 5.012,15.809 5.101 L 15.838 5.261 11.641 7.593 L 7.445 9.924 7.172 9.702 C 6.857 9.446,6.372 9.195,6.000 9.095 C 5.642 8.999,4.873 8.997,4.520 9.091 C 4.377 9.129,4.089 9.244,3.880 9.347 C 3.559 9.504,3.444 9.589,3.138 9.897 C 2.530 10.508,2.264 11.149,2.264 12.000 C 2.264 12.840,2.531 13.491,3.119 14.084 C 3.510 14.478,3.821 14.674,4.338 14.851 C 4.668 14.964,4.746 14.975,5.220 14.976 C 5.600 14.978,5.810 14.959,6.000 14.907 C 6.375 14.804,6.859 14.553,7.171 14.299 L 7.442 14.079 11.640 16.409 L 15.838 18.740 15.809 18.880 C 15.793 18.957,15.781 19.263,15.782 19.560 C 15.784 20.057,15.794 20.128,15.908 20.450 C 16.082 20.945,16.250 21.210,16.640 21.600 C 17.028 21.988,17.360 22.198,17.819 22.343 C 18.788 22.650,19.698 22.502,20.542 21.900 C 21.328 21.339,21.830 20.245,21.740 19.287 C 21.613 17.936,20.680 16.863,19.384 16.579 C 18.925 16.478,18.252 16.512,17.820 16.657 C 17.438 16.785,17.048 17.008,16.773 17.256 L 16.573 17.436 12.376 15.104 L 8.180 12.771 8.200 12.616 C 8.211 12.530,8.220 12.253,8.220 12.000 C 8.220 11.747,8.211 11.471,8.200 11.387 L 8.180 11.233 12.377 8.900 L 16.574 6.568 16.784 6.752 C 17.688 7.550,19.005 7.721,20.078 7.181 C 20.998 6.718,21.588 5.881,21.726 4.844 C 21.783 4.414,21.730 3.946,21.574 3.507 C 21.239 2.565,20.452 1.843,19.489 1.597 C 19.089 1.495,18.411 1.495,18.020 1.598 " stroke="none" fill-rule="evenodd"></path></svg>