<svg xmlns="http://www.w3.org/2000/svg" fill="none" viewBox="0 0 24 24" stroke-width="1.5" stroke="currentColor" class="w-6 h-6"><path d="M18.408 1.563 C 17.894 1.629,17.442 1.812,16.976 2.142 C 16.475 2.498,16.126 2.990,15.914 3.640 C 15.809 3.963,15.790 4.086,15.785 4.460 C 15.782 4.702,15.794 4.981,15.811 5.080 L 15.842 5.260 11.643 7.592 L 7.444 9.925 7.175 9.703 C 6.869 9.451,6.381 9.198,6.000 9.094 C 5.651 8.998,4.881 8.997,4.520 9.092 C 4.377 9.129,4.089 9.244,3.880 9.347 C 3.560 9.504,3.443 9.590,3.137 9.897 C 2.830 10.203,2.744 10.320,2.587 10.640 C 2.330 11.163,2.264 11.441,2.264 12.000 C 2.264 12.556,2.330 12.837,2.580 13.347 C 2.903 14.004,3.509 14.552,4.183 14.795 C 4.645 14.962,4.988 15.015,5.435 14.989 C 6.117 14.949,6.774 14.672,7.286 14.210 L 7.435 14.075 11.628 16.403 C 13.933 17.683,15.825 18.735,15.831 18.740 C 15.838 18.745,15.822 18.837,15.798 18.945 C 15.727 19.251,15.746 19.856,15.836 20.208 C 16.153 21.436,17.105 22.287,18.379 22.480 C 18.757 22.537,19.285 22.480,19.718 22.336 C 21.062 21.888,21.942 20.462,21.721 19.092 C 21.552 18.042,20.992 17.276,20.046 16.802 C 19.073 16.314,17.753 16.456,16.900 17.139 C 16.768 17.244,16.641 17.354,16.617 17.383 C 16.583 17.426,15.714 16.959,12.377 15.104 L 8.180 12.771 8.200 12.616 C 8.211 12.530,8.220 12.253,8.220 12.000 C 8.220 11.747,8.211 11.471,8.200 11.387 L 8.180 11.233 12.240 8.974 C 14.473 7.731,16.356 6.687,16.425 6.652 L 16.549 6.590 16.865 6.842 C 17.448 7.307,18.065 7.527,18.780 7.525 C 19.938 7.521,20.938 6.895,21.443 5.860 C 21.668 5.398,21.760 5.015,21.760 4.540 C 21.760 3.374,21.101 2.321,20.069 1.838 C 19.578 1.608,18.913 1.498,18.408 1.563 M19.412 3.196 C 20.008 3.481,20.346 4.123,20.241 4.773 C 20.101 5.642,19.206 6.222,18.378 5.981 C 17.925 5.849,17.574 5.534,17.378 5.081 C 17.266 4.825,17.272 4.213,17.388 3.960 C 17.757 3.157,18.635 2.826,19.412 3.196 M5.888 10.647 C 6.185 10.786,6.437 11.042,6.598 11.369 C 6.709 11.596,6.727 11.675,6.729 11.946 C 6.732 12.340,6.681 12.524,6.486 12.826 C 6.219 13.239,5.776 13.484,5.280 13.491 C 4.674 13.499,4.148 13.166,3.885 12.605 C 3.795 12.411,3.780 12.327,3.780 12.000 C 3.780 11.674,3.795 11.588,3.884 11.398 C 4.064 11.015,4.309 10.783,4.716 10.612 C 5.035 10.478,5.559 10.494,5.888 10.647 M19.372 18.151 C 19.697 18.302,19.951 18.550,20.102 18.862 C 20.206 19.076,20.217 19.141,20.217 19.500 C 20.217 19.827,20.201 19.933,20.131 20.081 C 19.918 20.527,19.649 20.768,19.197 20.922 C 18.342 21.211,17.436 20.642,17.273 19.714 C 17.146 18.992,17.665 18.227,18.411 18.036 C 18.673 17.969,19.091 18.019,19.372 18.151 " stroke="none" fill-rule="evenodd" fill="black"></path></svg>