<svg xmlns="http://www.w3.org/2000/svg" fill="none" viewBox="0 0 24 24" stroke-width="1.5" stroke="currentColor" class="w-6 h-6"><path d="M11.700 2.435 C 11.459 2.498,11.256 2.621,11.060 2.822 C 10.895 2.991,10.823 3.117,10.647 3.543 C 10.529 3.828,10.043 4.996,9.567 6.140 L 8.700 8.220 5.893 8.445 C 3.231 8.659,3.076 8.676,2.868 8.771 C 2.469 8.954,2.214 9.282,2.121 9.732 C 2.042 10.116,2.171 10.560,2.443 10.842 C 2.519 10.919,3.501 11.771,4.627 12.735 C 5.754 13.698,6.668 14.508,6.659 14.533 C 6.650 14.559,6.360 15.759,6.015 17.200 C 5.312 20.133,5.307 20.163,5.500 20.593 C 5.622 20.865,5.851 21.102,6.126 21.243 C 6.339 21.352,6.761 21.389,7.028 21.322 C 7.157 21.290,8.000 20.798,9.610 19.815 L 12.000 18.356 14.290 19.754 C 15.550 20.523,16.659 21.193,16.756 21.243 C 17.016 21.378,17.467 21.395,17.768 21.282 C 18.269 21.093,18.610 20.609,18.612 20.083 C 18.613 19.879,18.473 19.236,17.985 17.200 C 17.640 15.759,17.350 14.559,17.341 14.533 C 17.332 14.508,18.246 13.698,19.373 12.735 C 20.499 11.771,21.479 10.922,21.551 10.847 C 21.835 10.554,21.958 10.142,21.880 9.746 C 21.791 9.291,21.567 8.988,21.182 8.798 L 20.926 8.672 18.120 8.446 C 15.754 8.255,15.309 8.210,15.279 8.156 C 15.259 8.121,14.792 7.006,14.239 5.678 C 13.687 4.350,13.188 3.175,13.129 3.067 C 13.006 2.840,12.787 2.640,12.530 2.519 C 12.333 2.427,11.898 2.383,11.700 2.435 M12.777 6.071 C 14.078 9.214,14.022 9.088,14.228 9.298 C 14.448 9.520,14.623 9.616,14.920 9.674 C 15.041 9.697,16.202 9.799,17.500 9.900 C 18.798 10.001,19.912 10.096,19.975 10.112 C 20.085 10.139,20.002 10.216,18.195 11.766 C 17.153 12.660,16.233 13.461,16.152 13.546 C 15.963 13.742,15.846 14.010,15.817 14.306 C 15.798 14.512,15.866 14.838,16.398 17.058 C 16.730 18.443,16.996 19.590,16.991 19.607 C 16.985 19.625,16.035 19.061,14.880 18.356 C 13.725 17.650,12.690 17.025,12.580 16.967 C 12.404 16.873,12.334 16.860,12.000 16.860 C 11.666 16.860,11.596 16.873,11.420 16.967 C 11.310 17.025,10.275 17.650,9.120 18.356 C 7.965 19.062,7.015 19.625,7.009 19.608 C 7.003 19.590,7.270 18.443,7.602 17.058 C 8.133 14.838,8.202 14.512,8.183 14.306 C 8.155 14.010,8.037 13.742,7.848 13.546 C 7.767 13.461,6.847 12.660,5.805 11.766 C 3.998 10.216,3.915 10.139,4.025 10.112 C 4.088 10.096,5.202 10.001,6.500 9.900 C 7.798 9.799,8.966 9.696,9.095 9.672 C 9.366 9.621,9.692 9.419,9.872 9.191 C 9.942 9.102,10.386 8.085,10.985 6.642 C 11.532 5.322,11.989 4.242,12.000 4.242 C 12.011 4.242,12.361 5.065,12.777 6.071 " stroke="none" fill-rule="evenodd" fill="black"></path></svg>