<svg xmlns="http://www.w3.org/2000/svg" fill="none" viewBox="0 0 24 24" stroke-width="1.5" stroke="currentColor" class="w-6 h-6"><path d="M2.910 3.803 C 2.326 3.942,1.775 4.464,1.589 5.059 L 1.500 5.340 1.500 12.000 L 1.500 18.660 1.590 18.945 C 1.691 19.266,1.939 19.634,2.190 19.832 C 2.279 19.903,2.475 20.019,2.626 20.090 L 2.900 20.220 12.000 20.220 L 21.100 20.220 21.374 20.090 C 21.525 20.019,21.721 19.903,21.810 19.832 C 22.061 19.634,22.309 19.266,22.410 18.945 L 22.500 18.660 22.500 12.000 L 22.500 5.340 22.411 5.059 C 22.252 4.550,21.896 4.157,21.372 3.909 L 21.100 3.780 12.080 3.774 C 6.923 3.770,2.996 3.783,2.910 3.803 M20.780 5.303 C 20.989 5.402,21.006 5.492,20.992 6.433 L 20.980 7.278 20.869 7.389 L 20.758 7.500 12.000 7.500 L 3.242 7.500 3.131 7.389 L 3.020 7.278 3.008 6.433 C 2.999 5.863,3.010 5.552,3.041 5.477 C 3.146 5.224,2.483 5.242,11.994 5.241 C 19.777 5.240,20.661 5.246,20.780 5.303 M11.143 9.132 C 11.239 9.243,11.240 9.252,11.240 10.119 L 11.240 10.994 11.136 11.117 L 11.033 11.240 7.139 11.240 L 3.244 11.240 3.132 11.144 L 3.020 11.047 3.008 10.197 C 2.999 9.604,3.010 9.313,3.043 9.232 C 3.143 8.991,2.941 9.002,7.173 9.011 L 11.047 9.020 11.143 9.132 M20.796 9.058 C 20.987 9.157,21.006 9.267,20.992 10.197 L 20.980 11.047 20.868 11.144 L 20.756 11.240 16.861 11.240 L 12.967 11.240 12.864 11.117 L 12.760 10.994 12.760 10.126 C 12.760 9.195,12.775 9.120,12.974 9.040 C 13.021 9.021,14.775 9.004,16.872 9.003 C 20.131 9.000,20.700 9.008,20.796 9.058 M11.123 12.877 L 11.240 12.994 11.240 13.880 L 11.240 14.766 11.123 14.883 L 11.006 15.000 7.129 15.000 L 3.252 15.000 3.147 14.903 C 3.090 14.850,3.032 14.764,3.019 14.711 C 3.006 14.659,3.001 14.242,3.008 13.784 L 3.020 12.953 3.132 12.856 L 3.244 12.760 7.125 12.760 L 11.006 12.760 11.123 12.877 M20.868 12.856 L 20.980 12.953 20.992 13.784 C 20.999 14.242,20.994 14.659,20.981 14.711 C 20.968 14.764,20.910 14.850,20.853 14.903 L 20.748 15.000 16.871 15.000 L 12.994 15.000 12.877 14.883 L 12.760 14.766 12.760 13.880 L 12.760 12.994 12.877 12.877 L 12.994 12.760 16.875 12.760 L 20.756 12.760 20.868 12.856 M11.135 16.625 L 11.240 16.731 11.240 17.607 C 11.240 18.575,11.227 18.635,10.991 18.717 C 10.907 18.746,9.687 18.760,7.113 18.760 C 3.009 18.760,3.143 18.768,3.045 18.531 C 3.010 18.446,2.999 18.170,3.008 17.569 C 3.020 16.740,3.022 16.725,3.117 16.623 L 3.214 16.520 7.122 16.520 L 11.029 16.520 11.135 16.625 M20.883 16.623 C 20.978 16.725,20.980 16.740,20.992 17.569 C 21.001 18.170,20.990 18.446,20.955 18.531 C 20.857 18.768,20.991 18.760,16.887 18.760 C 14.313 18.760,13.093 18.746,13.009 18.717 C 12.773 18.635,12.760 18.575,12.760 17.607 L 12.760 16.731 12.865 16.625 L 12.971 16.520 16.878 16.520 L 20.786 16.520 20.883 16.623 " stroke="none" fill-rule="evenodd" fill="black"></path></svg>