<svg xmlns="http://www.w3.org/2000/svg" viewBox="0 0 24 24" fill="currentColor" class="w-6 h-6"><path d="M11.340 2.281 C 9.465 2.398,7.649 3.079,6.084 4.252 C 5.583 4.627,4.616 5.596,4.245 6.092 C 3.236 7.444,2.622 8.895,2.353 10.572 C 2.239 11.277,2.230 12.591,2.333 13.300 C 2.582 15.004,3.215 16.530,4.245 17.908 C 4.622 18.412,5.588 19.378,6.092 19.755 C 7.471 20.785,9.000 21.420,10.700 21.666 C 11.033 21.714,11.432 21.736,12.000 21.736 C 13.556 21.736,14.894 21.430,16.260 20.762 C 17.312 20.247,18.030 19.732,18.881 18.881 C 19.732 18.030,20.248 17.311,20.761 16.260 C 22.377 12.955,21.991 9.059,19.754 6.095 C 18.221 4.064,15.823 2.675,13.280 2.345 C 12.683 2.268,11.941 2.243,11.340 2.281 M15.362 9.081 C 15.661 9.234,15.818 9.607,15.722 9.941 C 15.659 10.161,11.828 15.507,11.646 15.628 C 11.462 15.751,11.273 15.779,11.048 15.719 C 10.878 15.673,10.745 15.553,9.649 14.464 C 8.828 13.649,8.411 13.205,8.354 13.088 C 8.181 12.731,8.329 12.290,8.683 12.110 C 8.836 12.032,9.136 12.018,9.307 12.082 C 9.369 12.105,9.809 12.512,10.285 12.987 L 11.150 13.849 12.790 11.555 C 13.693 10.293,14.473 9.221,14.525 9.172 C 14.729 8.984,15.093 8.944,15.362 9.081 " stroke="none" fill-rule="evenodd"></path></svg>