<svg xmlns="http://www.w3.org/2000/svg" fill="none" viewBox="0 0 24 24" stroke-width="1.5" stroke="currentColor" class="w-6 h-6"><path d="M11.320 2.280 C 7.872 2.513,4.779 4.593,3.258 7.700 C 2.798 8.640,2.496 9.614,2.334 10.680 C 2.237 11.316,2.237 12.684,2.334 13.320 C 2.780 16.261,4.386 18.729,6.867 20.288 C 7.942 20.964,9.308 21.458,10.680 21.666 C 11.316 21.763,12.684 21.763,13.320 21.666 C 15.420 21.347,17.252 20.460,18.725 19.048 C 20.326 17.514,21.325 15.569,21.666 13.320 C 21.763 12.684,21.763 11.316,21.666 10.680 C 21.223 7.761,19.626 5.291,17.176 3.739 C 16.352 3.217,15.058 2.686,14.120 2.486 C 13.247 2.300,12.184 2.222,11.320 2.280 M13.320 3.858 C 15.111 4.162,16.718 5.007,17.948 6.293 C 19.124 7.524,19.861 9.006,20.148 10.716 C 20.248 11.309,20.248 12.691,20.148 13.284 C 19.536 16.933,16.685 19.710,13.068 20.179 C 9.297 20.668,5.699 18.526,4.301 14.960 C 4.121 14.500,3.948 13.854,3.852 13.284 C 3.752 12.691,3.752 11.309,3.852 10.716 C 4.151 8.933,4.918 7.434,6.176 6.176 C 7.565 4.788,9.153 4.038,11.240 3.785 C 11.553 3.747,12.955 3.796,13.320 3.858 M14.697 9.076 C 14.607 9.117,14.470 9.229,14.393 9.325 C 14.316 9.421,13.554 10.479,12.701 11.675 L 11.150 13.849 10.285 12.986 C 9.726 12.429,9.367 12.101,9.271 12.061 C 9.076 11.981,8.897 11.985,8.698 12.075 C 8.285 12.263,8.126 12.763,8.359 13.138 C 8.401 13.205,8.981 13.803,9.648 14.466 C 10.907 15.719,10.960 15.761,11.280 15.759 C 11.425 15.758,11.684 15.628,11.804 15.495 C 11.862 15.432,12.756 14.192,13.792 12.739 C 15.181 10.791,15.688 10.051,15.723 9.919 C 15.877 9.335,15.254 8.823,14.697 9.076 " stroke="none" fill-rule="evenodd" fill="black"></path></svg>