<svg xmlns="http://www.w3.org/2000/svg" fill="none" viewBox="0 0 24 24" stroke-width="1.5" stroke="currentColor"><path d="M9.805 1.280 C 9.414 1.372,9.172 1.799,9.281 2.204 C 9.340 2.422,9.569 2.657,9.781 2.715 C 10.001 2.777,13.999 2.777,14.219 2.715 C 14.307 2.691,14.444 2.605,14.525 2.524 C 14.938 2.111,14.742 1.409,14.177 1.278 C 13.985 1.234,9.994 1.235,9.805 1.280 M18.900 3.259 C 18.878 3.267,18.811 3.284,18.751 3.297 C 18.586 3.333,18.374 3.542,18.297 3.741 C 18.224 3.935,18.239 4.167,18.338 4.354 C 18.369 4.412,18.895 4.958,19.507 5.567 C 20.480 6.535,20.642 6.679,20.795 6.719 C 21.366 6.870,21.870 6.366,21.719 5.795 C 21.679 5.642,21.535 5.480,20.567 4.507 C 19.958 3.895,19.415 3.371,19.360 3.342 C 19.254 3.286,18.968 3.235,18.900 3.259 M11.340 4.280 C 9.269 4.429,7.313 5.328,5.819 6.820 C 4.475 8.163,3.627 9.847,3.334 11.760 C 3.238 12.390,3.238 13.610,3.334 14.240 C 3.732 16.834,5.204 19.079,7.404 20.445 C 8.922 21.388,10.860 21.865,12.610 21.727 C 14.766 21.557,16.681 20.682,18.180 19.181 C 19.685 17.673,20.557 15.767,20.727 13.610 C 20.941 10.896,19.751 8.077,17.654 6.329 C 15.859 4.834,13.645 4.115,11.340 4.280 M13.232 5.856 C 15.400 6.257,17.217 7.542,18.306 9.442 C 18.894 10.470,19.183 11.504,19.228 12.740 C 19.302 14.784,18.566 16.659,17.120 18.112 C 16.083 19.154,14.839 19.820,13.360 20.125 C 12.956 20.209,12.791 20.220,12.000 20.220 C 11.209 20.220,11.044 20.209,10.640 20.125 C 9.179 19.824,7.920 19.155,6.909 18.144 C 5.787 17.022,5.119 15.726,4.834 14.120 C 4.763 13.720,4.763 12.280,4.834 11.880 C 4.921 11.392,5.077 10.804,5.218 10.439 C 5.965 8.504,7.504 6.965,9.439 6.218 C 9.961 6.017,10.468 5.898,11.300 5.783 C 11.566 5.746,12.915 5.797,13.232 5.856 M11.820 8.276 C 11.554 8.342,11.353 8.534,11.282 8.791 C 11.223 9.002,11.226 13.007,11.285 13.219 C 11.344 13.432,11.578 13.660,11.798 13.719 C 12.198 13.827,12.610 13.599,12.718 13.209 C 12.774 13.007,12.774 8.993,12.718 8.791 C 12.670 8.617,12.514 8.419,12.365 8.343 C 12.224 8.271,11.967 8.240,11.820 8.276 " stroke="none" fill-rule="evenodd" fill="black"></path></svg>