<svg xmlns="http://www.w3.org/2000/svg" viewBox="0 0 24 24" fill="none"><path d="M9.805 1.280 C 9.414 1.372,9.172 1.799,9.281 2.204 C 9.340 2.422,9.569 2.657,9.781 2.715 C 10.001 2.777,13.999 2.777,14.219 2.715 C 14.307 2.691,14.444 2.605,14.525 2.524 C 14.938 2.111,14.742 1.409,14.177 1.278 C 13.985 1.234,9.994 1.235,9.805 1.280 M18.900 3.259 C 18.878 3.267,18.811 3.284,18.751 3.297 C 18.586 3.333,18.374 3.542,18.297 3.741 C 18.224 3.935,18.239 4.167,18.338 4.354 C 18.369 4.412,18.895 4.958,19.507 5.567 C 20.480 6.535,20.642 6.679,20.795 6.719 C 21.366 6.870,21.870 6.366,21.719 5.795 C 21.679 5.642,21.535 5.480,20.567 4.507 C 19.958 3.895,19.415 3.371,19.360 3.342 C 19.254 3.286,18.968 3.235,18.900 3.259 M11.200 5.044 C 8.467 5.307,6.006 7.031,4.800 9.529 C 2.880 13.503,4.549 18.278,8.529 20.200 C 10.730 21.264,13.270 21.264,15.471 20.200 C 18.233 18.867,19.999 16.057,19.999 13.000 C 19.999 9.917,18.217 7.108,15.412 5.773 C 14.124 5.159,12.651 4.904,11.200 5.044 M12.365 8.343 C 12.514 8.419,12.670 8.617,12.718 8.791 C 12.774 8.993,12.774 13.007,12.718 13.209 C 12.610 13.599,12.198 13.827,11.798 13.719 C 11.578 13.660,11.344 13.432,11.285 13.219 C 11.226 13.007,11.223 9.002,11.282 8.791 C 11.327 8.627,11.482 8.423,11.614 8.352 C 11.831 8.235,12.147 8.232,12.365 8.343 " stroke="none" fill-rule="evenodd"></path></svg>