<svg xmlns="http://www.w3.org/2000/svg" fill="none" viewBox="0 0 24 24" stroke-width="1.5" stroke="currentColor" class="w-6 h-6"><path d="M11.277 1.558 C 9.817 1.825,8.611 2.720,7.972 4.010 C 7.656 4.648,7.513 5.271,7.513 6.000 C 7.513 8.211,9.074 10.052,11.280 10.442 C 11.639 10.505,12.438 10.496,12.804 10.425 C 14.665 10.063,16.063 8.665,16.425 6.804 C 16.496 6.438,16.505 5.639,16.442 5.280 C 16.296 4.454,15.925 3.664,15.405 3.070 C 14.804 2.383,14.041 1.903,13.159 1.658 C 12.836 1.568,12.683 1.550,12.120 1.538 C 11.757 1.531,11.378 1.540,11.277 1.558 M12.861 3.129 C 13.804 3.405,14.584 4.183,14.875 5.139 C 14.958 5.412,14.973 5.542,14.973 6.000 C 14.973 6.458,14.958 6.588,14.875 6.861 C 14.582 7.822,13.819 8.581,12.840 8.886 C 12.406 9.021,11.594 9.021,11.160 8.886 C 10.181 8.581,9.418 7.822,9.125 6.861 C 9.042 6.588,9.027 6.458,9.027 6.000 C 9.027 5.542,9.042 5.412,9.125 5.139 C 9.456 4.054,10.371 3.245,11.499 3.040 C 11.832 2.980,12.500 3.023,12.861 3.129 M11.240 12.025 C 10.388 12.128,9.651 12.301,9.040 12.541 C 6.146 13.680,4.175 16.229,3.801 19.319 C 3.743 19.797,3.750 20.246,3.817 20.405 C 3.911 20.629,4.086 20.755,4.625 20.987 C 6.502 21.792,8.411 22.264,10.500 22.442 C 11.169 22.499,12.831 22.499,13.500 22.442 C 15.585 22.266,17.523 21.785,19.378 20.984 C 20.122 20.662,20.240 20.523,20.240 19.964 C 20.240 19.003,19.929 17.711,19.463 16.736 C 19.013 15.795,18.556 15.149,17.824 14.416 C 16.582 13.174,15.064 12.393,13.320 12.098 C 12.955 12.036,11.552 11.987,11.240 12.025 M12.920 13.566 C 15.103 13.834,17.122 15.308,18.080 17.333 C 18.405 18.019,18.660 18.910,18.690 19.460 L 18.700 19.648 18.360 19.786 C 15.462 20.964,12.021 21.300,8.860 20.714 C 7.856 20.529,6.517 20.143,5.640 19.786 L 5.300 19.648 5.310 19.460 C 5.326 19.168,5.471 18.499,5.606 18.100 C 6.560 15.267,9.281 13.385,12.240 13.510 C 12.427 13.518,12.733 13.543,12.920 13.566 " stroke="none" fill-rule="evenodd" fill="black"></path></svg>