<svg xmlns="http://www.w3.org/2000/svg" fill="none" viewBox="0 0 24 24" stroke-width="1.5" stroke="currentColor" class="w-6 h-6"><path d="M11.600 3.023 C 11.545 3.033,11.392 3.060,11.260 3.084 C 10.018 3.307,8.929 4.245,8.479 5.477 C 7.744 7.491,8.883 9.743,10.939 10.339 C 12.122 10.681,13.394 10.430,14.344 9.665 C 15.349 8.856,15.879 7.568,15.721 6.320 C 15.520 4.727,14.396 3.471,12.840 3.101 C 12.580 3.039,11.789 2.989,11.600 3.023 M12.603 4.584 C 13.171 4.753,13.727 5.202,13.990 5.704 C 14.267 6.231,14.315 6.966,14.110 7.526 C 13.772 8.449,12.861 9.047,11.880 8.988 C 11.422 8.960,11.074 8.843,10.727 8.599 C 10.108 8.165,9.759 7.501,9.761 6.762 C 9.762 6.124,9.965 5.635,10.419 5.176 C 10.708 4.883,10.970 4.722,11.360 4.596 C 11.651 4.501,12.303 4.495,12.603 4.584 M4.580 6.823 C 3.543 7.051,2.618 7.949,2.335 9.000 C 2.229 9.393,2.237 10.128,2.352 10.532 C 2.649 11.576,3.424 12.351,4.468 12.648 C 4.872 12.763,5.607 12.771,6.000 12.665 C 6.830 12.442,7.561 11.837,7.939 11.060 C 8.182 10.560,8.256 10.189,8.230 9.604 C 8.193 8.792,7.950 8.235,7.380 7.657 C 7.014 7.286,6.648 7.054,6.180 6.898 C 5.771 6.761,5.021 6.726,4.580 6.823 M18.168 6.805 C 17.175 6.970,16.218 7.818,15.895 8.820 C 15.755 9.251,15.722 9.922,15.816 10.380 C 16.035 11.441,16.930 12.377,18.000 12.665 C 18.393 12.771,19.128 12.763,19.532 12.648 C 20.573 12.352,21.352 11.573,21.648 10.532 C 21.763 10.128,21.771 9.393,21.665 9.000 C 21.378 7.933,20.440 7.035,19.392 6.822 C 19.061 6.755,18.512 6.747,18.168 6.805 M5.868 8.401 C 6.947 8.892,7.037 10.390,6.025 11.029 C 5.639 11.274,5.060 11.307,4.630 11.110 C 4.151 10.890,3.806 10.398,3.769 9.878 C 3.734 9.394,3.860 9.059,4.213 8.692 C 4.633 8.256,5.293 8.140,5.868 8.401 M19.319 8.372 C 19.573 8.465,19.910 8.764,20.055 9.022 C 20.587 9.975,19.931 11.169,18.841 11.232 C 18.641 11.243,18.471 11.229,18.335 11.188 C 17.252 10.866,16.902 9.496,17.699 8.699 C 18.123 8.275,18.726 8.153,19.319 8.372 M11.240 12.045 C 10.167 12.168,9.168 12.538,8.220 13.163 C 7.897 13.376,7.635 13.597,7.235 13.997 L 6.690 14.540 6.497 14.468 C 5.990 14.278,5.123 14.210,4.580 14.317 C 3.394 14.553,2.430 15.271,1.905 16.311 C 1.612 16.889,1.443 17.736,1.516 18.255 C 1.560 18.562,1.593 18.631,1.778 18.793 C 2.091 19.068,3.845 19.479,4.711 19.480 C 5.190 19.481,5.271 19.508,5.355 19.695 C 5.467 19.943,5.605 20.047,6.254 20.377 C 9.873 22.210,14.127 22.210,17.746 20.377 C 18.396 20.047,18.533 19.943,18.645 19.695 C 18.730 19.506,18.802 19.480,19.238 19.480 C 19.830 19.480,20.848 19.300,21.632 19.056 C 22.427 18.810,22.589 18.532,22.479 17.609 C 22.303 16.134,21.366 14.956,19.980 14.466 C 19.230 14.201,18.350 14.189,17.624 14.433 L 17.307 14.540 16.764 13.997 C 16.159 13.392,15.643 13.020,14.934 12.676 C 13.804 12.129,12.480 11.902,11.240 12.045 M12.892 13.580 C 14.534 13.866,15.947 14.924,16.711 16.440 C 17.027 17.067,17.191 17.712,17.228 18.466 L 17.252 18.953 17.015 19.072 C 16.040 19.565,14.832 19.948,13.701 20.125 C 13.028 20.231,11.678 20.269,10.974 20.203 C 9.662 20.079,8.384 19.732,7.213 19.179 L 6.760 18.966 6.760 18.653 C 6.761 17.997,6.939 17.194,7.221 16.575 C 7.559 15.832,8.259 14.979,8.916 14.506 C 9.529 14.064,10.347 13.714,11.073 13.583 C 11.493 13.507,12.465 13.505,12.892 13.580 M5.672 15.797 C 5.766 15.815,5.852 15.839,5.863 15.850 C 5.875 15.861,5.819 16.027,5.739 16.219 C 5.587 16.587,5.382 17.323,5.339 17.660 C 5.293 18.014,5.308 18.000,4.987 17.999 C 4.626 17.998,3.942 17.908,3.432 17.794 C 2.983 17.694,2.984 17.696,3.119 17.303 C 3.371 16.571,3.986 15.998,4.706 15.823 C 4.970 15.759,5.415 15.747,5.672 15.797 M19.298 15.821 C 20.033 16.013,20.629 16.570,20.881 17.303 C 21.018 17.700,21.020 17.696,20.550 17.797 C 20.048 17.905,19.309 18.000,18.974 18.000 C 18.697 18.000,18.706 18.010,18.661 17.660 C 18.618 17.323,18.413 16.587,18.261 16.219 C 18.181 16.027,18.125 15.861,18.136 15.851 C 18.232 15.754,18.970 15.736,19.298 15.821 " stroke="none" fill-rule="evenodd" fill="black"></path></svg>