<svg xmlns="http://www.w3.org/2000/svg" fill="none" viewBox="0 0 24 24" stroke-width="1.5" stroke="currentColor" class="w-6 h-6"><path d="M11.580 2.267 C 10.214 2.323,8.792 2.698,7.572 3.326 C 6.610 3.820,5.895 4.343,5.119 5.119 C 4.163 6.075,3.520 7.026,3.010 8.240 C 1.927 10.814,2.012 13.760,3.240 16.260 C 5.620 21.106,11.372 23.110,16.222 20.784 C 17.239 20.296,18.031 19.730,18.862 18.901 C 19.684 18.079,20.258 17.285,20.740 16.300 C 22.064 13.597,22.083 10.546,20.795 7.802 C 20.055 6.228,18.720 4.725,17.214 3.769 C 15.566 2.724,13.552 2.187,11.580 2.267 M13.002 3.818 C 14.262 3.976,15.325 4.353,16.360 5.008 C 18.040 6.072,19.200 7.545,19.816 9.400 C 20.146 10.392,20.262 11.196,20.229 12.260 C 20.190 13.493,19.939 14.510,19.400 15.620 C 19.041 16.361,18.754 16.793,18.169 17.479 L 18.050 17.618 17.701 17.288 C 16.496 16.147,15.042 15.417,13.369 15.113 C 12.692 14.990,11.308 14.990,10.631 15.113 C 8.958 15.417,7.504 16.147,6.299 17.288 L 5.950 17.618 5.831 17.479 C 5.184 16.721,4.797 16.114,4.452 15.320 C 4.123 14.563,3.907 13.752,3.798 12.864 C 3.721 12.241,3.770 11.063,3.900 10.440 C 4.438 7.849,6.014 5.784,8.340 4.621 C 9.516 4.033,10.601 3.775,11.942 3.765 C 12.272 3.762,12.749 3.786,13.002 3.818 M11.600 6.023 C 11.545 6.033,11.392 6.060,11.260 6.084 C 10.018 6.307,8.929 7.245,8.479 8.477 C 7.744 10.491,8.883 12.743,10.939 13.339 C 12.122 13.681,13.394 13.430,14.344 12.665 C 15.349 11.856,15.879 10.568,15.721 9.320 C 15.520 7.727,14.396 6.471,12.840 6.101 C 12.580 6.039,11.789 5.989,11.600 6.023 M12.603 7.584 C 13.171 7.753,13.727 8.202,13.990 8.704 C 14.267 9.231,14.315 9.966,14.110 10.526 C 13.772 11.449,12.861 12.047,11.880 11.988 C 11.422 11.960,11.074 11.843,10.727 11.599 C 10.108 11.165,9.759 10.501,9.761 9.762 C 9.762 9.124,9.965 8.635,10.419 8.176 C 10.708 7.883,10.970 7.722,11.360 7.596 C 11.651 7.501,12.303 7.495,12.603 7.584 M13.000 16.582 C 14.317 16.765,15.631 17.404,16.642 18.351 L 16.932 18.623 16.516 18.896 C 14.655 20.115,12.295 20.539,10.160 20.038 C 9.249 19.824,8.250 19.398,7.484 18.896 L 7.068 18.623 7.358 18.351 C 8.352 17.420,9.678 16.769,10.960 16.584 C 11.486 16.508,12.461 16.507,13.000 16.582 " stroke="none" fill-rule="evenodd" fill="black"></path></svg>