<svg xmlns="http://www.w3.org/2000/svg" fill="none" viewBox="0 0 24 24" stroke-width="1.5" stroke="currentColor" class="w-6 h-6"><path d="M9.931 2.282 C 8.512 2.422,7.181 3.395,6.607 4.710 C 6.429 5.118,6.327 5.511,6.272 6.006 C 6.189 6.757,6.355 7.575,6.742 8.310 C 7.739 10.206,10.050 11.007,12.040 10.145 C 12.934 9.757,13.757 8.934,14.145 8.040 C 15.116 5.799,13.975 3.237,11.664 2.464 C 11.156 2.295,10.499 2.226,9.931 2.282 M10.903 3.804 C 11.806 3.970,12.623 4.728,12.905 5.660 C 13.011 6.007,13.003 6.807,12.891 7.147 C 12.672 7.814,12.157 8.419,11.557 8.716 C 10.353 9.309,8.960 8.945,8.200 7.838 C 7.801 7.256,7.665 6.518,7.820 5.780 C 8.013 4.867,8.853 4.019,9.760 3.823 C 10.079 3.754,10.585 3.745,10.903 3.804 M15.700 9.817 C 15.452 9.928,15.242 10.242,15.242 10.500 C 15.242 10.759,15.484 11.104,15.733 11.197 C 15.809 11.226,16.868 11.240,19.000 11.240 C 21.132 11.240,22.191 11.226,22.267 11.197 C 22.516 11.104,22.758 10.759,22.758 10.500 C 22.758 10.241,22.516 9.896,22.267 9.803 C 22.191 9.774,21.132 9.761,18.987 9.762 C 16.423 9.763,15.797 9.773,15.700 9.817 M9.900 12.023 C 8.582 12.149,7.647 12.451,6.611 13.085 C 4.596 14.319,3.298 16.600,3.267 18.963 C 3.260 19.448,3.264 19.470,3.369 19.631 C 3.495 19.821,3.809 20.018,4.632 20.423 C 6.017 21.104,7.445 21.513,9.040 21.685 C 9.626 21.748,11.122 21.748,11.720 21.686 C 13.271 21.523,14.759 21.095,16.127 20.419 C 16.964 20.006,17.273 19.806,17.393 19.602 C 17.492 19.433,17.497 19.397,17.488 18.943 C 17.473 18.102,17.296 17.259,16.963 16.439 C 16.034 14.151,13.940 12.482,11.520 12.103 C 11.132 12.042,10.189 11.996,9.900 12.023 M11.520 13.619 C 13.099 13.968,14.448 14.951,15.253 16.340 C 15.622 16.977,15.901 17.838,15.947 18.483 L 15.971 18.828 15.462 19.076 C 13.819 19.875,12.227 20.239,10.380 20.239 C 8.492 20.239,6.828 19.850,5.190 19.026 L 4.780 18.820 4.791 18.600 C 4.870 16.991,5.958 15.238,7.440 14.332 C 8.008 13.985,8.768 13.702,9.460 13.580 C 9.890 13.504,11.103 13.527,11.520 13.619 " stroke="none" fill-rule="evenodd" fill="black"></path></svg>