<svg xmlns="http://www.w3.org/2000/svg" fill="none" viewBox="0 0 24 24" stroke-width="1.5" stroke="currentColor" class="w-6 h-6"><path d="M8.189 2.284 C 7.769 2.325,7.469 2.399,7.078 2.558 C 6.140 2.940,5.306 3.732,4.884 4.642 C 4.390 5.706,4.386 7.000,4.874 8.086 C 5.264 8.955,6.085 9.766,6.960 10.145 C 8.493 10.809,10.274 10.500,11.454 9.365 C 12.166 8.680,12.571 7.882,12.711 6.890 C 12.911 5.468,12.294 4.004,11.113 3.095 C 10.305 2.473,9.252 2.181,8.189 2.284 M9.220 3.820 C 9.374 3.852,9.635 3.946,9.800 4.028 C 10.220 4.238,10.762 4.780,10.972 5.200 C 11.299 5.856,11.331 6.716,11.052 7.378 C 10.785 8.013,10.228 8.563,9.600 8.811 C 8.176 9.373,6.591 8.617,6.109 7.147 C 5.997 6.807,5.989 6.007,6.095 5.660 C 6.369 4.755,7.143 4.015,8.020 3.820 C 8.342 3.748,8.877 3.748,9.220 3.820 M17.360 5.267 C 15.822 5.391,14.564 6.549,14.296 8.089 C 14.093 9.250,14.591 10.527,15.533 11.265 C 15.874 11.532,16.218 11.711,16.680 11.862 C 16.983 11.961,17.081 11.974,17.580 11.977 C 18.191 11.980,18.396 11.945,18.880 11.750 C 19.727 11.408,20.404 10.731,20.749 9.880 C 20.944 9.398,20.980 9.192,20.977 8.580 C 20.974 8.083,20.961 7.981,20.863 7.680 C 20.526 6.638,19.806 5.855,18.846 5.485 C 18.412 5.318,17.814 5.230,17.360 5.267 M18.379 6.914 C 18.887 7.152,19.226 7.525,19.401 8.042 C 19.475 8.261,19.486 8.364,19.471 8.720 C 19.456 9.095,19.440 9.170,19.321 9.420 C 19.054 9.979,18.495 10.393,17.893 10.478 C 16.821 10.630,15.836 9.846,15.771 8.788 C 15.733 8.186,15.904 7.712,16.302 7.314 C 16.714 6.902,17.108 6.752,17.724 6.774 C 18.056 6.785,18.146 6.805,18.379 6.914 M8.000 12.026 C 7.386 12.085,6.581 12.273,6.049 12.484 C 3.787 13.378,2.165 15.293,1.656 17.670 C 1.546 18.188,1.466 19.149,1.517 19.368 C 1.599 19.725,1.824 19.901,2.843 20.405 C 4.233 21.092,5.636 21.496,7.280 21.684 C 7.822 21.746,9.459 21.746,10.000 21.684 C 11.790 21.479,13.509 20.941,14.909 20.146 L 15.228 19.965 15.685 20.058 C 16.407 20.204,17.065 20.254,17.951 20.228 C 19.346 20.188,20.463 19.936,21.735 19.376 C 22.414 19.077,22.557 18.839,22.499 18.110 C 22.353 16.290,21.346 14.773,19.780 14.015 C 19.036 13.654,18.421 13.513,17.600 13.513 C 16.450 13.514,15.340 13.922,14.437 14.677 L 14.295 14.796 13.968 14.420 C 12.650 12.901,10.590 11.978,8.580 12.007 C 8.338 12.010,8.077 12.019,8.000 12.026 M9.460 13.565 C 10.678 13.745,11.881 14.373,12.712 15.262 C 13.552 16.159,14.154 17.485,14.207 18.556 L 14.220 18.811 13.969 18.950 C 13.599 19.154,12.761 19.509,12.280 19.666 C 11.045 20.068,9.959 20.239,8.640 20.239 C 6.802 20.239,5.208 19.878,3.560 19.087 C 2.948 18.793,2.992 18.856,3.059 18.360 C 3.158 17.627,3.304 17.170,3.642 16.525 C 4.766 14.385,7.072 13.211,9.460 13.565 M18.240 15.062 C 19.115 15.228,19.905 15.735,20.386 16.440 C 20.692 16.887,20.960 17.591,20.960 17.946 C 20.960 18.098,20.921 18.121,20.300 18.321 C 18.898 18.772,17.543 18.867,16.098 18.613 L 15.736 18.550 15.684 18.165 C 15.617 17.658,15.440 16.981,15.256 16.520 C 15.146 16.246,15.118 16.132,15.147 16.085 C 15.169 16.049,15.308 15.918,15.456 15.793 C 16.215 15.153,17.264 14.877,18.240 15.062 " stroke="none" fill-rule="evenodd" fill="black"></path></svg>